<svg width="153" height="126" viewBox="0 0 153 126" fill="none" xmlns="http://www.w3.org/2000/svg">
<g filter="url(#filter0_d_401_89)">
<path d="M36.1706 23.0204C36.9064 25.8751 37.0675 26.3814 37.5475 27.4185C38.8368 30.2063 41.0125 32.481 43.7313 33.8731C45.6793 34.8751 47.5432 35.3181 51.0187 35.5958C54.799 35.9017 59.5814 36.0001 70.621 36.0036C77.4074 36.0071 85.5707 36.0528 88.2789 36.1091C89.9361 36.1407 92.3746 36.2286 92.746 36.2673C92.8441 36.2778 93.1594 36.2989 93.4467 36.32C95.209 36.4396 96.789 36.7173 97.7595 37.0759C98.4602 37.336 99.3011 37.779 99.9808 38.2466C101.028 38.9673 102.202 40.1872 103.078 41.4669C103.894 42.6587 104.623 44.1212 105.047 45.4185C105.474 46.7263 105.692 48.1079 105.643 49.2083C105.534 51.6622 104.396 54.6926 102.248 57.1465C101.835 57.6211 100.731 58.7039 100.304 59.0625C97.9395 60.5566 96.6077 60.8379 95.0136 61.1895C94.0886 61.3125 93.472 61.3301 92.999 61.3301C92.3894 61.0312 92.1609 60.286 92.0242 57.9235C91.9962 57.4806 91.9787 54.4888 91.9682 49.0888L91.9506 40.9255H85.1047H78.2588V58.2118V75.4946L78.9875 75.47C81.4996 75.3892 87.9461 75.1571 89.8906 75.0798C91.0783 75.0306 91.4672 75.0095 92.9036 74.9181C100.657 74.1095 103.53 72.756 108.225 69.7853C109.461 68.7271 111.336 67.138 112.772 65.447C114.135 63.8438 115.379 61.9524 116.328 60.0505C118.802 55.0935 119.611 49.6688 118.686 44.2653C117.933 39.8567 115.999 35.6767 113.102 32.1856C110.954 29.5981 108.386 27.4606 105.341 25.7204C104.343 25.1509 102.188 24.1278 101.19 23.7517C99.1189 22.9677 96.8416 22.6478 92.1153 22.4685C88.1773 22.3173 87.8165 22.3173 61.3331 22.3032L35.9814 22.2892L36.1706 23.0204Z" fill="#FDF9EA"/>
<path d="M116.275 93.2203C115.539 90.3656 115.378 89.8594 114.898 88.8223C113.609 86.0344 111.433 83.7598 108.714 82.3676C106.767 81.3656 104.903 80.9227 101.427 80.6449C97.6468 80.3391 92.8644 80.2406 81.8247 80.2371C75.0384 80.2336 66.8751 80.1879 64.1668 80.1316C62.5097 80.1 60.0712 80.0121 59.6998 79.9734C59.6017 79.9629 59.2864 79.9418 58.9991 79.9207C57.2368 79.8012 55.6567 79.5234 54.6862 79.1648C53.9855 78.9047 53.1447 78.4617 52.465 77.9941C51.4174 77.2734 50.2437 76.0535 49.3678 74.7738C48.5515 73.582 47.8228 72.1195 47.3988 70.8223C46.9714 69.5145 46.7542 68.1328 46.8032 67.0324C46.9118 64.5785 48.0501 61.5481 50.1978 59.0942C50.6112 58.6196 51.7144 57.5368 52.1418 57.1782C54.5063 55.6841 55.8381 55.4028 57.4322 55.0513C58.3571 54.9282 58.9738 54.9106 59.4467 54.9106C60.0564 55.2095 60.2849 55.9547 60.4215 58.3172C60.4496 58.7602 60.4671 61.752 60.4776 67.152L60.4951 75.3152H67.3411H74.187V58.0289V40.7461L73.4583 40.7707C70.9462 40.8516 64.4997 41.0836 62.5552 41.1609C61.3675 41.2102 60.9786 41.2312 59.5421 41.3227C51.7117 41.8219 47.8403 43.084 43.9338 46.4133C42.6971 47.4715 40.8858 48.9691 39.4494 50.6602C38.0865 52.2633 36.8252 54.1371 35.8757 56.0391C33.4022 60.9961 32.8346 66.5719 33.7595 71.9754C34.5128 76.384 36.4467 80.5641 39.3442 84.0551C41.4919 86.6426 44.06 88.7801 47.1045 90.5203C48.1031 91.0898 50.2577 92.1129 51.2562 92.4891C53.3268 93.273 55.6042 93.593 60.3304 93.7723C64.2684 93.9234 64.6293 93.9234 91.1127 93.9375L116.464 93.9516L116.275 93.2203Z" fill="#FDF9EA"/>
<g filter="url(#filter1_b_401_89)">
<path d="M95.0639 44.2287C94.3395 44.3874 93.7412 44.9767 93.573 45.6858C93.5019 45.9837 93.5278 46.4758 93.628 46.764C93.7832 47.2141 94.1681 47.648 94.6047 47.8681C95.0218 48.0754 95.6622 48.1207 96.0987 47.9685C96.6905 47.758 97.2015 47.1882 97.347 46.573C97.4052 46.3204 97.3988 45.8542 97.3309 45.6178C97.195 45.158 96.8878 44.7403 96.4965 44.491C96.0987 44.2352 95.5166 44.1284 95.0639 44.2287Z" fill="#FDF9EA"/>
</g>
<g filter="url(#filter2_b_401_89)">
<path d="M95.0623 52.6665C94.6841 52.7506 94.3931 52.9124 94.1119 53.194C93.6787 53.6245 93.5042 54.0712 93.5365 54.67C93.5591 55.0746 93.6399 55.3238 93.863 55.6539C94.4287 56.4987 95.5569 56.7447 96.4556 56.2236C96.7142 56.0747 97.0504 55.709 97.1862 55.4306C97.3381 55.1134 97.3866 54.8965 97.3866 54.5405C97.3834 53.7184 96.8565 52.9934 96.0741 52.7312C95.7606 52.6244 95.363 52.5985 95.0623 52.6665Z" fill="#FDF9EA"/>
</g>
<g filter="url(#filter3_b_401_89)">
<path d="M56.6814 59.2473C56.0454 59.383 55.5094 59.8516 55.2705 60.4817C55.1607 60.7693 55.1349 61.2475 55.2092 61.5641C55.3803 62.2879 55.9098 62.8243 56.6426 63.0117C57.6403 63.267 58.654 62.666 58.9607 61.6352C59.0511 61.338 59.0382 60.863 58.9317 60.5431C58.6217 59.5931 57.6564 59.0373 56.6814 59.2473Z" fill="#FDF9EA"/>
</g>
<g filter="url(#filter4_b_401_89)">
<path d="M56.5969 67.9834C55.7544 68.2028 55.167 68.9645 55.167 69.8295C55.167 70.1684 55.2154 70.3718 55.3671 70.6945C55.6221 71.2271 56.1288 71.6208 56.7227 71.7402C57.0294 71.8048 57.1843 71.8048 57.4748 71.7435C58.3689 71.5563 59.0176 70.772 59.0209 69.8715C59.0241 69.3131 58.8498 68.8903 58.4625 68.4965C58.0719 68.106 57.62 67.9156 57.0778 67.922C56.9422 67.922 56.726 67.9511 56.5969 67.9834Z" fill="#FDF9EA"/>
</g>
<path d="M54.1575 96.7035C54.0987 96.7626 54.0947 97.1447 54.0947 101.309C54.0947 105.209 54.1026 105.859 54.1497 105.899C54.1929 105.934 54.6287 105.942 55.889 105.934C57.7382 105.918 57.7029 105.922 58.1151 105.658C58.3703 105.493 58.5863 105.158 58.6648 104.8C58.7551 104.406 58.759 98.2163 58.6687 97.8342C58.5352 97.2669 58.2211 96.9084 57.7068 96.739C57.5183 96.6759 57.2946 96.668 55.8576 96.6523C54.3813 96.6405 54.2164 96.6444 54.1575 96.7035ZM57.0668 98.3109L57.1768 98.4173L57.1885 101.246C57.1964 103.322 57.1846 104.098 57.1532 104.181C57.0708 104.374 56.9491 104.406 56.2738 104.406H55.6652V101.289V98.1769L56.313 98.1888L56.9608 98.2006L57.0668 98.3109Z" fill="#FDF9EA"/>
<path d="M60.6043 96.7312C60.5494 96.81 60.5415 97.3103 60.5415 101.321C60.5415 105.354 60.5494 105.823 60.6043 105.878C60.6554 105.93 60.7771 105.941 61.3424 105.941C61.8135 105.941 62.0333 105.926 62.0647 105.894C62.1001 105.859 62.1118 104.779 62.1118 101.285C62.1118 96.8179 62.1118 96.7233 62.0372 96.6839C61.9941 96.6603 61.6839 96.6445 61.311 96.6445C60.6868 96.6445 60.6632 96.6485 60.6043 96.7312Z" fill="#FDF9EA"/>
<path d="M64.1429 96.7076C64.0919 96.7588 64.0801 96.8809 64.0801 97.4285C64.0801 97.8854 64.0958 98.1021 64.1272 98.1336C64.1586 98.1651 64.3863 98.1809 64.8927 98.1809H65.6111V102.014C65.6111 104.941 65.6229 105.859 65.6583 105.894C65.6897 105.926 65.9095 105.941 66.3963 105.941C66.8831 105.941 67.103 105.926 67.1344 105.894C67.1697 105.859 67.1815 104.941 67.1815 102.014V98.1809H67.9078C68.583 98.1809 68.634 98.1769 68.6733 98.106C68.6968 98.0627 68.7125 97.7594 68.7125 97.3969C68.7125 96.877 68.7008 96.7588 68.6497 96.7076C68.5948 96.6524 68.3357 96.6445 66.3963 96.6445C64.457 96.6445 64.1979 96.6524 64.1429 96.7076Z" fill="#FDF9EA"/>
<path d="M70.173 96.7311C70.122 96.802 70.1102 96.9399 70.1102 97.4126C70.1102 98.2359 70.0513 98.1808 70.9346 98.1808H71.6412L71.6491 102.022C71.6609 105.39 71.6687 105.87 71.7198 105.902C71.81 105.961 73.1056 105.953 73.1644 105.894C73.1998 105.858 73.2115 104.941 73.2115 102.014V98.1808H73.93C74.4364 98.1808 74.6641 98.165 74.6955 98.1335C74.7622 98.0665 74.7622 96.7587 74.6955 96.6917C74.6602 96.6563 74.1066 96.6445 72.4421 96.6445H70.2319L70.173 96.7311Z" fill="#FDF9EA"/>
<path d="M77.7353 96.6715C77.005 96.77 76.5496 97.1758 76.42 97.8456C76.3886 98.015 76.3807 99.0275 76.3886 101.431L76.4004 104.78L76.4907 105C76.6634 105.438 76.8872 105.658 77.3269 105.832C77.5193 105.91 77.6332 105.918 78.5127 105.934C79.1487 105.946 79.5728 105.934 79.7455 105.902C80.3541 105.796 80.731 105.477 80.9195 104.914C80.9862 104.717 80.9941 104.464 81.0059 101.51C81.0137 99.4294 81.0019 98.212 80.9784 98.0071C80.8763 97.2507 80.4326 96.7897 79.6984 96.6834C79.4393 96.6479 77.9866 96.6361 77.7353 96.6715ZM79.2704 98.2002C79.5335 98.3105 79.5257 98.212 79.5139 101.372L79.5021 104.208L79.3922 104.315C79.2901 104.421 79.2704 104.425 78.8032 104.437C78.2182 104.457 78.0612 104.417 77.9748 104.232C77.9198 104.114 77.912 103.791 77.912 101.293C77.912 98.1962 77.9041 98.3105 78.1593 98.2002C78.336 98.1214 79.0859 98.1214 79.2704 98.2002Z" fill="#FDF9EA"/>
<path d="M86.7875 96.6831C86.7207 96.7225 86.7168 96.9865 86.7168 101.285C86.7168 104.779 86.7286 105.859 86.7639 105.894C86.8267 105.957 89.7753 105.961 90.1168 105.898C90.7961 105.772 91.2161 105.311 91.3143 104.578C91.3418 104.373 91.3496 103.176 91.3418 101.096C91.33 97.9241 91.33 97.9241 91.2397 97.6602C91.1337 97.3371 90.957 97.1007 90.7058 96.9313C90.3288 96.6752 90.2857 96.6713 88.4836 96.6555C87.3803 96.6477 86.8307 96.6555 86.7875 96.6831ZM89.5829 98.2314C89.6378 98.259 89.7124 98.3417 89.7517 98.4166C89.8145 98.5466 89.8184 98.7475 89.8106 101.36L89.7988 104.168L89.6889 104.275L89.5829 104.385L88.9351 104.397L88.2873 104.409V101.296V98.1802H88.888C89.2845 98.1802 89.5161 98.196 89.5829 98.2314Z" fill="#FDF9EA"/>
<path d="M94.4315 96.6823C94.1527 96.7257 93.756 96.9188 93.5753 97.0961C93.3907 97.2814 93.2611 97.5691 93.2022 97.904C93.1708 98.0814 93.1629 99.177 93.1708 101.451C93.1826 104.434 93.1904 104.761 93.2493 104.939C93.3515 105.234 93.5321 105.482 93.7638 105.644C94.1684 105.92 94.1919 105.924 95.4801 105.924C96.5601 105.924 96.6505 105.916 96.8351 105.841C97.1767 105.699 97.3613 105.557 97.5224 105.313C97.7855 104.899 97.7776 105.029 97.7776 101.274C97.7776 98.0814 97.7737 97.8725 97.7069 97.6676C97.5459 97.1986 97.2357 96.8873 96.7761 96.7415C96.5994 96.6823 96.3834 96.6705 95.5979 96.6587C95.0677 96.6548 94.5454 96.6626 94.4315 96.6823ZM96.0496 98.1957C96.3166 98.3099 96.3049 98.1838 96.3049 101.293C96.3049 104.399 96.3127 104.316 96.0614 104.403C95.8886 104.462 95.052 104.458 94.9303 104.395C94.8753 104.367 94.8007 104.284 94.7653 104.21C94.6986 104.083 94.6946 103.859 94.6946 101.301C94.6946 98.2351 94.6907 98.3099 94.9381 98.1996C95.1149 98.1247 95.8689 98.1208 96.0496 98.1957Z" fill="#FDF9EA"/>
<path d="M99.6684 96.7351C99.6134 96.8178 99.6095 97.3378 99.6173 101.348C99.6291 105.311 99.637 105.87 99.688 105.902C99.7822 105.961 104.018 105.953 104.077 105.894C104.108 105.862 104.124 105.646 104.124 105.173C104.124 104.7 104.108 104.484 104.077 104.452C104.042 104.417 103.661 104.405 102.605 104.405H101.18V100.572C101.18 97.645 101.168 96.7272 101.133 96.6917C101.101 96.6602 100.881 96.6445 100.406 96.6445C99.739 96.6445 99.7273 96.6445 99.6684 96.7351Z" fill="#FDF9EA"/>
<path d="M106.057 96.6879C105.99 96.7233 105.986 96.9873 105.986 101.285C105.986 104.779 105.998 105.859 106.033 105.894C106.069 105.93 106.611 105.941 108.228 105.941C110.128 105.941 110.383 105.934 110.438 105.878C110.489 105.827 110.501 105.705 110.501 105.173C110.501 104.641 110.489 104.519 110.438 104.468C110.387 104.413 110.199 104.405 108.966 104.405H107.557V100.588C107.557 97.1685 107.549 96.7627 107.494 96.7076C107.443 96.6563 107.321 96.6445 106.779 96.6445C106.406 96.6445 106.092 96.6642 106.057 96.6879Z" fill="#FDF9EA"/>
<path d="M113.612 96.6824C113.106 96.7612 112.658 97.0843 112.485 97.4862C112.348 97.8132 112.328 98.0811 112.328 99.6454C112.328 101.292 112.332 101.344 112.532 101.438C112.579 101.462 113.247 101.69 114.009 101.942L115.391 102.403V103.231C115.391 104.405 115.375 104.425 114.555 104.397C114.158 104.385 114.13 104.381 114.028 104.275C113.918 104.169 113.918 104.161 113.907 103.566C113.899 103.235 113.875 102.943 113.852 102.916C113.789 102.841 112.434 102.849 112.367 102.928C112.332 102.971 112.324 103.211 112.336 103.861C112.352 104.634 112.363 104.768 112.434 104.965C112.595 105.402 112.874 105.682 113.31 105.847C113.455 105.902 113.671 105.918 114.452 105.934C115.568 105.954 115.85 105.922 116.212 105.737C116.506 105.587 116.71 105.351 116.852 105.008C116.942 104.779 116.942 104.768 116.942 103.077V101.375L116.852 101.284C116.793 101.221 116.337 101.052 115.34 100.721L113.918 100.248L113.907 99.3893C113.895 98.4397 113.914 98.353 114.138 98.2348C114.236 98.1875 114.354 98.1757 114.708 98.1875C115.136 98.1993 115.159 98.2033 115.261 98.3097C115.371 98.416 115.371 98.4239 115.391 99.0346C115.411 99.6493 115.411 99.6572 115.509 99.7084C115.658 99.7833 116.871 99.7596 116.926 99.6769C116.95 99.6414 116.958 99.2789 116.95 98.7313C116.938 98.0102 116.922 97.8093 116.867 97.6477C116.706 97.1946 116.392 96.8833 115.941 96.7415C115.764 96.6863 115.548 96.6706 114.782 96.6587C114.264 96.6548 113.738 96.6627 113.612 96.6824Z" fill="#FDF9EA"/>
</g>
<defs>
<filter id="filter0_d_401_89" x="-1" y="0" width="155" height="128" filterUnits="userSpaceOnUse" color-interpolation-filters="sRGB">
<feFlood flood-opacity="0" result="BackgroundImageFix"/>
<feColorMatrix in="SourceAlpha" type="matrix" values="0 0 0 0 0 0 0 0 0 0 0 0 0 0 0 0 0 0 127 0" result="hardAlpha"/>
<feOffset dy="1"/>
<feGaussianBlur stdDeviation="0.5"/>
<feComposite in2="hardAlpha" operator="out"/>
<feColorMatrix type="matrix" values="0 0 0 0 0 0 0 0 0 0 0 0 0 0 0 0 0 0 0.56 0"/>
<feBlend mode="normal" in2="BackgroundImageFix" result="effect1_dropShadow_401_89"/>
<feBlend mode="normal" in="SourceGraphic" in2="effect1_dropShadow_401_89" result="shape"/>
</filter>
<filter id="filter1_b_401_89" x="81.5327" y="32.1914" width="27.854" height="27.8672" filterUnits="userSpaceOnUse" color-interpolation-filters="sRGB">
<feFlood flood-opacity="0" result="BackgroundImageFix"/>
<feGaussianBlur in="BackgroundImageFix" stdDeviation="6"/>
<feComposite in2="SourceAlpha" operator="in" result="effect1_backgroundBlur_401_89"/>
<feBlend mode="normal" in="SourceGraphic" in2="effect1_backgroundBlur_401_89" result="shape"/>
</filter>
<filter id="filter2_b_401_89" x="81.5327" y="40.6289" width="27.854" height="27.8672" filterUnits="userSpaceOnUse" color-interpolation-filters="sRGB">
<feFlood flood-opacity="0" result="BackgroundImageFix"/>
<feGaussianBlur in="BackgroundImageFix" stdDeviation="6"/>
<feComposite in2="SourceAlpha" operator="in" result="effect1_backgroundBlur_401_89"/>
<feBlend mode="normal" in="SourceGraphic" in2="effect1_backgroundBlur_401_89" result="shape"/>
</filter>
<filter id="filter3_b_401_89" x="43.167" y="47.2031" width="27.854" height="27.8672" filterUnits="userSpaceOnUse" color-interpolation-filters="sRGB">
<feFlood flood-opacity="0" result="BackgroundImageFix"/>
<feGaussianBlur in="BackgroundImageFix" stdDeviation="6"/>
<feComposite in2="SourceAlpha" operator="in" result="effect1_backgroundBlur_401_89"/>
<feBlend mode="normal" in="SourceGraphic" in2="effect1_backgroundBlur_401_89" result="shape"/>
</filter>
<filter id="filter4_b_401_89" x="43.167" y="55.9219" width="27.854" height="27.8672" filterUnits="userSpaceOnUse" color-interpolation-filters="sRGB">
<feFlood flood-opacity="0" result="BackgroundImageFix"/>
<feGaussianBlur in="BackgroundImageFix" stdDeviation="6"/>
<feComposite in2="SourceAlpha" operator="in" result="effect1_backgroundBlur_401_89"/>
<feBlend mode="normal" in="SourceGraphic" in2="effect1_backgroundBlur_401_89" result="shape"/>
</filter>
</defs>
</svg>
