
<svg width="30" height="30" viewBox="0 0 30 30" fill="none" xmlns="http://www.w3.org/2000/svg">
<rect width="30" height="30" rx="15" fill="white" fill-opacity="0.71"/>
<path d="M14.9978 10.767C12.6553 10.767 10.7648 12.6575 10.7648 15C10.7648 17.3425 12.6553 19.233 14.9978 19.233C17.3403 19.233 19.2308 17.3425 19.2308 15C19.2308 12.6575 17.3403 10.767 14.9978 10.767ZM14.9978 17.7512C13.4829 17.7512 12.2467 16.5149 12.2467 15C12.2467 13.4851 13.4829 12.2488 14.9978 12.2488C16.5127 12.2488 17.7489 13.4851 17.7489 15C17.7489 16.5149 16.5127 17.7512 14.9978 17.7512ZM19.4041 9.60704C18.8572 9.60704 18.4155 10.0487 18.4155 10.5956C18.4155 11.1426 18.8572 11.5843 19.4041 11.5843C19.951 11.5843 20.3927 11.1446 20.3927 10.5956C20.3929 10.4658 20.3674 10.3372 20.3178 10.2171C20.2682 10.0971 20.1953 9.98807 20.1035 9.89624C20.0117 9.8044 19.9026 9.73159 19.7826 9.68196C19.6626 9.63234 19.534 9.60688 19.4041 9.60704ZM23.2491 15C23.2491 13.8607 23.2594 12.7318 23.1954 11.5946C23.1314 10.2737 22.8301 9.10139 21.8642 8.13549C20.8963 7.16752 19.7261 6.86826 18.4052 6.80428C17.266 6.74029 16.137 6.75061 14.9998 6.75061C13.8606 6.75061 12.7317 6.74029 11.5945 6.80428C10.2736 6.86826 9.10135 7.16958 8.13546 8.13549C7.16751 9.10345 6.86825 10.2737 6.80427 11.5946C6.74029 12.7338 6.75061 13.8628 6.75061 15C6.75061 16.1372 6.74029 17.2682 6.80427 18.4054C6.86825 19.7263 7.16958 20.8986 8.13546 21.8645C9.10341 22.8325 10.2736 23.1317 11.5945 23.1957C12.7337 23.2597 13.8627 23.2494 14.9998 23.2494C16.1391 23.2494 17.268 23.2597 18.4052 23.1957C19.7261 23.1317 20.8983 22.8304 21.8642 21.8645C22.8322 20.8965 23.1314 19.7263 23.1954 18.4054C23.2615 17.2682 23.2491 16.1393 23.2491 15ZM21.4329 19.8667C21.2822 20.2423 21.1006 20.523 20.8096 20.8119C20.5186 21.1029 20.24 21.2846 19.8644 21.4352C18.7788 21.8666 16.201 21.7696 14.9978 21.7696C13.7946 21.7696 11.2147 21.8666 10.1291 21.4373C9.75352 21.2866 9.47284 21.105 9.1839 20.814C8.8929 20.523 8.71128 20.2444 8.56062 19.8687C8.13133 18.7811 8.22833 16.2032 8.22833 15C8.22833 13.7967 8.13133 11.2169 8.56062 10.1313C8.71128 9.75564 8.8929 9.47495 9.1839 9.18601C9.4749 8.89706 9.75352 8.71338 10.1291 8.56271C11.2147 8.13342 13.7946 8.23043 14.9978 8.23043C16.201 8.23043 18.7808 8.13342 19.8664 8.56271C20.242 8.71338 20.5227 8.895 20.8117 9.18601C21.1027 9.47702 21.2843 9.75564 21.435 10.1313C21.8642 11.2169 21.7672 13.7967 21.7672 15C21.7672 16.2032 21.8642 18.7811 21.4329 19.8667Z" fill="#143A56"/>
</svg>
