
<svg width="30" height="30" viewBox="0 0 30 30" fill="none" xmlns="http://www.w3.org/2000/svg">
<rect width="30" height="30" rx="15" fill="white" fill-opacity="0.71"/>
<path d="M24.9622 9.78809C24.8432 9.34502 24.61 8.94097 24.2858 8.61637C23.9616 8.29177 23.5578 8.05802 23.1149 7.93849C21.4846 7.5 14.9492 7.5 14.9492 7.5C14.9492 7.5 8.41377 7.5 6.78342 7.93616C6.34031 8.0553 5.93635 8.28893 5.6121 8.61358C5.28786 8.93824 5.05474 9.3425 4.93616 9.78576C4.5 11.4184 4.5 14.8238 4.5 14.8238C4.5 14.8238 4.5 18.2291 4.93616 19.8594C5.1764 20.7597 5.88545 21.4688 6.78342 21.709C8.41377 22.1475 14.9492 22.1475 14.9492 22.1475C14.9492 22.1475 21.4846 22.1475 23.1149 21.709C24.0152 21.4688 24.7219 20.7597 24.9622 19.8594C25.3983 18.2291 25.3983 14.8238 25.3983 14.8238C25.3983 14.8238 25.3983 11.4184 24.9622 9.78809ZM12.8733 17.9492V11.6983L18.2845 14.8004L12.8733 17.9492Z" fill="#143A56"/>
</svg>
