<svg width="46" height="46" viewBox="0 0 46 46" fill="none" xmlns="http://www.w3.org/2000/svg">
<circle cx="23" cy="23" r="23" fill="#D9D9D9" fill-opacity="0.2"/>
<path d="M18.8015 21.5545C18.9069 21.5642 19.0133 21.5536 19.1147 21.5232C19.1633 21.5073 19.2124 21.4954 19.2608 21.4748L19.3339 21.4466L19.3704 21.432C19.3922 21.4235 19.4145 21.4167 19.4373 21.4117C19.54 21.3884 19.6475 21.3984 19.7442 21.4403C19.7929 21.4612 19.8379 21.4899 19.8774 21.5252C19.9012 21.5476 19.9055 21.5502 19.9162 21.5591L19.9449 21.5831C20.0229 21.6475 20.109 21.7014 20.201 21.7434C20.3958 21.8303 20.604 21.883 20.8167 21.8992C21.0296 21.9191 21.2443 21.9063 21.4533 21.8612L21.4647 21.8585C21.5145 21.8466 21.5671 21.8539 21.6118 21.8791C21.6565 21.9042 21.69 21.9454 21.7056 21.9942C21.7212 22.0431 21.7178 22.096 21.6959 22.1425C21.6741 22.1889 21.6355 22.2253 21.588 22.2445C21.3321 22.3444 21.057 22.3853 20.7832 22.3643C20.5087 22.3513 20.2402 22.2795 19.9959 22.1539C19.8686 22.09 19.7521 22.0065 19.6506 21.9067L19.5847 21.8401C19.5799 21.8336 19.574 21.8281 19.5673 21.8236C19.5526 21.8139 19.5352 21.8094 19.5177 21.8108C19.3296 21.8675 18.9236 21.8988 18.7432 21.6434C18.7369 21.6345 18.7334 21.6239 18.733 21.613C18.7325 21.6021 18.7353 21.5913 18.7408 21.5819C18.7463 21.5725 18.7545 21.5649 18.7642 21.56C18.774 21.5551 18.7849 21.5531 18.7958 21.5543L18.8015 21.5545Z" fill="white"/>
<path d="M18.7887 20.1172C19.1797 19.8467 19.6385 19.6906 20.1135 19.6665C20.3469 19.6476 20.5814 19.6476 20.8148 19.6665C20.9321 19.6748 21.0491 19.6901 21.1669 19.7102C21.2932 19.7297 21.4171 19.7627 21.5363 19.8087C21.561 19.8188 21.5835 19.8337 21.6025 19.8526C21.6214 19.8714 21.6364 19.8937 21.6467 19.9184C21.657 19.943 21.6624 19.9694 21.6625 19.9961C21.6626 20.0228 21.6574 20.0493 21.6473 20.074C21.6371 20.0987 21.6222 20.1211 21.6034 20.1401C21.5846 20.159 21.5622 20.1741 21.5376 20.1844C21.5129 20.1947 21.4865 20.2 21.4598 20.2001C21.4331 20.2002 21.4067 20.195 21.382 20.1849L21.3706 20.1798L21.3627 20.176C21.1741 20.0972 20.9761 20.0434 20.7736 20.0157C20.5601 19.9811 20.3442 19.9637 20.1279 19.9635C19.6977 19.9501 19.2722 20.0564 18.8988 20.2704L18.8959 20.2722C18.8754 20.2853 18.8506 20.2899 18.8267 20.285C18.8029 20.2801 18.7819 20.2662 18.7681 20.2462C18.7543 20.2262 18.7488 20.2016 18.7527 20.1775C18.7567 20.1535 18.7698 20.132 18.7893 20.1175L18.7887 20.1172Z" fill="white"/>
<path d="M20.4454 22.6385C20.7383 22.6385 20.9758 22.4814 20.9758 22.2875C20.9758 22.0937 20.7383 21.9365 20.4454 21.9365C20.1525 21.9365 19.915 22.0937 19.915 22.2875C19.915 22.4814 20.1525 22.6385 20.4454 22.6385Z" fill="white"/>
<path d="M17.731 27.6438C17.6771 27.6438 17.6254 27.6224 17.5873 27.5843C17.5492 27.5462 17.5278 27.4945 17.5278 27.4407V25.3066C17.5278 25.2528 17.5492 25.2011 17.5873 25.163C17.6254 25.1249 17.6771 25.1035 17.731 25.1035C17.7848 25.1035 17.8365 25.1249 17.8746 25.163C17.9127 25.2011 17.9341 25.2528 17.9341 25.3066V27.4407C17.9341 27.4945 17.9127 27.5462 17.8746 27.5843C17.8365 27.6224 17.7848 27.6438 17.731 27.6438Z" fill="white"/>
<path d="M28.0835 25.3882C27.9694 25.3882 27.8579 25.3544 27.763 25.291C27.6682 25.2276 27.5943 25.1375 27.5507 25.032C27.507 24.9266 27.4957 24.8106 27.518 24.6987C27.5403 24.5868 27.5953 24.4841 27.676 24.4035C27.7568 24.3229 27.8596 24.268 27.9715 24.2458C28.0834 24.2237 28.1994 24.2352 28.3048 24.279C28.4101 24.3228 28.5001 24.3968 28.5634 24.4917C28.6267 24.5867 28.6603 24.6983 28.6602 24.8123C28.6598 24.9651 28.5989 25.1115 28.4908 25.2194C28.3827 25.3273 28.2363 25.388 28.0835 25.3882ZM28.0835 24.6411C28.0498 24.6411 28.0169 24.6511 27.9888 24.6698C27.9608 24.6885 27.939 24.7151 27.9261 24.7463C27.9132 24.7774 27.9098 24.8117 27.9163 24.8447C27.9229 24.8778 27.9391 24.9081 27.9629 24.932C27.9867 24.9558 28.0171 24.9721 28.0501 24.9787C28.0832 24.9853 28.1174 24.9819 28.1486 24.969C28.1797 24.9562 28.2064 24.9344 28.2251 24.9064C28.2439 24.8784 28.2539 24.8454 28.2539 24.8117C28.2539 24.7665 28.236 24.7232 28.204 24.6912C28.1721 24.6592 28.1287 24.6412 28.0835 24.6411Z" fill="white"/>
<path d="M28.0835 27.5227C28.0296 27.5227 27.978 27.5013 27.9399 27.4632C27.9018 27.4251 27.8804 27.3734 27.8804 27.3195V25.1853C27.8804 25.1314 27.9018 25.0798 27.9399 25.0417C27.978 25.0036 28.0296 24.9822 28.0835 24.9822C28.1374 24.9822 28.189 25.0036 28.2271 25.0417C28.2652 25.0798 28.2866 25.1314 28.2866 25.1853V27.3195C28.2866 27.3734 28.2652 27.4251 28.2271 27.4632C28.189 27.5013 28.1374 27.5227 28.0835 27.5227Z" fill="white"/>
<path d="M24.3791 24.7141C24.3364 24.6815 24.2824 24.6672 24.2291 24.6743C24.1758 24.6813 24.1275 24.7093 24.0947 24.7519C24.066 24.7805 24.03 24.8008 23.9907 24.8105C23.9513 24.8203 23.9101 24.8191 23.8713 24.8072L23.4957 24.6426C23.489 24.6398 23.4825 24.6374 23.4754 24.6351C23.397 24.6101 23.3142 24.6013 23.2323 24.6093C23.1503 24.6173 23.0709 24.6418 22.9987 24.6814C22.9264 24.6418 22.8467 24.6173 22.7647 24.6093C22.6826 24.6014 22.5997 24.6101 22.5211 24.6351C22.5146 24.6374 22.5079 24.6398 22.5008 24.6426L22.1248 24.8072C22.0861 24.8189 22.0449 24.8199 22.0055 24.8102C21.9662 24.8005 21.9303 24.7803 21.9014 24.7519C21.8852 24.7307 21.8649 24.7129 21.8418 24.6995C21.8187 24.6861 21.7932 24.6774 21.7668 24.6739C21.7403 24.6704 21.7134 24.6721 21.6876 24.679C21.6618 24.6858 21.6376 24.6977 21.6164 24.7139C21.5952 24.7302 21.5774 24.7504 21.564 24.7735C21.5506 24.7966 21.5419 24.8221 21.5384 24.8486C21.5349 24.875 21.5366 24.9019 21.5435 24.9277C21.5503 24.9535 21.5622 24.9777 21.5784 24.9989C21.637 25.0705 21.711 25.1278 21.7949 25.1665C21.8788 25.2052 21.9705 25.2243 22.0629 25.2224C22.1403 25.2233 22.217 25.2084 22.2884 25.1785L22.654 25.019C22.6898 25.0095 22.7274 25.0097 22.7631 25.0195C22.7988 25.0294 22.8313 25.0486 22.8571 25.0751C22.8675 25.0835 22.8787 25.0907 22.8906 25.0968C22.9011 25.1052 22.9123 25.1124 22.9241 25.1186C22.9337 25.1211 22.9434 25.123 22.9532 25.1243C22.9686 25.1289 22.9845 25.1319 23.0005 25.133C23.0114 25.1317 23.0221 25.1296 23.0326 25.1267C23.0476 25.1253 23.0624 25.1223 23.0767 25.1178C23.0886 25.1114 23.0999 25.1038 23.1104 25.0952C23.1219 25.0891 23.1328 25.0819 23.1429 25.0737C23.1683 25.0477 23.2002 25.029 23.2353 25.0194C23.2703 25.0098 23.3073 25.0097 23.3424 25.019L23.7066 25.1785C23.7779 25.2084 23.8547 25.2233 23.932 25.2224C24.0245 25.2243 24.1161 25.2052 24.2 25.1665C24.284 25.1278 24.358 25.0705 24.4165 24.9989C24.4493 24.9562 24.4638 24.9022 24.4568 24.8488C24.4498 24.7954 24.4218 24.747 24.3791 24.7141Z" fill="white"/>
<path d="M23.2335 25.8647H22.7603C22.7064 25.8647 22.6547 25.8433 22.6166 25.8053C22.5785 25.7672 22.5571 25.7155 22.5571 25.6616C22.5571 25.6077 22.5785 25.5561 22.6166 25.518C22.6547 25.4799 22.7064 25.4585 22.7603 25.4585H23.2335C23.2874 25.4585 23.3391 25.4799 23.3772 25.518C23.4153 25.5561 23.4367 25.6077 23.4367 25.6616C23.4367 25.7155 23.4153 25.7672 23.3772 25.8053C23.3391 25.8433 23.2874 25.8647 23.2335 25.8647Z" fill="white"/>
<path d="M32.2132 28.3121C30.4786 25.7542 29.7802 24.3329 29.9464 22.1527C30.0682 20.5513 30.0106 18.4425 28.5578 16.2174C29.3256 15.8902 29.8361 15.618 30.0701 15.409C30.5324 14.9956 30.5521 14.654 30.4869 14.4401C30.3947 14.1354 30.0772 13.9246 29.6161 13.86C28.8304 13.7676 28.0365 13.7702 27.2515 13.8677C27.1978 13.874 27.1434 13.8653 27.0944 13.8426C27.0453 13.8199 27.0035 13.784 26.9736 13.7389C26.5083 13.0428 24.7045 10.8277 21.0393 11.5502C16.6955 12.4054 16.2086 15.6664 16.1631 16.6468C16.1608 16.7043 16.1422 16.7598 16.1093 16.807C16.0765 16.8542 16.0309 16.891 15.9779 16.9131C14.1331 17.6978 13.311 18.475 13.5369 19.22C13.6169 19.4859 13.8465 19.8115 14.4863 19.8538C14.572 19.8593 14.6648 19.862 14.7646 19.8619C15.0923 19.8583 15.4195 19.837 15.7449 19.7981C15.6045 20.838 15.5793 21.8902 15.6699 22.9356C15.6927 23.2594 15.7309 23.614 15.7867 24.0176C15.9289 25.1235 15.2038 26.2435 14.4364 27.4301C13.5899 28.7381 12.7145 30.0911 13.0718 31.4782C13.3261 32.4666 14.1786 33.3488 15.6718 34.1725C15.6376 34.7422 16.1257 35.0963 16.6212 35.3687C16.9334 35.5331 17.2581 35.6728 17.5921 35.7867C18.4501 36.0877 20.2939 36.5937 22.9973 36.5937H22.9987C25.7002 36.5937 27.5434 36.0877 28.4018 35.7859C28.7358 35.6721 29.0604 35.5324 29.3727 35.3681C29.8806 35.0888 30.3748 34.7256 30.3191 34.1426C30.8048 33.957 32.4481 33.2306 32.9618 31.7289C33.3109 30.7082 33.0591 29.5587 32.2132 28.3121ZM24.3271 34.6179C23.9217 34.9677 23.5363 35.34 23.1728 35.7331C23.1487 35.275 23.1594 34.8158 23.2046 34.3593C23.2133 34.3061 23.2005 34.2517 23.169 34.208C23.1374 34.1642 23.0899 34.1348 23.0367 34.1262C22.9835 34.1175 22.929 34.1304 22.8853 34.1619C22.8415 34.1934 22.8121 34.2409 22.8035 34.2941C22.7553 34.7503 22.7422 35.2095 22.7643 35.6677C22.4931 35.3662 22.1173 35.0246 21.6692 34.6195C20.6942 33.7378 19.4905 32.6492 18.7836 31.3872C19.0205 31.2375 19.2687 31.09 19.5315 30.9491C19.6973 30.8597 19.8756 30.7789 20.0483 30.7002C20.8496 30.336 21.7509 29.9245 21.9189 28.4391C22.6072 28.6898 23.3614 28.6928 24.0517 28.4476C24.2213 29.9257 25.1262 30.3338 25.9306 30.6948C26.1171 30.7785 26.2932 30.8573 26.4636 30.9491C26.7276 31.0913 26.9751 31.2379 27.2113 31.387C26.5044 32.6476 25.3021 33.7364 24.3271 34.6179ZM24.1579 27.9824C23.789 28.1322 23.3961 28.2136 22.9981 28.2229C22.5907 28.2131 22.1886 28.1283 21.812 27.9727C21.2991 27.7636 20.8095 27.5013 20.3514 27.19C19.8597 26.8927 19.438 26.4928 19.115 26.0176C18.7921 25.5424 18.5754 25.0031 18.48 24.4365C18.3793 23.94 18.3156 23.4368 18.2892 22.9309C18.2655 22.5527 18.2531 22.1424 18.251 21.6782C18.251 21.6195 18.251 21.5629 18.2531 21.5032C18.2571 20.7355 18.4088 19.9757 18.6999 19.2653C19.9364 18.9858 21.3381 18.619 22.7756 18.1993C22.8232 18.4618 22.8543 18.7608 22.8864 19.075C23.0336 20.5196 23.2349 22.4983 25.3525 23.9792C25.9812 24.3911 26.7083 24.628 27.4589 24.6656C27.3409 25.1865 27.1193 25.6783 26.8073 26.1118C26.4954 26.5453 26.0994 26.9117 25.643 27.189C25.1778 27.5059 24.6799 27.7719 24.1579 27.9824ZM17.8584 22.4176C17.6973 22.3471 17.5179 22.3299 17.3463 22.3687C17.3202 22.3739 17.2953 22.3842 17.2731 22.399C17.2509 22.4138 17.2318 22.4328 17.217 22.455C17.2022 22.4771 17.1918 22.502 17.1866 22.5282C17.1814 22.5543 17.1814 22.5813 17.1866 22.6074C17.1918 22.6336 17.202 22.6585 17.2168 22.6807C17.2317 22.7029 17.2507 22.7219 17.2729 22.7368C17.295 22.7516 17.3199 22.7619 17.3461 22.7672C17.3722 22.7724 17.3992 22.7724 17.4253 22.7672C17.5174 22.7402 17.6164 22.7492 17.7021 22.7924C17.7878 22.8355 17.8539 22.9097 17.887 22.9998C17.9132 23.4397 17.9651 23.8777 18.0426 24.3116C17.7973 24.32 17.5553 24.2524 17.3498 24.1182C17.1779 24.0135 17.0284 23.8758 16.9098 23.7131C16.7913 23.5504 16.7061 23.3659 16.6591 23.1702C16.6396 23.0696 16.6274 22.9678 16.6224 22.8655C16.6067 22.5657 16.635 21.8499 17.2257 21.6734C17.4299 21.6309 17.6403 21.628 17.8456 21.6646V21.6782C17.846 21.9413 17.8507 22.1852 17.8584 22.4176ZM13.4652 31.3754C13.1524 30.1601 13.9415 28.9406 14.7774 27.6495C15.5507 26.4551 16.3506 25.2187 16.1895 23.964C16.1347 23.5675 16.0975 23.2216 16.075 22.9049C15.983 21.852 16.0125 20.7919 16.1629 19.7457C16.764 19.6614 17.4534 19.5361 18.2218 19.3712C18.0066 19.9777 17.8834 20.6131 17.8562 21.2562C17.6079 21.2175 17.3545 21.2271 17.1099 21.2846C16.5076 21.4644 16.1733 22.0634 16.2161 22.8872C16.2223 23.009 16.2371 23.1302 16.2604 23.2498C16.3191 23.4998 16.4266 23.7357 16.5768 23.9439C16.727 24.1522 16.9168 24.3287 17.1355 24.4633C17.3897 24.6269 17.6847 24.7161 17.987 24.7207C18.0339 24.72 18.0807 24.717 18.1273 24.7117C18.2523 25.2925 18.4942 25.8419 18.8382 26.3263C19.1822 26.8107 19.6211 27.2201 20.1283 27.5295C20.5693 27.8258 21.0367 28.0809 21.5246 28.2914C21.4123 29.6302 20.7013 29.957 19.8805 30.3306C19.7018 30.4118 19.5171 30.4957 19.3396 30.5912C19.0796 30.7305 18.8334 30.8766 18.5974 31.0248C18.5874 31.0035 18.5771 30.9828 18.5667 30.9615C18.5371 30.9046 18.4909 30.858 18.4342 30.828C18.3776 30.798 18.3131 30.786 18.2494 30.7935C18.1568 30.7989 18.0681 30.8322 17.9949 30.8892C17.9218 30.9461 17.8676 31.024 17.8397 31.1124C17.7845 31.2846 17.7403 31.4601 17.7075 31.6379C16.9966 32.1572 16.3843 32.7995 15.8997 33.5345C15.8532 33.6083 15.8121 33.6854 15.7768 33.7652C14.4429 33.0142 13.6852 32.2314 13.4652 31.376V31.3754ZM16.0896 34.1018C16.1202 33.9765 16.1723 33.8574 16.2436 33.75C16.6161 33.1805 17.0744 32.672 17.6023 32.2426C17.444 33.2491 17.3819 34.2683 17.4166 35.2866C17.2114 35.2076 17.0113 35.1159 16.8174 35.0122C16.2239 34.6856 16.0197 34.4306 16.0896 34.1024V34.1018ZM29.1765 35.0116C28.9832 35.1151 28.7836 35.2066 28.5789 35.2854C28.6126 34.2671 28.5497 33.2478 28.391 32.2414C28.9195 32.671 29.3782 33.1799 29.7508 33.75C29.8139 33.8458 29.8618 33.9507 29.8929 34.0612C29.9906 34.4138 29.7963 34.6711 29.1765 35.0122V35.0116ZM32.5779 31.5948C32.1373 32.8861 30.6815 33.559 30.2104 33.7479C30.1768 33.6744 30.1382 33.6033 30.0949 33.5351C29.6102 32.8002 28.9979 32.1579 28.287 31.6387C28.254 31.4612 28.2105 31.2858 28.1566 31.1134C28.128 31.0245 28.0731 30.9464 27.9992 30.8893C27.9253 30.8323 27.8359 30.7989 27.7427 30.7937C27.6792 30.7865 27.6151 30.7988 27.5588 30.8288C27.5024 30.8589 27.4566 30.9054 27.4272 30.9621C27.4177 30.9834 27.4069 31.0041 27.3965 31.0252C27.1611 30.8774 26.9151 30.7313 26.6545 30.5918C26.4717 30.4933 26.2804 30.4073 26.0957 30.3245C25.2723 29.955 24.5591 29.631 24.4451 28.3024C24.9419 28.0904 25.4175 27.832 25.8656 27.5305C26.9625 26.8092 27.5534 25.965 27.8838 24.6443C28.4932 24.5466 29.2397 24.1438 29.2966 23.7739C29.3076 23.7009 29.2924 23.6263 29.2537 23.5634C29.215 23.5006 29.1553 23.4534 29.0851 23.4304C28.3352 23.1332 28.1593 22.8909 28.1449 22.1349C28.148 21.9842 28.159 21.8338 28.1778 21.6843C28.2655 20.8274 28.429 19.2322 27.3043 17.4108C27.2909 17.3869 27.2728 17.3659 27.2511 17.3491C27.2294 17.3324 27.2046 17.3202 27.178 17.3133C27.1515 17.3065 27.1238 17.305 27.0967 17.3091C27.0696 17.3132 27.0436 17.3227 27.0203 17.3371C26.997 17.3515 26.9768 17.3705 26.961 17.3929C26.9452 17.4153 26.9341 17.4407 26.9284 17.4675C26.9227 17.4943 26.9224 17.522 26.9277 17.5489C26.933 17.5758 26.9436 17.6014 26.959 17.6241C28.0112 19.3281 27.8627 20.776 27.7735 21.6417C27.7525 21.8075 27.7408 21.9743 27.7384 22.1414C27.7557 23.0298 28.0171 23.4231 28.8466 23.771C28.5231 24.0436 28.1252 24.2127 27.7045 24.2565C26.9529 24.2721 26.2143 24.0596 25.5859 23.6471C23.6206 22.2726 23.4376 20.477 23.2906 19.0342C23.256 18.6952 23.2219 18.3734 23.1667 18.0848C25.0848 17.5146 26.8887 16.8993 28.1757 16.3765C29.5954 18.5075 29.6663 20.4741 29.5407 22.1219C29.3664 24.4093 30.1204 25.9506 31.8767 28.5406C32.6467 29.6747 32.8825 30.7031 32.5779 31.5954V31.5948Z" fill="white"/>
<path d="M22.9979 24.0244C22.9926 24.0244 22.4556 24.0157 22.4556 23.7015C22.4555 23.6582 22.4693 23.616 22.4949 23.581C22.5205 23.5461 22.5566 23.5203 22.5979 23.5073C22.6393 23.4944 22.6837 23.495 22.7246 23.509C22.7656 23.5231 22.801 23.5499 22.8257 23.5855C22.8813 23.6043 22.9393 23.6153 22.9979 23.6182C23.056 23.6154 23.1133 23.6044 23.1683 23.5855C23.193 23.55 23.2284 23.5233 23.2693 23.5093C23.3103 23.4953 23.3546 23.4947 23.3959 23.5076C23.4371 23.5206 23.4732 23.5464 23.4988 23.5812C23.5244 23.6161 23.5382 23.6582 23.5382 23.7015C23.5382 24.0157 23.0034 24.0244 22.9979 24.0244Z" fill="white"/>
<path d="M17.7309 25.5097C17.6168 25.5097 17.5052 25.4759 17.4103 25.4126C17.3154 25.3492 17.2415 25.2591 17.1978 25.1537C17.1541 25.0483 17.1426 24.9323 17.1649 24.8204C17.1871 24.7085 17.242 24.6057 17.3227 24.525C17.4034 24.4443 17.5062 24.3893 17.6181 24.3671C17.73 24.3448 17.846 24.3562 17.9514 24.3999C18.0568 24.4435 18.1469 24.5174 18.2103 24.6123C18.2737 24.7072 18.3076 24.8187 18.3076 24.9328C18.3075 25.0858 18.2467 25.2324 18.1385 25.3406C18.0304 25.4487 17.8838 25.5095 17.7309 25.5097ZM17.7309 24.7624C17.6971 24.7624 17.6641 24.7723 17.636 24.7911C17.6079 24.8098 17.586 24.8365 17.5731 24.8676C17.5601 24.8988 17.5568 24.9332 17.5633 24.9663C17.5699 24.9994 17.5862 25.0298 17.61 25.0537C17.6339 25.0776 17.6643 25.0938 17.6974 25.1004C17.7306 25.107 17.7649 25.1036 17.7961 25.0906C17.8273 25.0777 17.8539 25.0558 17.8726 25.0277C17.8914 24.9996 17.9013 24.9666 17.9013 24.9328C17.9013 24.8877 17.8833 24.8443 17.8513 24.8124C17.8194 24.7804 17.7761 24.7625 17.7309 24.7624Z" fill="white"/>
</svg>
