<svg width="25" height="18" viewBox="0 0 25 18" fill="none" xmlns="http://www.w3.org/2000/svg">
<path fill-rule="evenodd" clip-rule="evenodd" d="M0.680664 8.94624C0.680664 8.68444 0.769205 8.43336 0.926809 8.24824C1.08441 8.06311 1.29817 7.95911 1.52106 7.95911H21.3425L16.0531 1.74811C15.8953 1.56276 15.8067 1.31136 15.8067 1.04923C15.8067 0.787093 15.8953 0.535696 16.0531 0.35034C16.2109 0.164984 16.4249 0.0608521 16.6481 0.0608521C16.8713 0.060852 17.0853 0.164984 17.2431 0.35034L23.9662 8.24735C24.0445 8.33905 24.1066 8.44798 24.149 8.56791C24.1913 8.68783 24.2131 8.8164 24.2131 8.94624C24.2131 9.07608 24.1913 9.20465 24.149 9.32457C24.1066 9.4445 24.0445 9.55343 23.9662 9.64513L17.2431 17.5421C17.0853 17.7275 16.8713 17.8316 16.6481 17.8316C16.4249 17.8316 16.2109 17.7275 16.0531 17.5421C15.8953 17.3568 15.8067 17.1054 15.8067 16.8433C15.8067 16.5811 15.8953 16.3297 16.0531 16.1444L21.3425 9.93337H1.52106C1.29817 9.93337 1.08441 9.82937 0.926809 9.64424C0.769205 9.45912 0.680664 9.20804 0.680664 8.94624Z" fill="white" fill-opacity="0.8"/>
</svg>
