<svg width="46" height="46" viewBox="0 0 46 46" fill="none" xmlns="http://www.w3.org/2000/svg">
<circle cx="23" cy="23" r="23" fill="#D9D9D9" fill-opacity="0.2"/>
<g clip-path="url(#clip0_401_333)">
<path d="M34.8574 14.4896H20.6897C20.7118 12.9308 21.7003 11.7617 23.0073 11.7617C23.9119 11.7617 24.7087 12.3355 25.0864 13.2591C25.1661 13.4538 25.3884 13.5473 25.5831 13.4674C25.7778 13.3878 25.8711 13.1654 25.7914 12.9707C25.2942 11.7551 24.2274 11 23.0073 11C21.2667 11 19.9512 12.4966 19.928 14.4896H11.1426C10.5125 14.4896 10 15.0022 10 15.6322V24.7728C10 25.4028 10.5125 25.9154 11.1426 25.9154H15.2061C15.1072 26.1833 15.0956 26.4744 15.1762 26.7551C15.2786 27.1117 15.5158 27.4041 15.844 27.5784C16.0447 27.6849 16.2599 27.7356 16.4726 27.7356C16.9459 27.7356 17.4062 27.4844 17.6637 27.0384L18.3121 25.9155H19.4457C19.4326 26.1699 19.4251 26.3965 19.4251 26.5822C19.4251 30.2205 20.2797 34.0051 20.4861 34.8657L19.9475 35.573C19.7415 35.8437 19.7074 36.2012 19.8584 36.5059C20.0094 36.8106 20.3145 36.9999 20.6547 36.9999H25.3598C25.6999 36.9999 26.0051 36.8106 26.1561 36.5059C26.3072 36.2011 26.273 35.8437 26.067 35.5731L25.5285 34.8656C25.6567 34.3311 26.0348 32.6686 26.3031 30.614L28.0946 32.4054C28.166 32.4768 28.2629 32.5169 28.3639 32.5169H33.5879C33.7983 32.5169 33.9688 32.3465 33.9688 32.1361C33.9688 31.9257 33.7983 31.7552 33.5879 31.7552H28.5216L26.4167 29.6503C26.5203 28.6627 26.5894 27.6165 26.5894 26.5821C26.5894 26.3964 26.5819 26.1698 26.5688 25.9154H29.952L30.0497 26.0845C30.1309 26.2252 30.1509 26.3887 30.106 26.5449C30.0612 26.701 29.9572 26.8291 29.8133 26.9056C29.5745 27.0322 29.2664 26.9696 29.0809 26.7564C28.9426 26.5976 28.7021 26.581 28.5435 26.7191C28.3848 26.8573 28.3682 27.0978 28.5063 27.2565C28.7782 27.5688 29.1583 27.7349 29.5434 27.7349C29.7568 27.7349 29.9718 27.6839 30.1705 27.5784C30.4987 27.4041 30.7359 27.1118 30.8382 26.7552C30.9188 26.4744 30.9072 26.1833 30.8083 25.9154H34.8574C35.4874 25.9154 36 25.4028 36 24.7728V15.6322C36 15.0022 35.4874 14.4896 34.8574 14.4896ZM23.7415 17.7673C23.737 17.7688 23.7326 17.7706 23.7281 17.7723C23.5038 17.8556 23.262 17.8984 23.0073 17.8984C22.7597 17.8984 22.5287 17.859 22.3154 17.7845C22.2933 17.774 22.2703 17.7656 22.2466 17.7595C21.4139 17.4326 20.8696 16.5421 20.7266 15.2514H25.2886C25.1961 16.0968 24.9301 16.7802 24.5111 17.2386C24.2906 17.4799 24.0308 17.6575 23.7415 17.7673ZM17.004 26.6575C16.8397 26.9421 16.4796 27.0533 16.2012 26.9056C16.0572 26.8291 15.9532 26.7011 15.9083 26.545C15.8635 26.3888 15.8835 26.2252 15.9648 26.0845L16.0624 25.9154H17.4324L17.004 26.6575ZM18.7518 25.1537L19.6257 23.6401C19.577 24.1499 19.5307 24.673 19.4949 25.1537H18.7518ZM25.8278 26.5822C25.8278 27.3758 25.7859 28.1771 25.7188 28.9524L25.3468 28.5804C25.198 28.4317 24.9569 28.4317 24.8081 28.5804C24.6594 28.7292 24.6594 28.9703 24.8081 29.119L25.6201 29.931C25.3082 32.6458 24.7542 34.8266 24.7465 34.8568C24.7175 34.9697 24.7417 35.0896 24.8123 35.1822L25.4609 36.0345C25.5024 36.089 25.4867 36.1413 25.4736 36.1677C25.4606 36.1941 25.4284 36.2383 25.3599 36.2383H23.3882V27.5428C23.3882 27.3324 23.2177 27.1619 23.0073 27.1619C22.797 27.1619 22.6265 27.3324 22.6265 27.5428V36.2383H20.6547C20.5862 36.2383 20.5541 36.194 20.541 36.1677C20.5279 36.1413 20.5122 36.0889 20.5537 36.0344L21.2023 35.1822C21.2729 35.0895 21.2971 34.9696 21.2681 34.8568C21.2573 34.8147 20.1867 30.6004 20.1867 26.5822C20.1867 26.3994 20.1946 26.1723 20.2084 25.9154H25.806C25.8198 26.1723 25.8278 26.3994 25.8278 26.5822ZM26.5196 25.1537C26.4838 24.673 26.4375 24.1499 26.3888 23.6401L27.2626 25.1537H26.5196ZM28.1422 25.1537L26.1975 21.7854C26.1438 21.2958 26.1049 20.9625 26.0994 20.916C26.0749 20.7071 25.8849 20.558 25.6768 20.5821C25.4679 20.6065 25.3184 20.7958 25.3429 21.0047C25.3465 21.0359 25.6214 23.3898 25.7556 25.1536H20.2589C20.3931 23.3898 20.6679 21.0359 20.6716 21.0047C20.6961 20.7958 20.5466 20.6065 20.3377 20.5821C20.1288 20.558 19.9396 20.7071 19.9151 20.916C19.9097 20.9625 19.8707 21.2958 19.817 21.7854L17.8723 25.1536H11.1426C10.9325 25.1536 10.7617 24.9828 10.7617 24.7728V15.6322C10.7617 15.4221 10.9325 15.2513 11.1426 15.2513H19.9605C20.0965 16.6765 20.6438 17.5847 21.3315 18.1018L20.0093 18.7411C19.3883 19.0413 18.8778 19.5157 18.5328 20.1132L16.4697 23.6866C16.3645 23.8688 16.4269 24.1017 16.6091 24.2069C16.6691 24.2415 16.7346 24.258 16.7992 24.258C16.9308 24.258 17.0588 24.1897 17.1293 24.0675L19.1925 20.494C19.4607 20.0294 19.8579 19.6604 20.3408 19.4268L22.1826 18.5363C22.4574 18.6206 22.7366 18.66 23.0073 18.66C23.2934 18.66 23.5711 18.6178 23.8346 18.5376L25.6737 19.4268C26.1567 19.6604 26.5538 20.0294 26.8221 20.494L29.5123 25.1536H28.1422V25.1537ZM35.2383 24.7728C35.2383 24.9829 35.0675 25.1537 34.8574 25.1537H30.3918L27.4817 20.1132C27.1368 19.5158 26.6262 19.0414 26.0053 18.7411L24.6866 18.1035C24.8243 17.9998 24.954 17.8831 25.0733 17.7525C25.6166 17.1582 25.9533 16.2969 26.0544 15.2513H34.8574C35.0675 15.2513 35.2383 15.4221 35.2383 15.6322V24.7728Z" fill="white"/>
<path d="M12.4121 17.2827H17.6361C17.8465 17.2827 18.017 17.1122 18.017 16.9019C18.017 16.6915 17.8465 16.521 17.6361 16.521H12.4121C12.2018 16.521 12.0312 16.6915 12.0312 16.9019C12.0312 17.1122 12.2018 17.2827 12.4121 17.2827Z" fill="white"/>
<path d="M15.6049 18.5522H12.4121C12.2018 18.5522 12.0312 18.7227 12.0312 18.9331C12.0312 19.1435 12.2018 19.314 12.4121 19.314H15.6049C15.8152 19.314 15.9857 19.1435 15.9857 18.9331C15.9857 18.7227 15.8152 18.5522 15.6049 18.5522Z" fill="white"/>
<path d="M15.6049 20.0757H12.4121C12.2018 20.0757 12.0312 20.2462 12.0312 20.4565C12.0312 20.6669 12.2018 20.8374 12.4121 20.8374H15.6049C15.8152 20.8374 15.9857 20.6669 15.9857 20.4565C15.9857 20.2462 15.8152 20.0757 15.6049 20.0757Z" fill="white"/>
<path d="M33.5878 29.7241H30.395C30.1846 29.7241 30.0142 29.8946 30.0142 30.105C30.0142 30.3154 30.1846 30.4858 30.395 30.4858H33.5878C33.7982 30.4858 33.9686 30.3154 33.9686 30.105C33.9686 29.8946 33.7982 29.7241 33.5878 29.7241Z" fill="white"/>
<path d="M33.5878 28.2007H30.395C30.1846 28.2007 30.0142 28.3712 30.0142 28.5815C30.0142 28.7919 30.1846 28.9624 30.395 28.9624H33.5878C33.7982 28.9624 33.9686 28.7919 33.9686 28.5815C33.9686 28.3712 33.7982 28.2007 33.5878 28.2007Z" fill="white"/>
<path d="M31.178 16.4805C29.6351 16.4805 28.3799 17.7357 28.3799 19.2785C28.3799 20.8214 29.6351 22.0766 31.178 22.0766C31.9346 22.0766 32.6215 21.7742 33.1256 21.2846C33.1363 21.276 33.1466 21.267 33.1565 21.2571C33.1664 21.2472 33.1756 21.2368 33.1841 21.2261C33.6737 20.722 33.976 20.0351 33.976 19.2785C33.976 17.7357 32.7208 16.4805 31.178 16.4805ZM33.2143 19.2785C33.2143 19.7025 33.0839 20.0966 32.8612 20.423L31.5589 19.1207V17.2784C32.5002 17.4573 33.2143 18.2858 33.2143 19.2785ZM31.5588 20.198L32.3225 20.9617C32.0964 21.116 31.8375 21.2256 31.5588 21.2785V20.198ZM29.1416 19.2785C29.1416 18.2858 29.8557 17.4573 30.7971 17.2784V19.2782V19.2787V21.2785C29.8557 21.0996 29.1416 20.2711 29.1416 19.2785Z" fill="white"/>
</g>
<defs>
<clipPath id="clip0_401_333">
<rect width="26" height="26" fill="white" transform="translate(10 11)"/>
</clipPath>
</defs>
</svg>
