<svg width="164" height="156" viewBox="0 0 164 156" fill="none" xmlns="http://www.w3.org/2000/svg">
<circle cx="82" cy="74" r="82" fill="#1D3E43"/>
<g filter="url(#filter0_d_401_503)">
<path d="M36.1706 34.0204C36.9064 36.8751 37.0675 37.3814 37.5475 38.4185C38.8368 41.2063 41.0125 43.481 43.7313 44.8731C45.6793 45.8751 47.5432 46.3181 51.0187 46.5958C54.799 46.9017 59.5814 47.0001 70.621 47.0036C77.4074 47.0071 85.5707 47.0528 88.2789 47.1091C89.9361 47.1407 92.3746 47.2286 92.746 47.2673C92.8441 47.2778 93.1594 47.2989 93.4467 47.32C95.209 47.4396 96.789 47.7173 97.7595 48.0759C98.4602 48.336 99.3011 48.779 99.9808 49.2466C101.028 49.9673 102.202 51.1872 103.078 52.4669C103.894 53.6587 104.623 55.1212 105.047 56.4185C105.474 57.7263 105.692 59.1079 105.643 60.2083C105.534 62.6622 104.396 65.6926 102.248 68.1465C101.835 68.6211 100.731 69.7039 100.304 70.0625C97.9395 71.5566 96.6077 71.8379 95.0136 72.1895C94.0886 72.3125 93.472 72.3301 92.999 72.3301C92.3894 72.0312 92.1609 71.286 92.0242 68.9235C91.9962 68.4806 91.9787 65.4888 91.9682 60.0888L91.9506 51.9255H85.1047H78.2588V69.2118V86.4946L78.9875 86.47C81.4996 86.3892 87.9461 86.1571 89.8906 86.0798C91.0783 86.0306 91.4672 86.0095 92.9036 85.9181C100.657 85.1095 103.53 83.756 108.225 80.7853C109.461 79.7271 111.336 78.138 112.772 76.447C114.135 74.8438 115.379 72.9524 116.328 71.0505C118.802 66.0935 119.611 60.6688 118.686 55.2653C117.933 50.8567 115.999 46.6767 113.102 43.1856C110.954 40.5981 108.386 38.4606 105.341 36.7204C104.343 36.1509 102.188 35.1278 101.19 34.7517C99.1189 33.9677 96.8416 33.6478 92.1153 33.4685C88.1773 33.3173 87.8165 33.3173 61.3331 33.3032L35.9814 33.2892L36.1706 34.0204Z" fill="#FDF9EA"/>
<path d="M116.275 104.22C115.539 101.366 115.378 100.859 114.898 99.8223C113.609 97.0344 111.433 94.7598 108.714 93.3676C106.767 92.3656 104.903 91.9227 101.427 91.6449C97.6468 91.3391 92.8644 91.2406 81.8247 91.2371C75.0384 91.2336 66.8751 91.1879 64.1668 91.1316C62.5097 91.1 60.0712 91.0121 59.6998 90.9734C59.6017 90.9629 59.2864 90.9418 58.9991 90.9207C57.2368 90.8012 55.6567 90.5234 54.6862 90.1648C53.9855 89.9047 53.1447 89.4617 52.465 88.9941C51.4174 88.2734 50.2437 87.0535 49.3678 85.7738C48.5515 84.582 47.8228 83.1195 47.3988 81.8223C46.9714 80.5145 46.7542 79.1328 46.8032 78.0324C46.9118 75.5785 48.0501 72.5481 50.1978 70.0942C50.6112 69.6196 51.7144 68.5368 52.1418 68.1782C54.5063 66.6841 55.8381 66.4028 57.4322 66.0513C58.3571 65.9282 58.9738 65.9106 59.4467 65.9106C60.0564 66.2095 60.2849 66.9547 60.4215 69.3172C60.4496 69.7602 60.4671 72.752 60.4776 78.152L60.4951 86.3152H67.3411H74.187V69.0289V51.7461L73.4583 51.7707C70.9462 51.8516 64.4997 52.0836 62.5552 52.1609C61.3675 52.2102 60.9786 52.2312 59.5421 52.3227C51.7117 52.8219 47.8403 54.084 43.9338 57.4133C42.6971 58.4715 40.8858 59.9691 39.4494 61.6602C38.0865 63.2633 36.8252 65.1371 35.8757 67.0391C33.4022 71.9961 32.8346 77.5719 33.7595 82.9754C34.5128 87.384 36.4467 91.5641 39.3442 95.0551C41.4919 97.6426 44.06 99.7801 47.1045 101.52C48.1031 102.09 50.2577 103.113 51.2562 103.489C53.3268 104.273 55.6042 104.593 60.3304 104.772C64.2684 104.923 64.6293 104.923 91.1127 104.937L116.464 104.952L116.275 104.22Z" fill="#FDF9EA"/>
<g filter="url(#filter1_b_401_503)">
<path d="M95.0639 55.2287C94.3395 55.3874 93.7412 55.9767 93.573 56.6858C93.5019 56.9837 93.5278 57.4758 93.628 57.764C93.7832 58.2141 94.1681 58.648 94.6047 58.8681C95.0218 59.0754 95.6622 59.1207 96.0987 58.9685C96.6905 58.758 97.2015 58.1882 97.347 57.573C97.4052 57.3204 97.3988 56.8542 97.3309 56.6178C97.195 56.158 96.8878 55.7403 96.4965 55.491C96.0987 55.2352 95.5166 55.1284 95.0639 55.2287Z" fill="#FDF9EA"/>
</g>
<g filter="url(#filter2_b_401_503)">
<path d="M95.0623 63.6665C94.6841 63.7506 94.3931 63.9124 94.1119 64.194C93.6787 64.6245 93.5042 65.0712 93.5365 65.67C93.5591 66.0746 93.6399 66.3238 93.863 66.6539C94.4287 67.4987 95.5569 67.7447 96.4556 67.2236C96.7142 67.0747 97.0504 66.709 97.1862 66.4306C97.3381 66.1134 97.3866 65.8965 97.3866 65.5405C97.3834 64.7184 96.8565 63.9934 96.0741 63.7312C95.7606 63.6244 95.363 63.5985 95.0623 63.6665Z" fill="#FDF9EA"/>
</g>
<g filter="url(#filter3_b_401_503)">
<path d="M56.6814 70.2473C56.0454 70.383 55.5094 70.8516 55.2705 71.4817C55.1607 71.7693 55.1349 72.2475 55.2092 72.5641C55.3803 73.2879 55.9098 73.8243 56.6426 74.0117C57.6403 74.267 58.654 73.666 58.9607 72.6352C59.0511 72.338 59.0382 71.863 58.9317 71.5431C58.6217 70.5931 57.6564 70.0373 56.6814 70.2473Z" fill="#FDF9EA"/>
</g>
<g filter="url(#filter4_b_401_503)">
<path d="M56.5969 78.9834C55.7544 79.2028 55.167 79.9645 55.167 80.8295C55.167 81.1684 55.2154 81.3718 55.3671 81.6945C55.6221 82.2271 56.1288 82.6208 56.7227 82.7402C57.0294 82.8048 57.1843 82.8048 57.4748 82.7435C58.3689 82.5563 59.0176 81.772 59.0209 80.8715C59.0241 80.3131 58.8498 79.8903 58.4625 79.4965C58.0719 79.106 57.62 78.9156 57.0778 78.922C56.9422 78.922 56.726 78.9511 56.5969 78.9834Z" fill="#FDF9EA"/>
</g>
<path d="M54.1575 107.704C54.0987 107.763 54.0947 108.145 54.0947 112.309C54.0947 116.209 54.1026 116.859 54.1497 116.899C54.1929 116.934 54.6287 116.942 55.889 116.934C57.7382 116.918 57.7029 116.922 58.1151 116.658C58.3703 116.493 58.5863 116.158 58.6648 115.8C58.7551 115.406 58.759 109.216 58.6687 108.834C58.5352 108.267 58.2211 107.908 57.7068 107.739C57.5183 107.676 57.2946 107.668 55.8576 107.652C54.3813 107.64 54.2164 107.644 54.1575 107.704ZM57.0668 109.311L57.1768 109.417L57.1885 112.246C57.1964 114.322 57.1846 115.098 57.1532 115.181C57.0708 115.374 56.9491 115.406 56.2738 115.406H55.6652V112.289V109.177L56.313 109.189L56.9608 109.201L57.0668 109.311Z" fill="#FDF9EA"/>
<path d="M60.6043 107.731C60.5494 107.81 60.5415 108.31 60.5415 112.321C60.5415 116.354 60.5494 116.823 60.6043 116.878C60.6554 116.93 60.7771 116.941 61.3424 116.941C61.8135 116.941 62.0333 116.926 62.0647 116.894C62.1001 116.859 62.1118 115.779 62.1118 112.285C62.1118 107.818 62.1118 107.723 62.0372 107.684C61.9941 107.66 61.6839 107.645 61.311 107.645C60.6868 107.645 60.6632 107.648 60.6043 107.731Z" fill="#FDF9EA"/>
<path d="M64.1429 107.708C64.0919 107.759 64.0801 107.881 64.0801 108.428C64.0801 108.885 64.0958 109.102 64.1272 109.134C64.1586 109.165 64.3863 109.181 64.8927 109.181H65.6111V113.014C65.6111 115.941 65.6229 116.859 65.6583 116.894C65.6897 116.926 65.9095 116.941 66.3963 116.941C66.8831 116.941 67.103 116.926 67.1344 116.894C67.1697 116.859 67.1815 115.941 67.1815 113.014V109.181H67.9078C68.583 109.181 68.634 109.177 68.6733 109.106C68.6968 109.063 68.7125 108.759 68.7125 108.397C68.7125 107.877 68.7008 107.759 68.6497 107.708C68.5948 107.652 68.3357 107.645 66.3963 107.645C64.457 107.645 64.1979 107.652 64.1429 107.708Z" fill="#FDF9EA"/>
<path d="M70.173 107.731C70.122 107.802 70.1102 107.94 70.1102 108.413C70.1102 109.236 70.0513 109.181 70.9346 109.181H71.6412L71.6491 113.022C71.6609 116.39 71.6687 116.87 71.7198 116.902C71.81 116.961 73.1056 116.953 73.1644 116.894C73.1998 116.858 73.2115 115.941 73.2115 113.014V109.181H73.93C74.4364 109.181 74.6641 109.165 74.6955 109.134C74.7622 109.067 74.7622 107.759 74.6955 107.692C74.6602 107.656 74.1066 107.644 72.4421 107.644H70.2319L70.173 107.731Z" fill="#FDF9EA"/>
<path d="M77.7353 107.672C77.005 107.77 76.5496 108.176 76.42 108.846C76.3886 109.015 76.3807 110.028 76.3886 112.431L76.4004 115.78L76.4907 116C76.6634 116.438 76.8872 116.658 77.3269 116.832C77.5193 116.91 77.6332 116.918 78.5127 116.934C79.1487 116.946 79.5728 116.934 79.7455 116.902C80.3541 116.796 80.731 116.477 80.9195 115.914C80.9862 115.717 80.9941 115.464 81.0059 112.51C81.0137 110.429 81.0019 109.212 80.9784 109.007C80.8763 108.251 80.4326 107.79 79.6984 107.683C79.4393 107.648 77.9866 107.636 77.7353 107.672ZM79.2704 109.2C79.5335 109.31 79.5257 109.212 79.5139 112.372L79.5021 115.208L79.3922 115.315C79.2901 115.421 79.2704 115.425 78.8032 115.437C78.2182 115.457 78.0612 115.417 77.9748 115.232C77.9198 115.114 77.912 114.791 77.912 112.293C77.912 109.196 77.9041 109.31 78.1593 109.2C78.336 109.121 79.0859 109.121 79.2704 109.2Z" fill="#FDF9EA"/>
<path d="M86.7875 107.683C86.7207 107.723 86.7168 107.986 86.7168 112.285C86.7168 115.779 86.7286 116.859 86.7639 116.894C86.8267 116.957 89.7753 116.961 90.1168 116.898C90.7961 116.772 91.2161 116.311 91.3143 115.578C91.3418 115.373 91.3496 114.176 91.3418 112.096C91.33 108.924 91.33 108.924 91.2397 108.66C91.1337 108.337 90.957 108.101 90.7058 107.931C90.3288 107.675 90.2857 107.671 88.4836 107.656C87.3803 107.648 86.8307 107.656 86.7875 107.683ZM89.5829 109.231C89.6378 109.259 89.7124 109.342 89.7517 109.417C89.8145 109.547 89.8184 109.748 89.8106 112.36L89.7988 115.168L89.6889 115.275L89.5829 115.385L88.9351 115.397L88.2873 115.409V112.296V109.18H88.888C89.2845 109.18 89.5161 109.196 89.5829 109.231Z" fill="#FDF9EA"/>
<path d="M94.4315 107.682C94.1527 107.726 93.756 107.919 93.5753 108.096C93.3907 108.281 93.2611 108.569 93.2022 108.904C93.1708 109.081 93.1629 110.177 93.1708 112.451C93.1826 115.434 93.1904 115.761 93.2493 115.939C93.3515 116.234 93.5321 116.482 93.7638 116.644C94.1684 116.92 94.1919 116.924 95.4801 116.924C96.5601 116.924 96.6505 116.916 96.8351 116.841C97.1767 116.699 97.3613 116.557 97.5224 116.313C97.7855 115.899 97.7776 116.029 97.7776 112.274C97.7776 109.081 97.7737 108.873 97.7069 108.668C97.5459 108.199 97.2357 107.887 96.7761 107.741C96.5994 107.682 96.3834 107.671 95.5979 107.659C95.0677 107.655 94.5454 107.663 94.4315 107.682ZM96.0496 109.196C96.3166 109.31 96.3049 109.184 96.3049 112.293C96.3049 115.399 96.3127 115.316 96.0614 115.403C95.8886 115.462 95.052 115.458 94.9303 115.395C94.8753 115.367 94.8007 115.284 94.7653 115.21C94.6986 115.083 94.6946 114.859 94.6946 112.301C94.6946 109.235 94.6907 109.31 94.9381 109.2C95.1149 109.125 95.8689 109.121 96.0496 109.196Z" fill="#FDF9EA"/>
<path d="M99.6684 107.735C99.6134 107.818 99.6095 108.338 99.6173 112.348C99.6291 116.311 99.637 116.87 99.688 116.902C99.7822 116.961 104.018 116.953 104.077 116.894C104.108 116.862 104.124 116.646 104.124 116.173C104.124 115.7 104.108 115.484 104.077 115.452C104.042 115.417 103.661 115.405 102.605 115.405H101.18V111.572C101.18 108.645 101.168 107.727 101.133 107.692C101.101 107.66 100.881 107.644 100.406 107.644C99.739 107.644 99.7273 107.644 99.6684 107.735Z" fill="#FDF9EA"/>
<path d="M106.057 107.688C105.99 107.723 105.986 107.987 105.986 112.285C105.986 115.779 105.998 116.859 106.033 116.894C106.069 116.93 106.611 116.941 108.228 116.941C110.128 116.941 110.383 116.934 110.438 116.878C110.489 116.827 110.501 116.705 110.501 116.173C110.501 115.641 110.489 115.519 110.438 115.468C110.387 115.413 110.199 115.405 108.966 115.405H107.557V111.588C107.557 108.168 107.549 107.763 107.494 107.708C107.443 107.656 107.321 107.645 106.779 107.645C106.406 107.645 106.092 107.664 106.057 107.688Z" fill="#FDF9EA"/>
<path d="M113.612 107.682C113.106 107.761 112.658 108.084 112.485 108.486C112.348 108.813 112.328 109.081 112.328 110.645C112.328 112.292 112.332 112.344 112.532 112.438C112.579 112.462 113.247 112.69 114.009 112.942L115.391 113.403V114.231C115.391 115.405 115.375 115.425 114.555 115.397C114.158 115.385 114.13 115.381 114.028 115.275C113.918 115.169 113.918 115.161 113.907 114.566C113.899 114.235 113.875 113.943 113.852 113.916C113.789 113.841 112.434 113.849 112.367 113.928C112.332 113.971 112.324 114.211 112.336 114.861C112.352 115.634 112.363 115.768 112.434 115.965C112.595 116.402 112.874 116.682 113.31 116.847C113.455 116.902 113.671 116.918 114.452 116.934C115.568 116.954 115.85 116.922 116.212 116.737C116.506 116.587 116.71 116.351 116.852 116.008C116.942 115.779 116.942 115.768 116.942 114.077V112.375L116.852 112.284C116.793 112.221 116.337 112.052 115.34 111.721L113.918 111.248L113.907 110.389C113.895 109.44 113.914 109.353 114.138 109.235C114.236 109.188 114.354 109.176 114.708 109.188C115.136 109.199 115.159 109.203 115.261 109.31C115.371 109.416 115.371 109.424 115.391 110.035C115.411 110.649 115.411 110.657 115.509 110.708C115.658 110.783 116.871 110.76 116.926 110.677C116.95 110.641 116.958 110.279 116.95 109.731C116.938 109.01 116.922 108.809 116.867 108.648C116.706 108.195 116.392 107.883 115.941 107.741C115.764 107.686 115.548 107.671 114.782 107.659C114.264 107.655 113.738 107.663 113.612 107.682Z" fill="#FDF9EA"/>
</g>
<defs>
<filter id="filter0_d_401_503" x="-1" y="11" width="155" height="128" filterUnits="userSpaceOnUse" color-interpolation-filters="sRGB">
<feFlood flood-opacity="0" result="BackgroundImageFix"/>
<feColorMatrix in="SourceAlpha" type="matrix" values="0 0 0 0 0 0 0 0 0 0 0 0 0 0 0 0 0 0 127 0" result="hardAlpha"/>
<feOffset dy="1"/>
<feGaussianBlur stdDeviation="0.5"/>
<feComposite in2="hardAlpha" operator="out"/>
<feColorMatrix type="matrix" values="0 0 0 0 0 0 0 0 0 0 0 0 0 0 0 0 0 0 0.56 0"/>
<feBlend mode="normal" in2="BackgroundImageFix" result="effect1_dropShadow_401_503"/>
<feBlend mode="normal" in="SourceGraphic" in2="effect1_dropShadow_401_503" result="shape"/>
</filter>
<filter id="filter1_b_401_503" x="81.5327" y="43.1914" width="27.854" height="27.8672" filterUnits="userSpaceOnUse" color-interpolation-filters="sRGB">
<feFlood flood-opacity="0" result="BackgroundImageFix"/>
<feGaussianBlur in="BackgroundImageFix" stdDeviation="6"/>
<feComposite in2="SourceAlpha" operator="in" result="effect1_backgroundBlur_401_503"/>
<feBlend mode="normal" in="SourceGraphic" in2="effect1_backgroundBlur_401_503" result="shape"/>
</filter>
<filter id="filter2_b_401_503" x="81.5327" y="51.6289" width="27.854" height="27.8672" filterUnits="userSpaceOnUse" color-interpolation-filters="sRGB">
<feFlood flood-opacity="0" result="BackgroundImageFix"/>
<feGaussianBlur in="BackgroundImageFix" stdDeviation="6"/>
<feComposite in2="SourceAlpha" operator="in" result="effect1_backgroundBlur_401_503"/>
<feBlend mode="normal" in="SourceGraphic" in2="effect1_backgroundBlur_401_503" result="shape"/>
</filter>
<filter id="filter3_b_401_503" x="43.167" y="58.2031" width="27.854" height="27.8672" filterUnits="userSpaceOnUse" color-interpolation-filters="sRGB">
<feFlood flood-opacity="0" result="BackgroundImageFix"/>
<feGaussianBlur in="BackgroundImageFix" stdDeviation="6"/>
<feComposite in2="SourceAlpha" operator="in" result="effect1_backgroundBlur_401_503"/>
<feBlend mode="normal" in="SourceGraphic" in2="effect1_backgroundBlur_401_503" result="shape"/>
</filter>
<filter id="filter4_b_401_503" x="43.167" y="66.9219" width="27.854" height="27.8672" filterUnits="userSpaceOnUse" color-interpolation-filters="sRGB">
<feFlood flood-opacity="0" result="BackgroundImageFix"/>
<feGaussianBlur in="BackgroundImageFix" stdDeviation="6"/>
<feComposite in2="SourceAlpha" operator="in" result="effect1_backgroundBlur_401_503"/>
<feBlend mode="normal" in="SourceGraphic" in2="effect1_backgroundBlur_401_503" result="shape"/>
</filter>
</defs>
</svg>
