<svg width="46" height="46" viewBox="0 0 46 46" fill="none" xmlns="http://www.w3.org/2000/svg">
<circle cx="23" cy="23" r="23" fill="#D9D9D9" fill-opacity="0.2"/>
<g clip-path="url(#clip0_401_320)">
<path d="M32.1264 12.3096H25.418L23.5478 11.094C23.4216 11.012 23.2589 11.0119 23.1327 11.094L21.2623 12.3096H13.8736C11.7377 12.3096 10 14.0475 10 16.1837V27.968C10 30.1042 11.7377 31.8421 13.8736 31.8421H18.4001V33.4047H17.6825C16.7003 33.4047 15.9012 34.2038 15.9012 35.1861C15.9012 36.1684 16.7003 36.9675 17.6825 36.9675H28.3175C29.2997 36.9675 30.0988 36.1684 30.0988 35.1861C30.0988 34.2039 29.2997 33.4048 28.3175 33.4048H27.5999V31.8421H29.2283C29.4387 31.8421 29.6092 31.6716 29.6092 31.4612C29.6092 31.2509 29.4387 31.0804 29.2283 31.0804H13.8736C12.1577 31.0804 10.7617 29.6842 10.7617 27.968V16.1837C10.7617 14.4675 12.1577 13.0713 13.8736 13.0713H20.0903L18.2749 14.2512H13.8741C12.8087 14.2512 11.9419 15.118 11.9419 16.1834V27.9677C11.9419 29.0332 12.8087 29.9 13.8741 29.9H32.1259C33.1913 29.9 34.0581 29.0332 34.0581 27.9677V16.1834C34.0581 15.118 33.1913 14.2512 32.1259 14.2512H28.4051L26.5899 13.0713H32.1264C33.8423 13.0713 35.2383 14.4675 35.2383 16.1837V27.968C35.2383 29.6842 33.8423 31.0804 32.1264 31.0804H30.7518C30.5414 31.0804 30.3709 31.2509 30.3709 31.4612C30.3709 31.6716 30.5414 31.8421 30.7518 31.8421H32.1264C34.2623 31.8421 36 30.1042 36 27.968V16.1837C36 14.0475 34.2623 12.3096 32.1264 12.3096ZM29.3371 35.1861C29.3371 35.7483 28.8797 36.2057 28.3175 36.2057H17.6825C17.1203 36.2057 16.6629 35.7483 16.6629 35.1861C16.6629 34.6239 17.1203 34.1665 17.6825 34.1665H28.3175C28.8797 34.1665 29.3371 34.6239 29.3371 35.1861ZM26.8382 33.4047H19.1618V31.8421H26.8382V33.4047ZM23.3402 11.8675L28.9961 15.5439L23.3402 19.2202L21.3515 17.9276C21.1753 17.813 20.9393 17.863 20.8246 18.0394C20.71 18.2158 20.76 18.4516 20.9364 18.5663L22.9591 19.8809V26.4715L17.3658 22.8363V16.2456L19.6771 17.7477C19.8535 17.8622 20.0893 17.8123 20.204 17.6358C20.3186 17.4595 20.2685 17.2236 20.0922 17.109L17.6838 15.5439L23.3402 11.8675ZM27.7626 21.2636C27.722 21.1555 27.8216 21.073 27.9158 21.1104L31.5659 22.6267C31.6734 22.68 31.6645 22.8101 31.5507 22.8482L30.4233 23.144C30.1168 23.2244 29.8765 23.4647 29.7961 23.7711L29.5004 24.8986C29.4624 25.0123 29.3322 25.0214 29.2789 24.9138L27.7626 21.2636ZM28.208 20.407C27.8782 20.27 27.502 20.3446 27.2494 20.5972C26.9968 20.8497 26.9222 21.2259 27.0592 21.5557L27.9574 23.718L23.7209 26.4719V19.8812L29.3141 16.2457V20.8665L28.208 20.407ZM32.1259 15.0129C32.7713 15.0129 33.2964 15.538 33.2964 16.1834V27.9677C33.2964 28.6132 32.7713 29.1383 32.1259 29.1383H13.8741C13.2287 29.1383 12.7036 28.6132 12.7036 27.9677V16.1834C12.7036 15.538 13.2287 15.0129 13.8741 15.0129H17.1029L16.7774 15.2245C16.6694 15.2947 16.6042 15.4148 16.6041 15.5437V23.043C16.6041 23.172 16.6693 23.2921 16.7774 23.3624L23.1326 27.4929C23.2589 27.575 23.4215 27.575 23.5478 27.4929L28.2545 24.4334L28.5754 25.2061C28.7143 25.5404 29.0271 25.7479 29.3836 25.7479C29.4047 25.7479 29.4259 25.7472 29.4473 25.7457C29.8298 25.7194 30.1399 25.4628 30.2372 25.0919L30.5329 23.9645C30.5436 23.9236 30.5756 23.8916 30.6165 23.8809L31.7439 23.5851C32.1148 23.4878 32.3714 23.1778 32.3977 22.7952C32.424 22.4127 32.2121 22.0705 31.858 21.9234L30.0758 21.1831V15.5436C30.0757 15.4148 30.0105 15.2947 29.9024 15.2245L29.5769 15.0129H32.1259V15.0129Z" fill="white"/>
</g>
<defs>
<clipPath id="clip0_401_320">
<rect width="26" height="26" fill="white" transform="translate(10 11)"/>
</clipPath>
</defs>
</svg>
