<svg width="298" height="126" viewBox="0 0 298 126" fill="none" xmlns="http://www.w3.org/2000/svg">
<path d="M0 0H298V126H0V0Z" fill="#FDF9EA"/>
<path d="M23.8115 35.0469V45H22.4854L17.4746 37.3232V45H16.1553V35.0469H17.4746L22.5059 42.7441V35.0469H23.8115ZM26.323 41.3838V41.2266C26.323 40.6934 26.4005 40.1989 26.5555 39.7432C26.7104 39.2829 26.9337 38.8841 27.2254 38.5469C27.5171 38.2051 27.8702 37.9408 28.285 37.7539C28.6997 37.5625 29.1645 37.4668 29.6795 37.4668C30.199 37.4668 30.6661 37.5625 31.0809 37.7539C31.5001 37.9408 31.8556 38.2051 32.1473 38.5469C32.4435 38.8841 32.6691 39.2829 32.824 39.7432C32.979 40.1989 33.0564 40.6934 33.0564 41.2266V41.3838C33.0564 41.917 32.979 42.4115 32.824 42.8672C32.6691 43.3229 32.4435 43.7217 32.1473 44.0635C31.8556 44.4007 31.5024 44.665 31.0877 44.8564C30.6775 45.0433 30.2127 45.1367 29.6932 45.1367C29.1736 45.1367 28.7065 45.0433 28.2918 44.8564C27.8771 44.665 27.5216 44.4007 27.2254 44.0635C26.9337 43.7217 26.7104 43.3229 26.5555 42.8672C26.4005 42.4115 26.323 41.917 26.323 41.3838ZM27.5877 41.2266V41.3838C27.5877 41.7529 27.631 42.1016 27.7176 42.4297C27.8042 42.7533 27.934 43.0404 28.1072 43.291C28.285 43.5417 28.506 43.7399 28.7703 43.8857C29.0346 44.027 29.3423 44.0977 29.6932 44.0977C30.0395 44.0977 30.3426 44.027 30.6023 43.8857C30.8667 43.7399 31.0854 43.5417 31.2586 43.291C31.4318 43.0404 31.5617 42.7533 31.6482 42.4297C31.7394 42.1016 31.785 41.7529 31.785 41.3838V41.2266C31.785 40.862 31.7394 40.5179 31.6482 40.1943C31.5617 39.8662 31.4295 39.5768 31.2518 39.3262C31.0786 39.071 30.8598 38.8704 30.5955 38.7246C30.3357 38.5788 30.0304 38.5059 29.6795 38.5059C29.3331 38.5059 29.0278 38.5788 28.7635 38.7246C28.5037 38.8704 28.285 39.071 28.1072 39.3262C27.934 39.5768 27.8042 39.8662 27.7176 40.1943C27.631 40.5179 27.5877 40.862 27.5877 41.2266ZM38.4391 37.6035V38.5742H34.44V37.6035H38.4391ZM35.7936 35.8057H37.0582V43.168C37.0582 43.4186 37.0969 43.6077 37.1744 43.7354C37.2519 43.863 37.3521 43.9473 37.4752 43.9883C37.5982 44.0293 37.7304 44.0498 37.8717 44.0498C37.9765 44.0498 38.0859 44.0407 38.1998 44.0225C38.3183 43.9997 38.4072 43.9814 38.4664 43.9678L38.4732 45C38.373 45.0319 38.2408 45.0615 38.0768 45.0889C37.9173 45.1208 37.7236 45.1367 37.4957 45.1367C37.1858 45.1367 36.901 45.0752 36.6412 44.9521C36.3814 44.8291 36.1741 44.624 36.0191 44.3369C35.8687 44.0452 35.7936 43.6533 35.7936 43.1611V35.8057ZM43.6918 45.1367C43.1768 45.1367 42.7097 45.0501 42.2904 44.877C41.8757 44.6992 41.518 44.4508 41.2172 44.1318C40.921 43.8128 40.6931 43.4346 40.5336 42.9971C40.3741 42.5596 40.2943 42.0811 40.2943 41.5615V41.2744C40.2943 40.6729 40.3832 40.1374 40.5609 39.668C40.7387 39.194 40.9802 38.793 41.2855 38.4648C41.5909 38.1367 41.9372 37.8883 42.3246 37.7197C42.712 37.5511 43.113 37.4668 43.5277 37.4668C44.0564 37.4668 44.5121 37.5579 44.8949 37.7402C45.2823 37.9225 45.599 38.1777 45.8451 38.5059C46.0912 38.8294 46.2735 39.2122 46.392 39.6543C46.5105 40.0918 46.5697 40.5703 46.5697 41.0898V41.6572H41.0463V40.625H45.3051V40.5293C45.2868 40.2012 45.2185 39.8822 45.1 39.5723C44.9861 39.2624 44.8038 39.0072 44.5531 38.8066C44.3025 38.6061 43.9607 38.5059 43.5277 38.5059C43.2406 38.5059 42.9763 38.5674 42.7348 38.6904C42.4932 38.8089 42.2859 38.9867 42.1127 39.2236C41.9395 39.4606 41.8051 39.75 41.7094 40.0918C41.6137 40.4336 41.5658 40.8278 41.5658 41.2744V41.5615C41.5658 41.9124 41.6137 42.2428 41.7094 42.5527C41.8096 42.8581 41.9532 43.127 42.14 43.3594C42.3314 43.5918 42.5616 43.7741 42.8305 43.9062C43.1039 44.0384 43.4138 44.1045 43.7602 44.1045C44.2068 44.1045 44.585 44.0133 44.8949 43.8311C45.2048 43.6488 45.476 43.4049 45.7084 43.0996L46.474 43.708C46.3145 43.9495 46.1117 44.1797 45.8656 44.3984C45.6195 44.6172 45.3165 44.7949 44.9564 44.9316C44.601 45.0684 44.1794 45.1367 43.6918 45.1367ZM54.8057 45H53.541V36.8242C53.541 36.291 53.6367 35.8421 53.8281 35.4775C54.0241 35.1084 54.3044 34.8304 54.6689 34.6436C55.0335 34.4521 55.4665 34.3564 55.9678 34.3564C56.1136 34.3564 56.2594 34.3656 56.4053 34.3838C56.5557 34.402 56.7015 34.4294 56.8428 34.4658L56.7744 35.498C56.6787 35.4753 56.5693 35.4593 56.4463 35.4502C56.3278 35.4411 56.2093 35.4365 56.0908 35.4365C55.8219 35.4365 55.5895 35.4912 55.3936 35.6006C55.2021 35.7054 55.0563 35.8604 54.9561 36.0654C54.8558 36.2705 54.8057 36.5234 54.8057 36.8242V45ZM56.3779 37.6035V38.5742H52.3721V37.6035H56.3779ZM58.1512 41.3838V41.2266C58.1512 40.6934 58.2286 40.1989 58.3836 39.7432C58.5385 39.2829 58.7618 38.8841 59.0535 38.5469C59.3452 38.2051 59.6984 37.9408 60.1131 37.7539C60.5278 37.5625 60.9926 37.4668 61.5076 37.4668C62.0271 37.4668 62.4943 37.5625 62.909 37.7539C63.3283 37.9408 63.6837 38.2051 63.9754 38.5469C64.2716 38.8841 64.4972 39.2829 64.6521 39.7432C64.8071 40.1989 64.8846 40.6934 64.8846 41.2266V41.3838C64.8846 41.917 64.8071 42.4115 64.6521 42.8672C64.4972 43.3229 64.2716 43.7217 63.9754 44.0635C63.6837 44.4007 63.3305 44.665 62.9158 44.8564C62.5057 45.0433 62.0408 45.1367 61.5213 45.1367C61.0018 45.1367 60.5346 45.0433 60.1199 44.8564C59.7052 44.665 59.3497 44.4007 59.0535 44.0635C58.7618 43.7217 58.5385 43.3229 58.3836 42.8672C58.2286 42.4115 58.1512 41.917 58.1512 41.3838ZM59.4158 41.2266V41.3838C59.4158 41.7529 59.4591 42.1016 59.5457 42.4297C59.6323 42.7533 59.7622 43.0404 59.9354 43.291C60.1131 43.5417 60.3341 43.7399 60.5984 43.8857C60.8628 44.027 61.1704 44.0977 61.5213 44.0977C61.8676 44.0977 62.1707 44.027 62.4305 43.8857C62.6948 43.7399 62.9135 43.5417 63.0867 43.291C63.2599 43.0404 63.3898 42.7533 63.4764 42.4297C63.5675 42.1016 63.6131 41.7529 63.6131 41.3838V41.2266C63.6131 40.862 63.5675 40.5179 63.4764 40.1943C63.3898 39.8662 63.2576 39.5768 63.0799 39.3262C62.9067 39.071 62.688 38.8704 62.4236 38.7246C62.1639 38.5788 61.8585 38.5059 61.5076 38.5059C61.1613 38.5059 60.8559 38.5788 60.5916 38.7246C60.3318 38.8704 60.1131 39.071 59.9354 39.3262C59.7622 39.5768 59.6323 39.8662 59.5457 40.1943C59.4591 40.5179 59.4158 40.862 59.4158 41.2266ZM68.4352 38.7656V45H67.1705V37.6035H68.401L68.4352 38.7656ZM70.7457 37.5625L70.7389 38.7383C70.6341 38.7155 70.5338 38.7018 70.4381 38.6973C70.3469 38.6882 70.2421 38.6836 70.1236 38.6836C69.832 38.6836 69.5745 38.7292 69.3512 38.8203C69.1279 38.9115 68.9387 39.0391 68.7838 39.2031C68.6288 39.3672 68.5058 39.5632 68.4146 39.791C68.3281 40.0143 68.2711 40.2604 68.2438 40.5293L67.8883 40.7344C67.8883 40.2878 67.9316 39.8685 68.0182 39.4766C68.1093 39.0846 68.2483 38.7383 68.4352 38.4375C68.622 38.1322 68.859 37.8952 69.1461 37.7266C69.4378 37.5534 69.7841 37.4668 70.1852 37.4668C70.2763 37.4668 70.3811 37.4782 70.4996 37.501C70.6181 37.5192 70.7001 37.5397 70.7457 37.5625ZM78.1613 37.6035V45H76.8898V37.6035H78.1613ZM76.7941 35.6416C76.7941 35.4365 76.8557 35.2633 76.9787 35.1221C77.1063 34.9808 77.2932 34.9102 77.5393 34.9102C77.7808 34.9102 77.9654 34.9808 78.093 35.1221C78.2251 35.2633 78.2912 35.4365 78.2912 35.6416C78.2912 35.8376 78.2251 36.0062 78.093 36.1475C77.9654 36.2842 77.7808 36.3525 77.5393 36.3525C77.2932 36.3525 77.1063 36.2842 76.9787 36.1475C76.8557 36.0062 76.7941 35.8376 76.7941 35.6416ZM82.1562 39.1826V45H80.8916V37.6035H82.0879L82.1562 39.1826ZM81.8555 41.0215L81.3291 41.001C81.3337 40.4951 81.4089 40.028 81.5547 39.5996C81.7005 39.1667 81.9056 38.7907 82.1699 38.4717C82.4342 38.1527 82.7487 37.9066 83.1133 37.7334C83.4824 37.5557 83.8903 37.4668 84.3369 37.4668C84.7015 37.4668 85.0296 37.5169 85.3213 37.6172C85.613 37.7129 85.8613 37.8678 86.0664 38.082C86.276 38.2962 86.4355 38.5742 86.5449 38.916C86.6543 39.2533 86.709 39.6657 86.709 40.1533V45H85.4375V40.1396C85.4375 39.7523 85.3805 39.4424 85.2666 39.21C85.1527 38.973 84.9863 38.8021 84.7676 38.6973C84.5488 38.5879 84.2799 38.5332 83.9609 38.5332C83.6465 38.5332 83.3594 38.5993 83.0996 38.7314C82.8444 38.8636 82.6234 39.0459 82.4365 39.2783C82.2542 39.5107 82.1107 39.7773 82.0059 40.0781C81.9056 40.3743 81.8555 40.6888 81.8555 41.0215ZM93.6365 43.0381C93.6365 42.8558 93.5955 42.6872 93.5135 42.5322C93.436 42.3727 93.2742 42.2292 93.0281 42.1016C92.7866 41.9694 92.422 41.8555 91.9344 41.7598C91.5242 41.6732 91.1528 41.5706 90.8201 41.4521C90.492 41.3337 90.2117 41.1901 89.9793 41.0215C89.7514 40.8529 89.576 40.6546 89.4529 40.4268C89.3299 40.1989 89.2684 39.9323 89.2684 39.627C89.2684 39.3353 89.3322 39.0596 89.4598 38.7998C89.5919 38.54 89.7765 38.3099 90.0135 38.1094C90.255 37.9089 90.5444 37.7516 90.8816 37.6377C91.2189 37.5238 91.5949 37.4668 92.0096 37.4668C92.602 37.4668 93.1079 37.5716 93.5271 37.7812C93.9464 37.9909 94.2677 38.2712 94.491 38.6221C94.7143 38.9684 94.826 39.3535 94.826 39.7773H93.5613C93.5613 39.5723 93.4998 39.374 93.3768 39.1826C93.2583 38.9867 93.0828 38.8249 92.8504 38.6973C92.6225 38.5697 92.3422 38.5059 92.0096 38.5059C91.6587 38.5059 91.3738 38.5605 91.1551 38.6699C90.9409 38.7747 90.7837 38.9092 90.6834 39.0732C90.5877 39.2373 90.5398 39.4105 90.5398 39.5928C90.5398 39.7295 90.5626 39.8525 90.6082 39.9619C90.6583 40.0667 90.7449 40.1647 90.868 40.2559C90.991 40.3424 91.1642 40.4245 91.3875 40.502C91.6108 40.5794 91.8956 40.6569 92.242 40.7344C92.8481 40.8711 93.3471 41.0352 93.7391 41.2266C94.131 41.418 94.4227 41.6527 94.6141 41.9307C94.8055 42.2087 94.9012 42.5459 94.9012 42.9424C94.9012 43.266 94.8328 43.5622 94.6961 43.8311C94.5639 44.0999 94.3702 44.3324 94.115 44.5283C93.8644 44.7197 93.5636 44.8701 93.2127 44.9795C92.8663 45.0843 92.4767 45.1367 92.0437 45.1367C91.3921 45.1367 90.8406 45.0205 90.3895 44.7881C89.9383 44.5557 89.5965 44.2549 89.3641 43.8857C89.1316 43.5166 89.0154 43.127 89.0154 42.7168H90.2869C90.3051 43.0632 90.4054 43.3389 90.5877 43.5439C90.77 43.7445 90.9933 43.888 91.2576 43.9746C91.5219 44.0566 91.784 44.0977 92.0437 44.0977C92.3901 44.0977 92.6795 44.0521 92.9119 43.9609C93.1489 43.8698 93.3289 43.7445 93.452 43.585C93.575 43.4255 93.6365 43.2432 93.6365 43.0381ZM100.359 37.6035V38.5742H96.36V37.6035H100.359ZM97.7135 35.8057H98.9781V43.168C98.9781 43.4186 99.0169 43.6077 99.0943 43.7354C99.1718 43.863 99.2721 43.9473 99.3951 43.9883C99.5182 44.0293 99.6503 44.0498 99.7916 44.0498C99.8964 44.0498 100.006 44.0407 100.12 44.0225C100.238 43.9997 100.327 43.9814 100.386 43.9678L100.393 45C100.293 45.0319 100.161 45.0615 99.9967 45.0889C99.8372 45.1208 99.6435 45.1367 99.4156 45.1367C99.1057 45.1367 98.8209 45.0752 98.5611 44.9521C98.3014 44.8291 98.094 44.624 97.9391 44.3369C97.7887 44.0452 97.7135 43.6533 97.7135 43.1611V35.8057ZM103.807 38.7656V45H102.542V37.6035H103.773L103.807 38.7656ZM106.118 37.5625L106.111 38.7383C106.006 38.7155 105.906 38.7018 105.81 38.6973C105.719 38.6882 105.614 38.6836 105.496 38.6836C105.204 38.6836 104.946 38.7292 104.723 38.8203C104.5 38.9115 104.311 39.0391 104.156 39.2031C104.001 39.3672 103.878 39.5632 103.787 39.791C103.7 40.0143 103.643 40.2604 103.616 40.5293L103.26 40.7344C103.26 40.2878 103.303 39.8685 103.39 39.4766C103.481 39.0846 103.62 38.7383 103.807 38.4375C103.994 38.1322 104.231 37.8952 104.518 37.7266C104.81 37.5534 105.156 37.4668 105.557 37.4668C105.648 37.4668 105.753 37.4782 105.871 37.501C105.99 37.5192 106.072 37.5397 106.118 37.5625ZM112.512 43.291V37.6035H113.783V45H112.573L112.512 43.291ZM112.751 41.7324L113.278 41.7188C113.278 42.2109 113.225 42.6667 113.12 43.0859C113.02 43.5007 112.856 43.8607 112.628 44.166C112.4 44.4714 112.102 44.7106 111.733 44.8838C111.363 45.0524 110.915 45.1367 110.386 45.1367C110.026 45.1367 109.696 45.0843 109.395 44.9795C109.099 44.8747 108.843 44.7129 108.629 44.4941C108.415 44.2754 108.249 43.9906 108.13 43.6396C108.016 43.2887 107.959 42.8672 107.959 42.375V37.6035H109.224V42.3887C109.224 42.7214 109.26 42.9971 109.333 43.2158C109.411 43.43 109.513 43.6009 109.641 43.7285C109.773 43.8516 109.919 43.9382 110.078 43.9883C110.242 44.0384 110.411 44.0635 110.584 44.0635C111.122 44.0635 111.548 43.9609 111.863 43.7559C112.177 43.5462 112.403 43.266 112.539 42.915C112.681 42.5596 112.751 42.1654 112.751 41.7324ZM119.371 44.0977C119.672 44.0977 119.95 44.0361 120.205 43.9131C120.46 43.79 120.67 43.6214 120.834 43.4072C120.998 43.1885 121.091 42.9401 121.114 42.6621H122.317C122.295 43.0996 122.146 43.5075 121.873 43.8857C121.604 44.2594 121.251 44.5625 120.813 44.7949C120.376 45.0228 119.895 45.1367 119.371 45.1367C118.815 45.1367 118.33 45.0387 117.915 44.8428C117.505 44.6468 117.163 44.3779 116.89 44.0361C116.621 43.6943 116.418 43.3024 116.281 42.8604C116.149 42.4137 116.083 41.9421 116.083 41.4453V41.1582C116.083 40.6615 116.149 40.1921 116.281 39.75C116.418 39.3034 116.621 38.9092 116.89 38.5674C117.163 38.2256 117.505 37.9567 117.915 37.7607C118.33 37.5648 118.815 37.4668 119.371 37.4668C119.95 37.4668 120.456 37.5853 120.889 37.8223C121.322 38.0547 121.661 38.3737 121.907 38.7793C122.158 39.1803 122.295 39.6361 122.317 40.1465H121.114C121.091 39.8411 121.005 39.5654 120.854 39.3193C120.709 39.0732 120.508 38.8773 120.253 38.7314C120.002 38.5811 119.708 38.5059 119.371 38.5059C118.984 38.5059 118.658 38.5833 118.394 38.7383C118.134 38.8887 117.926 39.0938 117.771 39.3535C117.621 39.6087 117.512 39.8936 117.443 40.208C117.38 40.5179 117.348 40.8346 117.348 41.1582V41.4453C117.348 41.7689 117.38 42.0879 117.443 42.4023C117.507 42.7168 117.614 43.0016 117.765 43.2568C117.92 43.512 118.127 43.7171 118.387 43.8721C118.651 44.0225 118.979 44.0977 119.371 44.0977ZM127.536 37.6035V38.5742H123.537V37.6035H127.536ZM124.89 35.8057H126.155V43.168C126.155 43.4186 126.194 43.6077 126.271 43.7354C126.349 43.863 126.449 43.9473 126.572 43.9883C126.695 44.0293 126.827 44.0498 126.969 44.0498C127.073 44.0498 127.183 44.0407 127.297 44.0225C127.415 43.9997 127.504 43.9814 127.563 43.9678L127.57 45C127.47 45.0319 127.338 45.0615 127.174 45.0889C127.014 45.1208 126.82 45.1367 126.593 45.1367C126.283 45.1367 125.998 45.0752 125.738 44.9521C125.478 44.8291 125.271 44.624 125.116 44.3369C124.966 44.0452 124.89 43.6533 124.89 43.1611V35.8057ZM131.093 37.6035V45H129.822V37.6035H131.093ZM129.726 35.6416C129.726 35.4365 129.788 35.2633 129.911 35.1221C130.038 34.9808 130.225 34.9102 130.471 34.9102C130.713 34.9102 130.897 34.9808 131.025 35.1221C131.157 35.2633 131.223 35.4365 131.223 35.6416C131.223 35.8376 131.157 36.0062 131.025 36.1475C130.897 36.2842 130.713 36.3525 130.471 36.3525C130.225 36.3525 130.038 36.2842 129.911 36.1475C129.788 36.0062 129.726 35.8376 129.726 35.6416ZM133.489 41.3838V41.2266C133.489 40.6934 133.566 40.1989 133.721 39.7432C133.876 39.2829 134.099 38.8841 134.391 38.5469C134.683 38.2051 135.036 37.9408 135.451 37.7539C135.865 37.5625 136.33 37.4668 136.845 37.4668C137.365 37.4668 137.832 37.5625 138.246 37.7539C138.666 37.9408 139.021 38.2051 139.313 38.5469C139.609 38.8841 139.835 39.2829 139.99 39.7432C140.145 40.1989 140.222 40.6934 140.222 41.2266V41.3838C140.222 41.917 140.145 42.4115 139.99 42.8672C139.835 43.3229 139.609 43.7217 139.313 44.0635C139.021 44.4007 138.668 44.665 138.253 44.8564C137.843 45.0433 137.378 45.1367 136.859 45.1367C136.339 45.1367 135.872 45.0433 135.457 44.8564C135.043 44.665 134.687 44.4007 134.391 44.0635C134.099 43.7217 133.876 43.3229 133.721 42.8672C133.566 42.4115 133.489 41.917 133.489 41.3838ZM134.753 41.2266V41.3838C134.753 41.7529 134.797 42.1016 134.883 42.4297C134.97 42.7533 135.1 43.0404 135.273 43.291C135.451 43.5417 135.672 43.7399 135.936 43.8857C136.2 44.027 136.508 44.0977 136.859 44.0977C137.205 44.0977 137.508 44.027 137.768 43.8857C138.032 43.7399 138.251 43.5417 138.424 43.291C138.597 43.0404 138.727 42.7533 138.814 42.4297C138.905 42.1016 138.951 41.7529 138.951 41.3838V41.2266C138.951 40.862 138.905 40.5179 138.814 40.1943C138.727 39.8662 138.595 39.5768 138.417 39.3262C138.244 39.071 138.025 38.8704 137.761 38.7246C137.501 38.5788 137.196 38.5059 136.845 38.5059C136.499 38.5059 136.193 38.5788 135.929 38.7246C135.669 38.8704 135.451 39.071 135.273 39.3262C135.1 39.5768 134.97 39.8662 134.883 40.1943C134.797 40.5179 134.753 40.862 134.753 41.2266ZM143.773 39.1826V45H142.508V37.6035H143.704L143.773 39.1826ZM143.472 41.0215L142.946 41.001C142.95 40.4951 143.025 40.028 143.171 39.5996C143.317 39.1667 143.522 38.7907 143.786 38.4717C144.051 38.1527 144.365 37.9066 144.73 37.7334C145.099 37.5557 145.507 37.4668 145.953 37.4668C146.318 37.4668 146.646 37.5169 146.938 37.6172C147.229 37.7129 147.478 37.8678 147.683 38.082C147.892 38.2962 148.052 38.5742 148.161 38.916C148.271 39.2533 148.325 39.6657 148.325 40.1533V45H147.054V40.1396C147.054 39.7523 146.997 39.4424 146.883 39.21C146.769 38.973 146.603 38.8021 146.384 38.6973C146.165 38.5879 145.896 38.5332 145.577 38.5332C145.263 38.5332 144.976 38.5993 144.716 38.7314C144.461 38.8636 144.24 39.0459 144.053 39.2783C143.871 39.5107 143.727 39.7773 143.622 40.0781C143.522 40.3743 143.472 40.6888 143.472 41.0215ZM155.253 43.0381C155.253 42.8558 155.212 42.6872 155.13 42.5322C155.052 42.3727 154.891 42.2292 154.645 42.1016C154.403 41.9694 154.038 41.8555 153.551 41.7598C153.141 41.6732 152.769 41.5706 152.437 41.4521C152.108 41.3337 151.828 41.1901 151.596 41.0215C151.368 40.8529 151.192 40.6546 151.069 40.4268C150.946 40.1989 150.885 39.9323 150.885 39.627C150.885 39.3353 150.949 39.0596 151.076 38.7998C151.208 38.54 151.393 38.3099 151.63 38.1094C151.871 37.9089 152.161 37.7516 152.498 37.6377C152.835 37.5238 153.211 37.4668 153.626 37.4668C154.218 37.4668 154.724 37.5716 155.144 37.7812C155.563 37.9909 155.884 38.2712 156.107 38.6221C156.331 38.9684 156.442 39.3535 156.442 39.7773H155.178C155.178 39.5723 155.116 39.374 154.993 39.1826C154.875 38.9867 154.699 38.8249 154.467 38.6973C154.239 38.5697 153.959 38.5059 153.626 38.5059C153.275 38.5059 152.99 38.5605 152.771 38.6699C152.557 38.7747 152.4 38.9092 152.3 39.0732C152.204 39.2373 152.156 39.4105 152.156 39.5928C152.156 39.7295 152.179 39.8525 152.225 39.9619C152.275 40.0667 152.361 40.1647 152.484 40.2559C152.607 40.3424 152.781 40.4245 153.004 40.502C153.227 40.5794 153.512 40.6569 153.858 40.7344C154.465 40.8711 154.964 41.0352 155.355 41.2266C155.747 41.418 156.039 41.6527 156.23 41.9307C156.422 42.2087 156.518 42.5459 156.518 42.9424C156.518 43.266 156.449 43.5622 156.312 43.8311C156.18 44.0999 155.987 44.3324 155.731 44.5283C155.481 44.7197 155.18 44.8701 154.829 44.9795C154.483 45.0843 154.093 45.1367 153.66 45.1367C153.008 45.1367 152.457 45.0205 152.006 44.7881C151.555 44.5557 151.213 44.2549 150.98 43.8857C150.748 43.5166 150.632 43.127 150.632 42.7168H151.903C151.922 43.0632 152.022 43.3389 152.204 43.5439C152.386 43.7445 152.61 43.888 152.874 43.9746C153.138 44.0566 153.4 44.0977 153.66 44.0977C154.007 44.0977 154.296 44.0521 154.528 43.9609C154.765 43.8698 154.945 43.7445 155.068 43.585C155.191 43.4255 155.253 43.2432 155.253 43.0381Z" fill="#20454B"/>
<path d="M28.3477 61.4688H29.4434L32.2383 68.4238L35.0273 61.4688H36.1289L32.6602 70H31.8047L28.3477 61.4688ZM27.9902 61.4688H28.957L29.1152 66.6719V70H27.9902V61.4688ZM35.5137 61.4688H36.4805V70H35.3555V66.6719L35.5137 61.4688ZM42.641 68.916V65.6523C42.641 65.4023 42.5902 65.1855 42.4887 65.002C42.391 64.8145 42.2426 64.6699 42.0434 64.5684C41.8441 64.4668 41.598 64.416 41.3051 64.416C41.0316 64.416 40.7914 64.4629 40.5844 64.5566C40.3813 64.6504 40.2211 64.7734 40.1039 64.9258C39.9906 65.0781 39.934 65.2422 39.934 65.418H38.85C38.85 65.1914 38.9086 64.9668 39.0258 64.7441C39.143 64.5215 39.3109 64.3203 39.5297 64.1406C39.7523 63.957 40.018 63.8125 40.3266 63.707C40.6391 63.5977 40.9867 63.543 41.3695 63.543C41.8305 63.543 42.2367 63.6211 42.5883 63.7773C42.9438 63.9336 43.2211 64.1699 43.4203 64.4863C43.6234 64.7988 43.725 65.1914 43.725 65.6641V68.6172C43.725 68.8281 43.7426 69.0527 43.7777 69.291C43.8168 69.5293 43.8734 69.7344 43.9477 69.9062V70H42.8168C42.7621 69.875 42.7191 69.709 42.6879 69.502C42.6566 69.291 42.641 69.0957 42.641 68.916ZM42.8285 66.1562L42.8402 66.918H41.7445C41.4359 66.918 41.1605 66.9434 40.9184 66.9941C40.6762 67.041 40.473 67.1133 40.309 67.2109C40.1449 67.3086 40.0199 67.4316 39.934 67.5801C39.848 67.7246 39.8051 67.8945 39.8051 68.0898C39.8051 68.2891 39.85 68.4707 39.9398 68.6348C40.0297 68.7988 40.1645 68.9297 40.3441 69.0273C40.5277 69.1211 40.7523 69.168 41.018 69.168C41.35 69.168 41.643 69.0977 41.8969 68.957C42.1508 68.8164 42.352 68.6445 42.5004 68.4414C42.6527 68.2383 42.7348 68.041 42.7465 67.8496L43.2094 68.3711C43.182 68.5352 43.1078 68.7168 42.9867 68.916C42.8656 69.1152 42.7035 69.3066 42.5004 69.4902C42.3012 69.6699 42.0629 69.8203 41.7855 69.9414C41.5121 70.0586 41.2035 70.1172 40.8598 70.1172C40.4301 70.1172 40.0531 70.0332 39.7289 69.8652C39.4086 69.6973 39.1586 69.4727 38.9789 69.1914C38.8031 68.9062 38.7152 68.5879 38.7152 68.2363C38.7152 67.8965 38.7816 67.5977 38.9145 67.3398C39.0473 67.0781 39.2387 66.8613 39.4887 66.6895C39.7387 66.5137 40.0395 66.3809 40.391 66.291C40.7426 66.2012 41.1352 66.1562 41.5688 66.1562H42.8285ZM47.1199 61V70H46.0301V61H47.1199ZM50.993 63.6602L48.2273 66.6191L46.6805 68.2246L46.5926 67.0703L47.7 65.7461L49.6688 63.6602H50.993ZM50.0027 70L47.741 66.9766L48.3035 66.0098L51.2801 70H50.0027ZM55.2258 70.1172C54.7844 70.1172 54.384 70.043 54.0246 69.8945C53.6691 69.7422 53.3625 69.5293 53.1047 69.2559C52.8508 68.9824 52.6555 68.6582 52.5187 68.2832C52.382 67.9082 52.3137 67.498 52.3137 67.0527V66.8066C52.3137 66.291 52.3898 65.832 52.5422 65.4297C52.6945 65.0234 52.9016 64.6797 53.1633 64.3984C53.425 64.1172 53.7219 63.9043 54.0539 63.7598C54.3859 63.6152 54.7297 63.543 55.0852 63.543C55.5383 63.543 55.9289 63.6211 56.257 63.7773C56.5891 63.9336 56.8605 64.1523 57.0715 64.4336C57.2824 64.7109 57.4387 65.0391 57.5402 65.418C57.6418 65.793 57.6926 66.2031 57.6926 66.6484V67.1348H52.9582V66.25H56.6086V66.168C56.593 65.8867 56.5344 65.6133 56.4328 65.3477C56.3352 65.082 56.1789 64.8633 55.9641 64.6914C55.7492 64.5195 55.4562 64.4336 55.0852 64.4336C54.8391 64.4336 54.6125 64.4863 54.4055 64.5918C54.1984 64.6934 54.0207 64.8457 53.8723 65.0488C53.7238 65.252 53.6086 65.5 53.5266 65.793C53.4445 66.0859 53.4035 66.4238 53.4035 66.8066V67.0527C53.4035 67.3535 53.4445 67.6367 53.5266 67.9023C53.6125 68.1641 53.7355 68.3945 53.8957 68.5938C54.0598 68.793 54.257 68.9492 54.4875 69.0625C54.7219 69.1758 54.9875 69.2324 55.2844 69.2324C55.6672 69.2324 55.9914 69.1543 56.257 68.998C56.5227 68.8418 56.7551 68.6328 56.9543 68.3711L57.6105 68.8926C57.4738 69.0996 57.3 69.2969 57.0891 69.4844C56.8781 69.6719 56.6184 69.8242 56.3098 69.9414C56.0051 70.0586 55.6437 70.1172 55.2258 70.1172ZM64.2129 64.9199V70H63.123V63.6602H64.1543L64.2129 64.9199ZM63.9902 66.5898L63.4863 66.5723C63.4902 66.1387 63.5469 65.7383 63.6562 65.3711C63.7656 65 63.9277 64.6777 64.1426 64.4043C64.3574 64.1309 64.625 63.9199 64.9453 63.7715C65.2656 63.6191 65.6367 63.543 66.0586 63.543C66.3555 63.543 66.6289 63.5859 66.8789 63.6719C67.1289 63.7539 67.3457 63.8848 67.5293 64.0645C67.7129 64.2441 67.8555 64.4746 67.957 64.7559C68.0586 65.0371 68.1094 65.377 68.1094 65.7754V70H67.0254V65.8281C67.0254 65.4961 66.9688 65.2305 66.8555 65.0312C66.7461 64.832 66.5898 64.6875 66.3867 64.5977C66.1836 64.5039 65.9453 64.457 65.6719 64.457C65.3516 64.457 65.084 64.5137 64.8691 64.627C64.6543 64.7402 64.4824 64.8965 64.3535 65.0957C64.2246 65.2949 64.1309 65.5234 64.0723 65.7812C64.0176 66.0352 63.9902 66.3047 63.9902 66.5898ZM68.0977 65.9922L67.3711 66.2148C67.375 65.8672 67.4316 65.5332 67.541 65.2129C67.6543 64.8926 67.8164 64.6074 68.0273 64.3574C68.2422 64.1074 68.5059 63.9102 68.8184 63.7656C69.1309 63.6172 69.4883 63.543 69.8906 63.543C70.2305 63.543 70.5312 63.5879 70.793 63.6777C71.0586 63.7676 71.2812 63.9062 71.4609 64.0938C71.6445 64.2773 71.7832 64.5137 71.877 64.8027C71.9707 65.0918 72.0176 65.4355 72.0176 65.834V70H70.9277V65.8223C70.9277 65.4668 70.8711 65.1914 70.7578 64.9961C70.6484 64.7969 70.4922 64.6582 70.2891 64.5801C70.0898 64.498 69.8516 64.457 69.5742 64.457C69.3359 64.457 69.125 64.498 68.9414 64.5801C68.7578 64.6621 68.6035 64.7754 68.4785 64.9199C68.3535 65.0605 68.2578 65.2227 68.1914 65.4062C68.1289 65.5898 68.0977 65.7852 68.0977 65.9922ZM76.8891 70.1172C76.4477 70.1172 76.0473 70.043 75.6879 69.8945C75.3324 69.7422 75.0258 69.5293 74.768 69.2559C74.5141 68.9824 74.3187 68.6582 74.182 68.2832C74.0453 67.9082 73.977 67.498 73.977 67.0527V66.8066C73.977 66.291 74.0531 65.832 74.2055 65.4297C74.3578 65.0234 74.5648 64.6797 74.8266 64.3984C75.0883 64.1172 75.3852 63.9043 75.7172 63.7598C76.0492 63.6152 76.393 63.543 76.7484 63.543C77.2016 63.543 77.5922 63.6211 77.9203 63.7773C78.2523 63.9336 78.5238 64.1523 78.7348 64.4336C78.9457 64.7109 79.102 65.0391 79.2035 65.418C79.3051 65.793 79.3559 66.2031 79.3559 66.6484V67.1348H74.6215V66.25H78.2719V66.168C78.2562 65.8867 78.1977 65.6133 78.0961 65.3477C77.9984 65.082 77.8422 64.8633 77.6273 64.6914C77.4125 64.5195 77.1195 64.4336 76.7484 64.4336C76.5023 64.4336 76.2758 64.4863 76.0687 64.5918C75.8617 64.6934 75.684 64.8457 75.5355 65.0488C75.3871 65.252 75.2719 65.5 75.1898 65.793C75.1078 66.0859 75.0668 66.4238 75.0668 66.8066V67.0527C75.0668 67.3535 75.1078 67.6367 75.1898 67.9023C75.2758 68.1641 75.3988 68.3945 75.559 68.5938C75.723 68.793 75.9203 68.9492 76.1508 69.0625C76.3852 69.1758 76.6508 69.2324 76.9477 69.2324C77.3305 69.2324 77.6547 69.1543 77.9203 68.998C78.1859 68.8418 78.4184 68.6328 78.6176 68.3711L79.2738 68.8926C79.1371 69.0996 78.9633 69.2969 78.7523 69.4844C78.5414 69.6719 78.2816 69.8242 77.973 69.9414C77.6684 70.0586 77.307 70.1172 76.8891 70.1172ZM85.8762 64.9199V70H84.7863V63.6602H85.8176L85.8762 64.9199ZM85.6535 66.5898L85.1496 66.5723C85.1535 66.1387 85.2102 65.7383 85.3195 65.3711C85.4289 65 85.591 64.6777 85.8059 64.4043C86.0207 64.1309 86.2883 63.9199 86.6086 63.7715C86.9289 63.6191 87.3 63.543 87.7219 63.543C88.0187 63.543 88.2922 63.5859 88.5422 63.6719C88.7922 63.7539 89.009 63.8848 89.1926 64.0645C89.3762 64.2441 89.5187 64.4746 89.6203 64.7559C89.7219 65.0371 89.7727 65.377 89.7727 65.7754V70H88.6887V65.8281C88.6887 65.4961 88.632 65.2305 88.5187 65.0312C88.4094 64.832 88.2531 64.6875 88.05 64.5977C87.8469 64.5039 87.6086 64.457 87.3352 64.457C87.0148 64.457 86.7473 64.5137 86.5324 64.627C86.3176 64.7402 86.1457 64.8965 86.0168 65.0957C85.8879 65.2949 85.7941 65.5234 85.7355 65.7812C85.6809 66.0352 85.6535 66.3047 85.6535 66.5898ZM89.7609 65.9922L89.0344 66.2148C89.0383 65.8672 89.0949 65.5332 89.2043 65.2129C89.3176 64.8926 89.4797 64.6074 89.6906 64.3574C89.9055 64.1074 90.1691 63.9102 90.4816 63.7656C90.7941 63.6172 91.1516 63.543 91.5539 63.543C91.8937 63.543 92.1945 63.5879 92.4562 63.6777C92.7219 63.7676 92.9445 63.9062 93.1242 64.0938C93.3078 64.2773 93.4465 64.5137 93.5402 64.8027C93.634 65.0918 93.6809 65.4355 93.6809 65.834V70H92.591V65.8223C92.591 65.4668 92.5344 65.1914 92.4211 64.9961C92.3117 64.7969 92.1555 64.6582 91.9523 64.5801C91.7531 64.498 91.5148 64.457 91.2375 64.457C90.9992 64.457 90.7883 64.498 90.6047 64.5801C90.4211 64.6621 90.2668 64.7754 90.1418 64.9199C90.0168 65.0605 89.9211 65.2227 89.8547 65.4062C89.7922 65.5898 89.7609 65.7852 89.7609 65.9922ZM95.6344 66.9004V66.7656C95.6344 66.3086 95.7008 65.8848 95.8336 65.4941C95.9664 65.0996 96.1578 64.7578 96.4078 64.4688C96.6578 64.1758 96.9605 63.9492 97.316 63.7891C97.6715 63.625 98.0699 63.543 98.5113 63.543C98.9566 63.543 99.357 63.625 99.7125 63.7891C100.072 63.9492 100.377 64.1758 100.627 64.4688C100.88 64.7578 101.074 65.0996 101.207 65.4941C101.339 65.8848 101.406 66.3086 101.406 66.7656V66.9004C101.406 67.3574 101.339 67.7812 101.207 68.1719C101.074 68.5625 100.88 68.9043 100.627 69.1973C100.377 69.4863 100.074 69.7129 99.7184 69.877C99.3668 70.0371 98.9684 70.1172 98.523 70.1172C98.0777 70.1172 97.6773 70.0371 97.3219 69.877C96.9664 69.7129 96.6617 69.4863 96.4078 69.1973C96.1578 68.9043 95.9664 68.5625 95.8336 68.1719C95.7008 67.7812 95.6344 67.3574 95.6344 66.9004ZM96.7184 66.7656V66.9004C96.7184 67.2168 96.7555 67.5156 96.8297 67.7969C96.9039 68.0742 97.0152 68.3203 97.1637 68.5352C97.316 68.75 97.5055 68.9199 97.732 69.0449C97.9586 69.166 98.2223 69.2266 98.523 69.2266C98.8199 69.2266 99.0797 69.166 99.3023 69.0449C99.5289 68.9199 99.7164 68.75 99.8648 68.5352C100.013 68.3203 100.125 68.0742 100.199 67.7969C100.277 67.5156 100.316 67.2168 100.316 66.9004V66.7656C100.316 66.4531 100.277 66.1582 100.199 65.8809C100.125 65.5996 100.011 65.3516 99.859 65.1367C99.7105 64.918 99.523 64.7461 99.2965 64.6211C99.0738 64.4961 98.8121 64.4336 98.5113 64.4336C98.2145 64.4336 97.9527 64.4961 97.7262 64.6211C97.5035 64.7461 97.316 64.918 97.1637 65.1367C97.0152 65.3516 96.9039 65.5996 96.8297 65.8809C96.7555 66.1582 96.7184 66.4531 96.7184 66.7656ZM104.449 64.6562V70H103.365V63.6602H104.42L104.449 64.6562ZM106.43 63.625L106.424 64.6328C106.334 64.6133 106.248 64.6016 106.166 64.5977C106.088 64.5898 105.998 64.5859 105.896 64.5859C105.646 64.5859 105.426 64.625 105.234 64.7031C105.043 64.7812 104.881 64.8906 104.748 65.0312C104.615 65.1719 104.51 65.3398 104.432 65.5352C104.357 65.7266 104.309 65.9375 104.285 66.168L103.98 66.3438C103.98 65.9609 104.018 65.6016 104.092 65.2656C104.17 64.9297 104.289 64.6328 104.449 64.375C104.609 64.1133 104.812 63.9102 105.059 63.7656C105.309 63.6172 105.605 63.543 105.949 63.543C106.027 63.543 106.117 63.5527 106.219 63.5723C106.32 63.5879 106.391 63.6055 106.43 63.625ZM110.545 70.1172C110.104 70.1172 109.704 70.043 109.344 69.8945C108.989 69.7422 108.682 69.5293 108.424 69.2559C108.17 68.9824 107.975 68.6582 107.838 68.2832C107.702 67.9082 107.633 67.498 107.633 67.0527V66.8066C107.633 66.291 107.709 65.832 107.862 65.4297C108.014 65.0234 108.221 64.6797 108.483 64.3984C108.745 64.1172 109.041 63.9043 109.373 63.7598C109.705 63.6152 110.049 63.543 110.405 63.543C110.858 63.543 111.248 63.6211 111.577 63.7773C111.909 63.9336 112.18 64.1523 112.391 64.4336C112.602 64.7109 112.758 65.0391 112.86 65.418C112.961 65.793 113.012 66.2031 113.012 66.6484V67.1348H108.278V66.25H111.928V66.168C111.912 65.8867 111.854 65.6133 111.752 65.3477C111.655 65.082 111.498 64.8633 111.284 64.6914C111.069 64.5195 110.776 64.4336 110.405 64.4336C110.159 64.4336 109.932 64.4863 109.725 64.5918C109.518 64.6934 109.34 64.8457 109.192 65.0488C109.043 65.252 108.928 65.5 108.846 65.793C108.764 66.0859 108.723 66.4238 108.723 66.8066V67.0527C108.723 67.3535 108.764 67.6367 108.846 67.9023C108.932 68.1641 109.055 68.3945 109.215 68.5938C109.379 68.793 109.577 68.9492 109.807 69.0625C110.041 69.1758 110.307 69.2324 110.604 69.2324C110.987 69.2324 111.311 69.1543 111.577 68.998C111.842 68.8418 112.075 68.6328 112.274 68.3711L112.93 68.8926C112.793 69.0996 112.62 69.2969 112.409 69.4844C112.198 69.6719 111.938 69.8242 111.629 69.9414C111.325 70.0586 110.963 70.1172 110.545 70.1172ZM120.071 70H118.988V62.9922C118.988 62.5352 119.07 62.1504 119.234 61.8379C119.402 61.5215 119.642 61.2832 119.954 61.123C120.267 60.959 120.638 60.877 121.068 60.877C121.193 60.877 121.318 60.8848 121.443 60.9004C121.571 60.916 121.696 60.9395 121.818 60.9707L121.759 61.8555C121.677 61.8359 121.583 61.8223 121.478 61.8145C121.376 61.8066 121.275 61.8027 121.173 61.8027C120.943 61.8027 120.743 61.8496 120.575 61.9434C120.411 62.0332 120.286 62.166 120.2 62.3418C120.114 62.5176 120.071 62.7344 120.071 62.9922V70ZM121.419 63.6602V64.4922H117.986V63.6602H121.419ZM126.964 68.916V65.6523C126.964 65.4023 126.914 65.1855 126.812 65.002C126.714 64.8145 126.566 64.6699 126.367 64.5684C126.168 64.4668 125.921 64.416 125.629 64.416C125.355 64.416 125.115 64.4629 124.908 64.5566C124.705 64.6504 124.545 64.7734 124.427 64.9258C124.314 65.0781 124.257 65.2422 124.257 65.418H123.173C123.173 65.1914 123.232 64.9668 123.349 64.7441C123.466 64.5215 123.634 64.3203 123.853 64.1406C124.076 63.957 124.341 63.8125 124.65 63.707C124.963 63.5977 125.31 63.543 125.693 63.543C126.154 63.543 126.56 63.6211 126.912 63.7773C127.267 63.9336 127.545 64.1699 127.744 64.4863C127.947 64.7988 128.048 65.1914 128.048 65.6641V68.6172C128.048 68.8281 128.066 69.0527 128.101 69.291C128.14 69.5293 128.197 69.7344 128.271 69.9062V70H127.14C127.086 69.875 127.043 69.709 127.011 69.502C126.98 69.291 126.964 69.0957 126.964 68.916ZM127.152 66.1562L127.164 66.918H126.068C125.759 66.918 125.484 66.9434 125.242 66.9941C125 67.041 124.796 67.1133 124.632 67.2109C124.468 67.3086 124.343 67.4316 124.257 67.5801C124.171 67.7246 124.129 67.8945 124.129 68.0898C124.129 68.2891 124.173 68.4707 124.263 68.6348C124.353 68.7988 124.488 68.9297 124.668 69.0273C124.851 69.1211 125.076 69.168 125.341 69.168C125.673 69.168 125.966 69.0977 126.22 68.957C126.474 68.8164 126.675 68.6445 126.824 68.4414C126.976 68.2383 127.058 68.041 127.07 67.8496L127.533 68.3711C127.505 68.5352 127.431 68.7168 127.31 68.916C127.189 69.1152 127.027 69.3066 126.824 69.4902C126.625 69.6699 126.386 69.8203 126.109 69.9414C125.836 70.0586 125.527 70.1172 125.183 70.1172C124.754 70.1172 124.377 70.0332 124.052 69.8652C123.732 69.6973 123.482 69.4727 123.302 69.1914C123.127 68.9062 123.039 68.5879 123.039 68.2363C123.039 67.8965 123.105 67.5977 123.238 67.3398C123.371 67.0781 123.562 66.8613 123.812 66.6895C124.062 66.5137 124.363 66.3809 124.714 66.291C125.066 66.2012 125.459 66.1562 125.892 66.1562H127.152ZM131.531 63.6602V70H130.441V63.6602H131.531ZM130.359 61.9785C130.359 61.8027 130.412 61.6543 130.518 61.5332C130.627 61.4121 130.787 61.3516 130.998 61.3516C131.205 61.3516 131.363 61.4121 131.473 61.5332C131.586 61.6543 131.643 61.8027 131.643 61.9785C131.643 62.1465 131.586 62.291 131.473 62.4121C131.363 62.5293 131.205 62.5879 130.998 62.5879C130.787 62.5879 130.627 62.5293 130.518 62.4121C130.412 62.291 130.359 62.1465 130.359 61.9785ZM134.955 64.6562V70H133.871V63.6602H134.926L134.955 64.6562ZM136.936 63.625L136.93 64.6328C136.84 64.6133 136.754 64.6016 136.672 64.5977C136.594 64.5898 136.504 64.5859 136.403 64.5859C136.153 64.5859 135.932 64.625 135.741 64.7031C135.549 64.7812 135.387 64.8906 135.254 65.0312C135.121 65.1719 135.016 65.3398 134.938 65.5352C134.864 65.7266 134.815 65.9375 134.791 66.168L134.487 66.3438C134.487 65.9609 134.524 65.6016 134.598 65.2656C134.676 64.9297 134.795 64.6328 134.955 64.375C135.116 64.1133 135.319 63.9102 135.565 63.7656C135.815 63.6172 136.112 63.543 136.455 63.543C136.534 63.543 136.623 63.5527 136.725 63.5723C136.827 63.5879 136.897 63.6055 136.936 63.625ZM145.853 68.916V65.6523C145.853 65.4023 145.802 65.1855 145.7 65.002C145.603 64.8145 145.454 64.6699 145.255 64.5684C145.056 64.4668 144.81 64.416 144.517 64.416C144.243 64.416 144.003 64.4629 143.796 64.5566C143.593 64.6504 143.433 64.7734 143.316 64.9258C143.202 65.0781 143.146 65.2422 143.146 65.418H142.062C142.062 65.1914 142.12 64.9668 142.238 64.7441C142.355 64.5215 142.523 64.3203 142.741 64.1406C142.964 63.957 143.23 63.8125 143.538 63.707C143.851 63.5977 144.198 63.543 144.581 63.543C145.042 63.543 145.448 63.6211 145.8 63.7773C146.155 63.9336 146.433 64.1699 146.632 64.4863C146.835 64.7988 146.937 65.1914 146.937 65.6641V68.6172C146.937 68.8281 146.954 69.0527 146.989 69.291C147.029 69.5293 147.085 69.7344 147.159 69.9062V70H146.029C145.974 69.875 145.931 69.709 145.9 69.502C145.868 69.291 145.853 69.0957 145.853 68.916ZM146.04 66.1562L146.052 66.918H144.956C144.648 66.918 144.372 66.9434 144.13 66.9941C143.888 67.041 143.685 67.1133 143.521 67.2109C143.357 67.3086 143.232 67.4316 143.146 67.5801C143.06 67.7246 143.017 67.8945 143.017 68.0898C143.017 68.2891 143.062 68.4707 143.152 68.6348C143.241 68.7988 143.376 68.9297 143.556 69.0273C143.739 69.1211 143.964 69.168 144.23 69.168C144.562 69.168 144.855 69.0977 145.109 68.957C145.363 68.8164 145.564 68.6445 145.712 68.4414C145.864 68.2383 145.946 68.041 145.958 67.8496L146.421 68.3711C146.394 68.5352 146.32 68.7168 146.198 68.916C146.077 69.1152 145.915 69.3066 145.712 69.4902C145.513 69.6699 145.275 69.8203 144.997 69.9414C144.724 70.0586 144.415 70.1172 144.071 70.1172C143.642 70.1172 143.265 70.0332 142.941 69.8652C142.62 69.6973 142.37 69.4727 142.191 69.1914C142.015 68.9062 141.927 68.5879 141.927 68.2363C141.927 67.8965 141.993 67.5977 142.126 67.3398C142.259 67.0781 142.45 66.8613 142.7 66.6895C142.95 66.5137 143.251 66.3809 143.603 66.291C143.954 66.2012 144.347 66.1562 144.78 66.1562H146.04ZM150.326 65.0137V70H149.242V63.6602H150.267L150.326 65.0137ZM150.068 66.5898L149.617 66.5723C149.621 66.1387 149.685 65.7383 149.81 65.3711C149.935 65 150.111 64.6777 150.338 64.4043C150.564 64.1309 150.834 63.9199 151.146 63.7715C151.463 63.6191 151.812 63.543 152.195 63.543C152.507 63.543 152.789 63.5859 153.039 63.6719C153.289 63.7539 153.502 63.8867 153.677 64.0703C153.857 64.2539 153.994 64.4922 154.088 64.7852C154.181 65.0742 154.228 65.4277 154.228 65.8457V70H153.138V65.834C153.138 65.502 153.089 65.2363 152.992 65.0371C152.894 64.834 152.752 64.6875 152.564 64.5977C152.377 64.5039 152.146 64.457 151.873 64.457C151.603 64.457 151.357 64.5137 151.134 64.627C150.916 64.7402 150.726 64.8965 150.566 65.0957C150.41 65.2949 150.287 65.5234 150.197 65.7812C150.111 66.0352 150.068 66.3047 150.068 66.5898ZM160.471 68.7695V61H161.561V70H160.564L160.471 68.7695ZM156.205 66.9004V66.7773C156.205 66.293 156.264 65.8535 156.381 65.459C156.502 65.0605 156.672 64.7188 156.891 64.4336C157.113 64.1484 157.377 63.9297 157.682 63.7773C157.99 63.6211 158.334 63.543 158.713 63.543C159.111 63.543 159.459 63.6133 159.756 63.7539C160.057 63.8906 160.311 64.0918 160.518 64.3574C160.729 64.6191 160.895 64.9355 161.016 65.3066C161.137 65.6777 161.221 66.0977 161.268 66.5664V67.1055C161.225 67.5703 161.141 67.9883 161.016 68.3594C160.895 68.7305 160.729 69.0469 160.518 69.3086C160.311 69.5703 160.057 69.7715 159.756 69.9121C159.455 70.0488 159.104 70.1172 158.701 70.1172C158.33 70.1172 157.99 70.0371 157.682 69.877C157.377 69.7168 157.113 69.4922 156.891 69.2031C156.672 68.9141 156.502 68.5742 156.381 68.1836C156.264 67.7891 156.205 67.3613 156.205 66.9004ZM157.295 66.7773V66.9004C157.295 67.2168 157.326 67.5137 157.389 67.791C157.455 68.0684 157.557 68.3125 157.693 68.5234C157.83 68.7344 158.004 68.9004 158.215 69.0215C158.426 69.1387 158.678 69.1973 158.971 69.1973C159.33 69.1973 159.625 69.1211 159.855 68.9688C160.09 68.8164 160.277 68.6152 160.418 68.3652C160.559 68.1152 160.668 67.8438 160.746 67.5508V66.1387C160.699 65.9238 160.631 65.7168 160.541 65.5176C160.455 65.3145 160.342 65.1348 160.201 64.9785C160.064 64.8184 159.895 64.6914 159.691 64.5977C159.492 64.5039 159.256 64.457 158.982 64.457C158.686 64.457 158.43 64.5195 158.215 64.6445C158.004 64.7656 157.83 64.9336 157.693 65.1484C157.557 65.3594 157.455 65.6055 157.389 65.8867C157.326 66.1641 157.295 66.4609 157.295 66.7773ZM168.503 64.9199V70H167.413V63.6602H168.444L168.503 64.9199ZM168.28 66.5898L167.776 66.5723C167.78 66.1387 167.837 65.7383 167.946 65.3711C168.055 65 168.218 64.6777 168.432 64.4043C168.647 64.1309 168.915 63.9199 169.235 63.7715C169.555 63.6191 169.927 63.543 170.348 63.543C170.645 63.543 170.919 63.5859 171.169 63.6719C171.419 63.7539 171.636 63.8848 171.819 64.0645C172.003 64.2441 172.145 64.4746 172.247 64.7559C172.348 65.0371 172.399 65.377 172.399 65.7754V70H171.315V65.8281C171.315 65.4961 171.259 65.2305 171.145 65.0312C171.036 64.832 170.88 64.6875 170.677 64.5977C170.473 64.5039 170.235 64.457 169.962 64.457C169.641 64.457 169.374 64.5137 169.159 64.627C168.944 64.7402 168.772 64.8965 168.643 65.0957C168.514 65.2949 168.421 65.5234 168.362 65.7812C168.307 66.0352 168.28 66.3047 168.28 66.5898ZM172.387 65.9922L171.661 66.2148C171.665 65.8672 171.721 65.5332 171.831 65.2129C171.944 64.8926 172.106 64.6074 172.317 64.3574C172.532 64.1074 172.796 63.9102 173.108 63.7656C173.421 63.6172 173.778 63.543 174.18 63.543C174.52 63.543 174.821 63.5879 175.083 63.6777C175.348 63.7676 175.571 63.9062 175.751 64.0938C175.934 64.2773 176.073 64.5137 176.167 64.8027C176.261 65.0918 176.307 65.4355 176.307 65.834V70H175.218V65.8223C175.218 65.4668 175.161 65.1914 175.048 64.9961C174.938 64.7969 174.782 64.6582 174.579 64.5801C174.38 64.498 174.141 64.457 173.864 64.457C173.626 64.457 173.415 64.498 173.231 64.5801C173.048 64.6621 172.893 64.7754 172.768 64.9199C172.643 65.0605 172.548 65.2227 172.481 65.4062C172.419 65.5898 172.387 65.7852 172.387 65.9922ZM182.286 68.916V65.6523C182.286 65.4023 182.236 65.1855 182.134 65.002C182.036 64.8145 181.888 64.6699 181.689 64.5684C181.489 64.4668 181.243 64.416 180.95 64.416C180.677 64.416 180.437 64.4629 180.23 64.5566C180.027 64.6504 179.866 64.7734 179.749 64.9258C179.636 65.0781 179.579 65.2422 179.579 65.418H178.495C178.495 65.1914 178.554 64.9668 178.671 64.7441C178.788 64.5215 178.956 64.3203 179.175 64.1406C179.398 63.957 179.663 63.8125 179.972 63.707C180.284 63.5977 180.632 63.543 181.015 63.543C181.476 63.543 181.882 63.6211 182.234 63.7773C182.589 63.9336 182.866 64.1699 183.066 64.4863C183.269 64.7988 183.37 65.1914 183.37 65.6641V68.6172C183.37 68.8281 183.388 69.0527 183.423 69.291C183.462 69.5293 183.519 69.7344 183.593 69.9062V70H182.462C182.407 69.875 182.364 69.709 182.333 69.502C182.302 69.291 182.286 69.0957 182.286 68.916ZM182.474 66.1562L182.486 66.918H181.39C181.081 66.918 180.806 66.9434 180.564 66.9941C180.321 67.041 180.118 67.1133 179.954 67.2109C179.79 67.3086 179.665 67.4316 179.579 67.5801C179.493 67.7246 179.45 67.8945 179.45 68.0898C179.45 68.2891 179.495 68.4707 179.585 68.6348C179.675 68.7988 179.81 68.9297 179.989 69.0273C180.173 69.1211 180.398 69.168 180.663 69.168C180.995 69.168 181.288 69.0977 181.542 68.957C181.796 68.8164 181.997 68.6445 182.146 68.4414C182.298 68.2383 182.38 68.041 182.392 67.8496L182.855 68.3711C182.827 68.5352 182.753 68.7168 182.632 68.916C182.511 69.1152 182.349 69.3066 182.146 69.4902C181.946 69.6699 181.708 69.8203 181.431 69.9414C181.157 70.0586 180.849 70.1172 180.505 70.1172C180.075 70.1172 179.698 70.0332 179.374 69.8652C179.054 69.6973 178.804 69.4727 178.624 69.1914C178.448 68.9062 178.361 68.5879 178.361 68.2363C178.361 67.8965 178.427 67.5977 178.56 67.3398C178.693 67.0781 178.884 66.8613 179.134 66.6895C179.384 66.5137 179.685 66.3809 180.036 66.291C180.388 66.2012 180.78 66.1562 181.214 66.1562H182.474ZM189.671 68.7695V61H190.761V70H189.765L189.671 68.7695ZM185.406 66.9004V66.7773C185.406 66.293 185.464 65.8535 185.582 65.459C185.703 65.0605 185.873 64.7188 186.091 64.4336C186.314 64.1484 186.578 63.9297 186.882 63.7773C187.191 63.6211 187.535 63.543 187.914 63.543C188.312 63.543 188.66 63.6133 188.957 63.7539C189.257 63.8906 189.511 64.0918 189.718 64.3574C189.929 64.6191 190.095 64.9355 190.216 65.3066C190.337 65.6777 190.421 66.0977 190.468 66.5664V67.1055C190.425 67.5703 190.341 67.9883 190.216 68.3594C190.095 68.7305 189.929 69.0469 189.718 69.3086C189.511 69.5703 189.257 69.7715 188.957 69.9121C188.656 70.0488 188.304 70.1172 187.902 70.1172C187.531 70.1172 187.191 70.0371 186.882 69.877C186.578 69.7168 186.314 69.4922 186.091 69.2031C185.873 68.9141 185.703 68.5742 185.582 68.1836C185.464 67.7891 185.406 67.3613 185.406 66.9004ZM186.496 66.7773V66.9004C186.496 67.2168 186.527 67.5137 186.589 67.791C186.656 68.0684 186.757 68.3125 186.894 68.5234C187.031 68.7344 187.205 68.9004 187.416 69.0215C187.627 69.1387 187.879 69.1973 188.171 69.1973C188.531 69.1973 188.826 69.1211 189.056 68.9688C189.291 68.8164 189.478 68.6152 189.619 68.3652C189.759 68.1152 189.869 67.8438 189.947 67.5508V66.1387C189.9 65.9238 189.832 65.7168 189.742 65.5176C189.656 65.3145 189.543 65.1348 189.402 64.9785C189.265 64.8184 189.095 64.6914 188.892 64.5977C188.693 64.5039 188.457 64.457 188.183 64.457C187.886 64.457 187.63 64.5195 187.416 64.6445C187.205 64.7656 187.031 64.9336 186.894 65.1484C186.757 65.3594 186.656 65.6055 186.589 65.8867C186.527 66.1641 186.496 66.4609 186.496 66.7773ZM195.68 70.1172C195.238 70.1172 194.838 70.043 194.479 69.8945C194.123 69.7422 193.816 69.5293 193.559 69.2559C193.305 68.9824 193.109 68.6582 192.973 68.2832C192.836 67.9082 192.768 67.498 192.768 67.0527V66.8066C192.768 66.291 192.844 65.832 192.996 65.4297C193.148 65.0234 193.355 64.6797 193.617 64.3984C193.879 64.1172 194.176 63.9043 194.508 63.7598C194.84 63.6152 195.184 63.543 195.539 63.543C195.992 63.543 196.383 63.6211 196.711 63.7773C197.043 63.9336 197.314 64.1523 197.525 64.4336C197.736 64.7109 197.893 65.0391 197.994 65.418C198.096 65.793 198.146 66.2031 198.146 66.6484V67.1348H193.412V66.25H197.062V66.168C197.047 65.8867 196.988 65.6133 196.887 65.3477C196.789 65.082 196.633 64.8633 196.418 64.6914C196.203 64.5195 195.91 64.4336 195.539 64.4336C195.293 64.4336 195.066 64.4863 194.859 64.5918C194.652 64.6934 194.475 64.8457 194.326 65.0488C194.178 65.252 194.062 65.5 193.98 65.793C193.898 66.0859 193.857 66.4238 193.857 66.8066V67.0527C193.857 67.3535 193.898 67.6367 193.98 67.9023C194.066 68.1641 194.189 68.3945 194.35 68.5938C194.514 68.793 194.711 68.9492 194.941 69.0625C195.176 69.1758 195.441 69.2324 195.738 69.2324C196.121 69.2324 196.445 69.1543 196.711 68.998C196.977 68.8418 197.209 68.6328 197.408 68.3711L198.064 68.8926C197.928 69.0996 197.754 69.2969 197.543 69.4844C197.332 69.6719 197.072 69.8242 196.764 69.9414C196.459 70.0586 196.098 70.1172 195.68 70.1172ZM204.667 64.9199V70H203.577V63.6602H204.608L204.667 64.9199ZM204.444 66.5898L203.94 66.5723C203.944 66.1387 204.001 65.7383 204.11 65.3711C204.22 65 204.382 64.6777 204.596 64.4043C204.811 64.1309 205.079 63.9199 205.399 63.7715C205.72 63.6191 206.091 63.543 206.512 63.543C206.809 63.543 207.083 63.5859 207.333 63.6719C207.583 63.7539 207.8 63.8848 207.983 64.0645C208.167 64.2441 208.309 64.4746 208.411 64.7559C208.512 65.0371 208.563 65.377 208.563 65.7754V70H207.479V65.8281C207.479 65.4961 207.423 65.2305 207.309 65.0312C207.2 64.832 207.044 64.6875 206.841 64.5977C206.637 64.5039 206.399 64.457 206.126 64.457C205.805 64.457 205.538 64.5137 205.323 64.627C205.108 64.7402 204.936 64.8965 204.807 65.0957C204.679 65.2949 204.585 65.5234 204.526 65.7812C204.471 66.0352 204.444 66.3047 204.444 66.5898ZM208.552 65.9922L207.825 66.2148C207.829 65.8672 207.886 65.5332 207.995 65.2129C208.108 64.8926 208.27 64.6074 208.481 64.3574C208.696 64.1074 208.96 63.9102 209.272 63.7656C209.585 63.6172 209.942 63.543 210.345 63.543C210.684 63.543 210.985 63.5879 211.247 63.6777C211.512 63.7676 211.735 63.9062 211.915 64.0938C212.098 64.2773 212.237 64.5137 212.331 64.8027C212.425 65.0918 212.471 65.4355 212.471 65.834V70H211.382V65.8223C211.382 65.4668 211.325 65.1914 211.212 64.9961C211.102 64.7969 210.946 64.6582 210.743 64.5801C210.544 64.498 210.305 64.457 210.028 64.457C209.79 64.457 209.579 64.498 209.395 64.5801C209.212 64.6621 209.057 64.7754 208.932 64.9199C208.807 65.0605 208.712 65.2227 208.645 65.4062C208.583 65.5898 208.552 65.7852 208.552 65.9922ZM217.343 70.1172C216.902 70.1172 216.501 70.043 216.142 69.8945C215.786 69.7422 215.48 69.5293 215.222 69.2559C214.968 68.9824 214.773 68.6582 214.636 68.2832C214.499 67.9082 214.431 67.498 214.431 67.0527V66.8066C214.431 66.291 214.507 65.832 214.659 65.4297C214.812 65.0234 215.019 64.6797 215.28 64.3984C215.542 64.1172 215.839 63.9043 216.171 63.7598C216.503 63.6152 216.847 63.543 217.202 63.543C217.655 63.543 218.046 63.6211 218.374 63.7773C218.706 63.9336 218.978 64.1523 219.189 64.4336C219.4 64.7109 219.556 65.0391 219.657 65.418C219.759 65.793 219.81 66.2031 219.81 66.6484V67.1348H215.075V66.25H218.726V66.168C218.71 65.8867 218.652 65.6133 218.55 65.3477C218.452 65.082 218.296 64.8633 218.081 64.6914C217.866 64.5195 217.573 64.4336 217.202 64.4336C216.956 64.4336 216.73 64.4863 216.523 64.5918C216.316 64.6934 216.138 64.8457 215.989 65.0488C215.841 65.252 215.726 65.5 215.644 65.793C215.562 66.0859 215.521 66.4238 215.521 66.8066V67.0527C215.521 67.3535 215.562 67.6367 215.644 67.9023C215.73 68.1641 215.853 68.3945 216.013 68.5938C216.177 68.793 216.374 68.9492 216.605 69.0625C216.839 69.1758 217.105 69.2324 217.402 69.2324C217.784 69.2324 218.109 69.1543 218.374 68.998C218.64 68.8418 218.872 68.6328 219.071 68.3711L219.728 68.8926C219.591 69.0996 219.417 69.2969 219.206 69.4844C218.995 69.6719 218.736 69.8242 218.427 69.9414C218.122 70.0586 217.761 70.1172 217.343 70.1172ZM226.857 68.875L228.486 63.6602H229.201L229.061 64.6973L227.402 70H226.705L226.857 68.875ZM225.762 63.6602L227.15 68.9336L227.25 70H226.518L224.678 63.6602H225.762ZM230.76 68.8926L232.084 63.6602H233.162L231.322 70H230.596L230.76 68.8926ZM229.359 63.6602L230.953 68.7871L231.135 70H230.443L228.738 64.6855L228.598 63.6602H229.359ZM237.506 70.1172C237.065 70.1172 236.664 70.043 236.305 69.8945C235.95 69.7422 235.643 69.5293 235.385 69.2559C235.131 68.9824 234.936 68.6582 234.799 68.2832C234.663 67.9082 234.594 67.498 234.594 67.0527V66.8066C234.594 66.291 234.67 65.832 234.823 65.4297C234.975 65.0234 235.182 64.6797 235.444 64.3984C235.705 64.1172 236.002 63.9043 236.334 63.7598C236.666 63.6152 237.01 63.543 237.366 63.543C237.819 63.543 238.209 63.6211 238.538 63.7773C238.87 63.9336 239.141 64.1523 239.352 64.4336C239.563 64.7109 239.719 65.0391 239.821 65.418C239.922 65.793 239.973 66.2031 239.973 66.6484V67.1348H235.239V66.25H238.889V66.168C238.873 65.8867 238.815 65.6133 238.713 65.3477C238.616 65.082 238.459 64.8633 238.245 64.6914C238.03 64.5195 237.737 64.4336 237.366 64.4336C237.12 64.4336 236.893 64.4863 236.686 64.5918C236.479 64.6934 236.301 64.8457 236.153 65.0488C236.004 65.252 235.889 65.5 235.807 65.793C235.725 66.0859 235.684 66.4238 235.684 66.8066V67.0527C235.684 67.3535 235.725 67.6367 235.807 67.9023C235.893 68.1641 236.016 68.3945 236.176 68.5938C236.34 68.793 236.538 68.9492 236.768 69.0625C237.002 69.1758 237.268 69.2324 237.565 69.2324C237.948 69.2324 238.272 69.1543 238.538 68.998C238.803 68.8418 239.036 68.6328 239.235 68.3711L239.891 68.8926C239.754 69.0996 239.58 69.2969 239.37 69.4844C239.159 69.6719 238.899 69.8242 238.59 69.9414C238.286 70.0586 237.924 70.1172 237.506 70.1172ZM245.577 68.916V65.6523C245.577 65.4023 245.526 65.1855 245.425 65.002C245.327 64.8145 245.179 64.6699 244.979 64.5684C244.78 64.4668 244.534 64.416 244.241 64.416C243.968 64.416 243.727 64.4629 243.52 64.5566C243.317 64.6504 243.157 64.7734 243.04 64.9258C242.927 65.0781 242.87 65.2422 242.87 65.418H241.786C241.786 65.1914 241.845 64.9668 241.962 64.7441C242.079 64.5215 242.247 64.3203 242.466 64.1406C242.688 63.957 242.954 63.8125 243.262 63.707C243.575 63.5977 243.923 63.543 244.305 63.543C244.766 63.543 245.173 63.6211 245.524 63.7773C245.88 63.9336 246.157 64.1699 246.356 64.4863C246.559 64.7988 246.661 65.1914 246.661 65.6641V68.6172C246.661 68.8281 246.679 69.0527 246.714 69.291C246.753 69.5293 246.809 69.7344 246.884 69.9062V70H245.753C245.698 69.875 245.655 69.709 245.624 69.502C245.593 69.291 245.577 69.0957 245.577 68.916ZM245.764 66.1562L245.776 66.918H244.68C244.372 66.918 244.096 66.9434 243.854 66.9941C243.612 67.041 243.409 67.1133 243.245 67.2109C243.081 67.3086 242.956 67.4316 242.87 67.5801C242.784 67.7246 242.741 67.8945 242.741 68.0898C242.741 68.2891 242.786 68.4707 242.876 68.6348C242.966 68.7988 243.1 68.9297 243.28 69.0273C243.464 69.1211 243.688 69.168 243.954 69.168C244.286 69.168 244.579 69.0977 244.833 68.957C245.087 68.8164 245.288 68.6445 245.436 68.4414C245.589 68.2383 245.671 68.041 245.682 67.8496L246.145 68.3711C246.118 68.5352 246.044 68.7168 245.923 68.916C245.802 69.1152 245.639 69.3066 245.436 69.4902C245.237 69.6699 244.999 69.8203 244.721 69.9414C244.448 70.0586 244.139 70.1172 243.796 70.1172C243.366 70.1172 242.989 70.0332 242.665 69.8652C242.345 69.6973 242.095 69.4727 241.915 69.1914C241.739 68.9062 241.651 68.5879 241.651 68.2363C241.651 67.8965 241.718 67.5977 241.85 67.3398C241.983 67.0781 242.175 66.8613 242.425 66.6895C242.675 66.5137 242.975 66.3809 243.327 66.291C243.679 66.2012 244.071 66.1562 244.505 66.1562H245.764ZM250.05 64.6562V70H248.966V63.6602H250.021L250.05 64.6562ZM252.03 63.625L252.025 64.6328C251.935 64.6133 251.849 64.6016 251.767 64.5977C251.689 64.5898 251.599 64.5859 251.497 64.5859C251.247 64.5859 251.027 64.625 250.835 64.7031C250.644 64.7812 250.482 64.8906 250.349 65.0312C250.216 65.1719 250.111 65.3398 250.032 65.5352C249.958 65.7266 249.909 65.9375 249.886 66.168L249.581 66.3438C249.581 65.9609 249.618 65.6016 249.693 65.2656C249.771 64.9297 249.89 64.6328 250.05 64.375C250.21 64.1133 250.413 63.9102 250.659 63.7656C250.909 63.6172 251.206 63.543 251.55 63.543C251.628 63.543 251.718 63.5527 251.82 63.5723C251.921 63.5879 251.991 63.6055 252.03 63.625ZM260.947 68.916V65.6523C260.947 65.4023 260.896 65.1855 260.795 65.002C260.697 64.8145 260.549 64.6699 260.35 64.5684C260.15 64.4668 259.904 64.416 259.611 64.416C259.338 64.416 259.098 64.4629 258.891 64.5566C258.688 64.6504 258.527 64.7734 258.41 64.9258C258.297 65.0781 258.24 65.2422 258.24 65.418H257.156C257.156 65.1914 257.215 64.9668 257.332 64.7441C257.449 64.5215 257.617 64.3203 257.836 64.1406C258.059 63.957 258.324 63.8125 258.633 63.707C258.945 63.5977 259.293 63.543 259.676 63.543C260.137 63.543 260.543 63.6211 260.895 63.7773C261.25 63.9336 261.527 64.1699 261.727 64.4863C261.93 64.7988 262.031 65.1914 262.031 65.6641V68.6172C262.031 68.8281 262.049 69.0527 262.084 69.291C262.123 69.5293 262.18 69.7344 262.254 69.9062V70H261.123C261.068 69.875 261.025 69.709 260.994 69.502C260.963 69.291 260.947 69.0957 260.947 68.916ZM261.135 66.1562L261.146 66.918H260.051C259.742 66.918 259.467 66.9434 259.225 66.9941C258.982 67.041 258.779 67.1133 258.615 67.2109C258.451 67.3086 258.326 67.4316 258.24 67.5801C258.154 67.7246 258.111 67.8945 258.111 68.0898C258.111 68.2891 258.156 68.4707 258.246 68.6348C258.336 68.7988 258.471 68.9297 258.65 69.0273C258.834 69.1211 259.059 69.168 259.324 69.168C259.656 69.168 259.949 69.0977 260.203 68.957C260.457 68.8164 260.658 68.6445 260.807 68.4414C260.959 68.2383 261.041 68.041 261.053 67.8496L261.516 68.3711C261.488 68.5352 261.414 68.7168 261.293 68.916C261.172 69.1152 261.01 69.3066 260.807 69.4902C260.607 69.6699 260.369 69.8203 260.092 69.9414C259.818 70.0586 259.51 70.1172 259.166 70.1172C258.736 70.1172 258.359 70.0332 258.035 69.8652C257.715 69.6973 257.465 69.4727 257.285 69.1914C257.109 68.9062 257.021 68.5879 257.021 68.2363C257.021 67.8965 257.088 67.5977 257.221 67.3398C257.354 67.0781 257.545 66.8613 257.795 66.6895C258.045 66.5137 258.346 66.3809 258.697 66.291C259.049 66.2012 259.441 66.1562 259.875 66.1562H261.135ZM29.0039 78V87H27.9141V78H29.0039ZM33.975 87.1172C33.5336 87.1172 33.1332 87.043 32.7738 86.8945C32.4184 86.7422 32.1117 86.5293 31.8539 86.2559C31.6 85.9824 31.4047 85.6582 31.268 85.2832C31.1312 84.9082 31.0629 84.498 31.0629 84.0527V83.8066C31.0629 83.291 31.1391 82.832 31.2914 82.4297C31.4437 82.0234 31.6508 81.6797 31.9125 81.3984C32.1742 81.1172 32.4711 80.9043 32.8031 80.7598C33.1352 80.6152 33.4789 80.543 33.8344 80.543C34.2875 80.543 34.6781 80.6211 35.0062 80.7773C35.3383 80.9336 35.6098 81.1523 35.8207 81.4336C36.0316 81.7109 36.1879 82.0391 36.2895 82.418C36.391 82.793 36.4418 83.2031 36.4418 83.6484V84.1348H31.7074V83.25H35.3578V83.168C35.3422 82.8867 35.2836 82.6133 35.182 82.3477C35.0844 82.082 34.9281 81.8633 34.7133 81.6914C34.4984 81.5195 34.2055 81.4336 33.8344 81.4336C33.5883 81.4336 33.3617 81.4863 33.1547 81.5918C32.9477 81.6934 32.7699 81.8457 32.6215 82.0488C32.473 82.252 32.3578 82.5 32.2758 82.793C32.1937 83.0859 32.1527 83.4238 32.1527 83.8066V84.0527C32.1527 84.3535 32.1937 84.6367 32.2758 84.9023C32.3617 85.1641 32.4848 85.3945 32.6449 85.5938C32.809 85.793 33.0062 85.9492 33.2367 86.0625C33.4711 86.1758 33.7367 86.2324 34.0336 86.2324C34.4164 86.2324 34.7406 86.1543 35.0062 85.998C35.2719 85.8418 35.5043 85.6328 35.7035 85.3711L36.3598 85.8926C36.223 86.0996 36.0492 86.2969 35.8383 86.4844C35.6273 86.6719 35.3676 86.8242 35.059 86.9414C34.7543 87.0586 34.393 87.1172 33.975 87.1172ZM42.0457 85.916V82.6523C42.0457 82.4023 41.9949 82.1855 41.8934 82.002C41.7957 81.8145 41.6473 81.6699 41.448 81.5684C41.2488 81.4668 41.0027 81.416 40.7098 81.416C40.4363 81.416 40.1961 81.4629 39.9891 81.5566C39.7859 81.6504 39.6258 81.7734 39.5086 81.9258C39.3953 82.0781 39.3387 82.2422 39.3387 82.418H38.2547C38.2547 82.1914 38.3133 81.9668 38.4305 81.7441C38.5477 81.5215 38.7156 81.3203 38.9344 81.1406C39.157 80.957 39.4227 80.8125 39.7312 80.707C40.0437 80.5977 40.3914 80.543 40.7742 80.543C41.2352 80.543 41.6414 80.6211 41.993 80.7773C42.3484 80.9336 42.6258 81.1699 42.825 81.4863C43.0281 81.7988 43.1297 82.1914 43.1297 82.6641V85.6172C43.1297 85.8281 43.1473 86.0527 43.1824 86.291C43.2215 86.5293 43.2781 86.7344 43.3523 86.9062V87H42.2215C42.1668 86.875 42.1238 86.709 42.0926 86.502C42.0613 86.291 42.0457 86.0957 42.0457 85.916ZM42.2332 83.1562L42.2449 83.918H41.1492C40.8406 83.918 40.5652 83.9434 40.323 83.9941C40.0809 84.041 39.8777 84.1133 39.7137 84.2109C39.5496 84.3086 39.4246 84.4316 39.3387 84.5801C39.2527 84.7246 39.2098 84.8945 39.2098 85.0898C39.2098 85.2891 39.2547 85.4707 39.3445 85.6348C39.4344 85.7988 39.5691 85.9297 39.7488 86.0273C39.9324 86.1211 40.157 86.168 40.4227 86.168C40.7547 86.168 41.0477 86.0977 41.3016 85.957C41.5555 85.8164 41.7566 85.6445 41.9051 85.4414C42.0574 85.2383 42.1395 85.041 42.1512 84.8496L42.6141 85.3711C42.5867 85.5352 42.5125 85.7168 42.3914 85.916C42.2703 86.1152 42.1082 86.3066 41.9051 86.4902C41.7059 86.6699 41.4676 86.8203 41.1902 86.9414C40.9168 87.0586 40.6082 87.1172 40.2645 87.1172C39.8348 87.1172 39.4578 87.0332 39.1336 86.8652C38.8133 86.6973 38.5633 86.4727 38.3836 86.1914C38.2078 85.9062 38.1199 85.5879 38.1199 85.2363C38.1199 84.8965 38.1863 84.5977 38.3191 84.3398C38.452 84.0781 38.6434 83.8613 38.8934 83.6895C39.1434 83.5137 39.4441 83.3809 39.7957 83.291C40.1473 83.2012 40.5398 83.1562 40.9734 83.1562H42.2332ZM48.0891 80.6602V81.4922H44.6613V80.6602H48.0891ZM45.8215 79.1191H46.9055V85.4297C46.9055 85.6445 46.9387 85.8066 47.0051 85.916C47.0715 86.0254 47.1574 86.0977 47.2629 86.1328C47.3684 86.168 47.4816 86.1855 47.6027 86.1855C47.6926 86.1855 47.7863 86.1777 47.884 86.1621C47.9855 86.1426 48.0617 86.127 48.1125 86.1152L48.1184 87C48.0324 87.0273 47.9191 87.0527 47.7785 87.0762C47.6418 87.1035 47.4758 87.1172 47.2805 87.1172C47.0148 87.1172 46.7707 87.0645 46.548 86.959C46.3254 86.8535 46.1477 86.6777 46.0148 86.4316C45.8859 86.1816 45.8215 85.8457 45.8215 85.4238V79.1191ZM51.0445 78V87H49.9605V78H51.0445ZM50.7867 83.5898L50.3355 83.5723C50.3395 83.1387 50.4039 82.7383 50.5289 82.3711C50.6539 82 50.8297 81.6777 51.0562 81.4043C51.2828 81.1309 51.5523 80.9199 51.8648 80.7715C52.1812 80.6191 52.5309 80.543 52.9137 80.543C53.2262 80.543 53.5074 80.5859 53.7574 80.6719C54.0074 80.7539 54.2203 80.8867 54.3961 81.0703C54.5758 81.2539 54.7125 81.4922 54.8062 81.7852C54.9 82.0742 54.9469 82.4277 54.9469 82.8457V87H53.857V82.834C53.857 82.502 53.8082 82.2363 53.7105 82.0371C53.6129 81.834 53.4703 81.6875 53.2828 81.5977C53.0953 81.5039 52.8648 81.457 52.5914 81.457C52.3219 81.457 52.0758 81.5137 51.8531 81.627C51.6344 81.7402 51.4449 81.8965 51.2848 82.0957C51.1285 82.2949 51.0055 82.5234 50.9156 82.7812C50.8297 83.0352 50.7867 83.3047 50.7867 83.5898ZM59.8008 87.1172C59.3594 87.1172 58.959 87.043 58.5996 86.8945C58.2441 86.7422 57.9375 86.5293 57.6797 86.2559C57.4258 85.9824 57.2305 85.6582 57.0938 85.2832C56.957 84.9082 56.8887 84.498 56.8887 84.0527V83.8066C56.8887 83.291 56.9648 82.832 57.1172 82.4297C57.2695 82.0234 57.4766 81.6797 57.7383 81.3984C58 81.1172 58.2969 80.9043 58.6289 80.7598C58.9609 80.6152 59.3047 80.543 59.6602 80.543C60.1133 80.543 60.5039 80.6211 60.832 80.7773C61.1641 80.9336 61.4355 81.1523 61.6465 81.4336C61.8574 81.7109 62.0137 82.0391 62.1152 82.418C62.2168 82.793 62.2676 83.2031 62.2676 83.6484V84.1348H57.5332V83.25H61.1836V83.168C61.168 82.8867 61.1094 82.6133 61.0078 82.3477C60.9102 82.082 60.7539 81.8633 60.5391 81.6914C60.3242 81.5195 60.0312 81.4336 59.6602 81.4336C59.4141 81.4336 59.1875 81.4863 58.9805 81.5918C58.7734 81.6934 58.5957 81.8457 58.4473 82.0488C58.2988 82.252 58.1836 82.5 58.1016 82.793C58.0195 83.0859 57.9785 83.4238 57.9785 83.8066V84.0527C57.9785 84.3535 58.0195 84.6367 58.1016 84.9023C58.1875 85.1641 58.3105 85.3945 58.4707 85.5938C58.6348 85.793 58.832 85.9492 59.0625 86.0625C59.2969 86.1758 59.5625 86.2324 59.8594 86.2324C60.2422 86.2324 60.5664 86.1543 60.832 85.998C61.0977 85.8418 61.3301 85.6328 61.5293 85.3711L62.1855 85.8926C62.0488 86.0996 61.875 86.2969 61.6641 86.4844C61.4531 86.6719 61.1934 86.8242 60.8848 86.9414C60.5801 87.0586 60.2188 87.1172 59.8008 87.1172ZM65.2172 81.6562V87H64.1332V80.6602H65.1879L65.2172 81.6562ZM67.1977 80.625L67.1918 81.6328C67.102 81.6133 67.016 81.6016 66.934 81.5977C66.8559 81.5898 66.766 81.5859 66.6645 81.5859C66.4145 81.5859 66.1937 81.625 66.0023 81.7031C65.8109 81.7812 65.6488 81.8906 65.516 82.0312C65.3832 82.1719 65.2777 82.3398 65.1996 82.5352C65.1254 82.7266 65.0766 82.9375 65.0531 83.168L64.7484 83.3438C64.7484 82.9609 64.7855 82.6016 64.8598 82.2656C64.9379 81.9297 65.057 81.6328 65.2172 81.375C65.3773 81.1133 65.5805 80.9102 65.8266 80.7656C66.0766 80.6172 66.3734 80.543 66.7172 80.543C66.7953 80.543 66.8852 80.5527 66.9867 80.5723C67.0883 80.5879 67.1586 80.6055 67.1977 80.625ZM72.4055 80.6602H73.4953V87.7559C73.4953 88.1426 73.4328 88.4707 73.3078 88.7402C73.1867 89.0098 73.0031 89.2129 72.757 89.3496C72.5148 89.4902 72.2082 89.5605 71.8371 89.5605C71.7395 89.5605 71.6262 89.5508 71.4973 89.5312C71.3645 89.5117 71.2531 89.4883 71.1633 89.4609L71.1691 88.5879C71.2434 88.6035 71.3273 88.6152 71.4211 88.623C71.5148 88.6348 71.5969 88.6406 71.6672 88.6406C71.8273 88.6406 71.9621 88.6113 72.0715 88.5527C72.1809 88.4941 72.2629 88.4004 72.3176 88.2715C72.3762 88.1426 72.4055 87.9707 72.4055 87.7559V80.6602ZM72.2941 78.9785C72.2941 78.8027 72.3488 78.6543 72.4582 78.5332C72.5676 78.4121 72.7258 78.3516 72.9328 78.3516C73.1437 78.3516 73.3039 78.4121 73.4133 78.5332C73.5227 78.6543 73.5773 78.8027 73.5773 78.9785C73.5773 79.1465 73.5227 79.291 73.4133 79.4121C73.3039 79.5293 73.1437 79.5879 72.9328 79.5879C72.7258 79.5879 72.5676 79.5293 72.4582 79.4121C72.3488 79.291 72.2941 79.1465 72.2941 78.9785ZM79.5855 85.916V82.6523C79.5855 82.4023 79.5348 82.1855 79.4332 82.002C79.3355 81.8145 79.1871 81.6699 78.9879 81.5684C78.7887 81.4668 78.5426 81.416 78.2496 81.416C77.9762 81.416 77.7359 81.4629 77.5289 81.5566C77.3258 81.6504 77.1656 81.7734 77.0484 81.9258C76.9352 82.0781 76.8785 82.2422 76.8785 82.418H75.7945C75.7945 82.1914 75.8531 81.9668 75.9703 81.7441C76.0875 81.5215 76.2555 81.3203 76.4742 81.1406C76.6969 80.957 76.9625 80.8125 77.2711 80.707C77.5836 80.5977 77.9313 80.543 78.3141 80.543C78.775 80.543 79.1813 80.6211 79.5328 80.7773C79.8883 80.9336 80.1656 81.1699 80.3648 81.4863C80.568 81.7988 80.6695 82.1914 80.6695 82.6641V85.6172C80.6695 85.8281 80.6871 86.0527 80.7223 86.291C80.7613 86.5293 80.818 86.7344 80.8922 86.9062V87H79.7613C79.7066 86.875 79.6637 86.709 79.6324 86.502C79.6012 86.291 79.5855 86.0957 79.5855 85.916ZM79.773 83.1562L79.7848 83.918H78.6891C78.3805 83.918 78.1051 83.9434 77.8629 83.9941C77.6207 84.041 77.4176 84.1133 77.2535 84.2109C77.0895 84.3086 76.9645 84.4316 76.8785 84.5801C76.7926 84.7246 76.7496 84.8945 76.7496 85.0898C76.7496 85.2891 76.7945 85.4707 76.8844 85.6348C76.9742 85.7988 77.109 85.9297 77.2887 86.0273C77.4723 86.1211 77.6969 86.168 77.9625 86.168C78.2945 86.168 78.5875 86.0977 78.8414 85.957C79.0953 85.8164 79.2965 85.6445 79.4449 85.4414C79.5973 85.2383 79.6793 85.041 79.691 84.8496L80.1539 85.3711C80.1266 85.5352 80.0523 85.7168 79.9313 85.916C79.8102 86.1152 79.648 86.3066 79.4449 86.4902C79.2457 86.6699 79.0074 86.8203 78.7301 86.9414C78.4566 87.0586 78.148 87.1172 77.8043 87.1172C77.3746 87.1172 76.9977 87.0332 76.6734 86.8652C76.3531 86.6973 76.1031 86.4727 75.9234 86.1914C75.7477 85.9062 75.6598 85.5879 75.6598 85.2363C75.6598 84.8965 75.7262 84.5977 75.859 84.3398C75.9918 84.0781 76.1832 83.8613 76.4332 83.6895C76.6832 83.5137 76.984 83.3809 77.3355 83.291C77.6871 83.2012 78.0797 83.1562 78.5133 83.1562H79.773ZM85.5117 86.2266C85.7695 86.2266 86.0078 86.1738 86.2266 86.0684C86.4453 85.9629 86.625 85.8184 86.7656 85.6348C86.9062 85.4473 86.9863 85.2344 87.0059 84.9961H88.0371C88.0176 85.3711 87.8906 85.7207 87.6562 86.0449C87.4258 86.3652 87.123 86.625 86.748 86.8242C86.373 87.0195 85.9609 87.1172 85.5117 87.1172C85.0352 87.1172 84.6191 87.0332 84.2637 86.8652C83.9121 86.6973 83.6191 86.4668 83.3848 86.1738C83.1543 85.8809 82.9805 85.5449 82.8633 85.166C82.75 84.7832 82.6934 84.3789 82.6934 83.9531V83.707C82.6934 83.2812 82.75 82.8789 82.8633 82.5C82.9805 82.1172 83.1543 81.7793 83.3848 81.4863C83.6191 81.1934 83.9121 80.9629 84.2637 80.7949C84.6191 80.627 85.0352 80.543 85.5117 80.543C86.0078 80.543 86.4414 80.6445 86.8125 80.8477C87.1836 81.0469 87.4746 81.3203 87.6855 81.668C87.9004 82.0117 88.0176 82.4023 88.0371 82.8398H87.0059C86.9863 82.5781 86.9121 82.3418 86.7832 82.1309C86.6582 81.9199 86.4863 81.752 86.2676 81.627C86.0527 81.498 85.8008 81.4336 85.5117 81.4336C85.1797 81.4336 84.9004 81.5 84.6738 81.6328C84.4512 81.7617 84.2734 81.9375 84.1406 82.1602C84.0117 82.3789 83.918 82.623 83.8594 82.8926C83.8047 83.1582 83.7773 83.4297 83.7773 83.707V83.9531C83.7773 84.2305 83.8047 84.5039 83.8594 84.7734C83.9141 85.043 84.0059 85.2871 84.1348 85.5059C84.2676 85.7246 84.4453 85.9004 84.668 86.0332C84.8945 86.1621 85.1758 86.2266 85.5117 86.2266ZM90.9457 78V87H89.8559V78H90.9457ZM94.8187 80.6602L92.0531 83.6191L90.5062 85.2246L90.4184 84.0703L91.5258 82.7461L93.4945 80.6602H94.8187ZM93.8285 87L91.5668 83.9766L92.1293 83.0098L95.1059 87H93.8285ZM99.0516 87.1172C98.6102 87.1172 98.2098 87.043 97.8504 86.8945C97.4949 86.7422 97.1883 86.5293 96.9305 86.2559C96.6766 85.9824 96.4812 85.6582 96.3445 85.2832C96.2078 84.9082 96.1395 84.498 96.1395 84.0527V83.8066C96.1395 83.291 96.2156 82.832 96.368 82.4297C96.5203 82.0234 96.7273 81.6797 96.9891 81.3984C97.2508 81.1172 97.5477 80.9043 97.8797 80.7598C98.2117 80.6152 98.5555 80.543 98.9109 80.543C99.3641 80.543 99.7547 80.6211 100.083 80.7773C100.415 80.9336 100.686 81.1523 100.897 81.4336C101.108 81.7109 101.264 82.0391 101.366 82.418C101.468 82.793 101.518 83.2031 101.518 83.6484V84.1348H96.784V83.25H100.434V83.168C100.419 82.8867 100.36 82.6133 100.259 82.3477C100.161 82.082 100.005 81.8633 99.7898 81.6914C99.575 81.5195 99.282 81.4336 98.9109 81.4336C98.6648 81.4336 98.4383 81.4863 98.2312 81.5918C98.0242 81.6934 97.8465 81.8457 97.698 82.0488C97.5496 82.252 97.4344 82.5 97.3523 82.793C97.2703 83.0859 97.2293 83.4238 97.2293 83.8066V84.0527C97.2293 84.3535 97.2703 84.6367 97.3523 84.9023C97.4383 85.1641 97.5613 85.3945 97.7215 85.5938C97.8855 85.793 98.0828 85.9492 98.3133 86.0625C98.5477 86.1758 98.8133 86.2324 99.1102 86.2324C99.493 86.2324 99.8172 86.1543 100.083 85.998C100.348 85.8418 100.581 85.6328 100.78 85.3711L101.436 85.8926C101.3 86.0996 101.126 86.2969 100.915 86.4844C100.704 86.6719 100.444 86.8242 100.136 86.9414C99.8309 87.0586 99.4695 87.1172 99.0516 87.1172ZM106.038 80.6602V81.4922H102.611V80.6602H106.038ZM103.771 79.1191H104.855V85.4297C104.855 85.6445 104.888 85.8066 104.954 85.916C105.021 86.0254 105.107 86.0977 105.212 86.1328C105.318 86.168 105.431 86.1855 105.552 86.1855C105.642 86.1855 105.736 86.1777 105.833 86.1621C105.935 86.1426 106.011 86.127 106.062 86.1152L106.068 87C105.982 87.0273 105.868 87.0527 105.728 87.0762C105.591 87.1035 105.425 87.1172 105.23 87.1172C104.964 87.1172 104.72 87.0645 104.497 86.959C104.275 86.8535 104.097 86.6777 103.964 86.4316C103.835 86.1816 103.771 85.8457 103.771 85.4238V79.1191Z" fill="#D3A466"/>
<path d="M18.457 17.1172C18.0156 17.1172 17.6152 17.043 17.2559 16.8945C16.9004 16.7422 16.5938 16.5293 16.3359 16.2559C16.082 15.9824 15.8867 15.6582 15.75 15.2832C15.6133 14.9082 15.5449 14.498 15.5449 14.0527V13.8066C15.5449 13.291 15.6211 12.832 15.7734 12.4297C15.9258 12.0234 16.1328 11.6797 16.3945 11.3984C16.6562 11.1172 16.9531 10.9043 17.2852 10.7598C17.6172 10.6152 17.9609 10.543 18.3164 10.543C18.7695 10.543 19.1602 10.6211 19.4883 10.7773C19.8203 10.9336 20.0918 11.1523 20.3027 11.4336C20.5137 11.7109 20.6699 12.0391 20.7715 12.418C20.873 12.793 20.9238 13.2031 20.9238 13.6484V14.1348H16.1895V13.25H19.8398V13.168C19.8242 12.8867 19.7656 12.6133 19.6641 12.3477C19.5664 12.082 19.4102 11.8633 19.1953 11.6914C18.9805 11.5195 18.6875 11.4336 18.3164 11.4336C18.0703 11.4336 17.8438 11.4863 17.6367 11.5918C17.4297 11.6934 17.252 11.8457 17.1035 12.0488C16.9551 12.252 16.8398 12.5 16.7578 12.793C16.6758 13.0859 16.6348 13.4238 16.6348 13.8066V14.0527C16.6348 14.3535 16.6758 14.6367 16.7578 14.9023C16.8438 15.1641 16.9668 15.3945 17.127 15.5938C17.291 15.793 17.4883 15.9492 17.7188 16.0625C17.9531 16.1758 18.2188 16.2324 18.5156 16.2324C18.8984 16.2324 19.2227 16.1543 19.4883 15.998C19.7539 15.8418 19.9863 15.6328 20.1855 15.3711L20.8418 15.8926C20.7051 16.0996 20.5312 16.2969 20.3203 16.4844C20.1094 16.6719 19.8496 16.8242 19.541 16.9414C19.2363 17.0586 18.875 17.1172 18.457 17.1172ZM23.5219 10.6602L24.9105 12.9688L26.3168 10.6602H27.5883L25.5141 13.7891L27.6527 17H26.3988L24.934 14.6211L23.4691 17H22.2094L24.3422 13.7891L22.2738 10.6602H23.5219ZM33.0809 15.916V12.6523C33.0809 12.4023 33.0301 12.1855 32.9285 12.002C32.8309 11.8145 32.6824 11.6699 32.4832 11.5684C32.284 11.4668 32.0379 11.416 31.7449 11.416C31.4715 11.416 31.2312 11.4629 31.0242 11.5566C30.8211 11.6504 30.6609 11.7734 30.5437 11.9258C30.4305 12.0781 30.3738 12.2422 30.3738 12.418H29.2898C29.2898 12.1914 29.3484 11.9668 29.4656 11.7441C29.5828 11.5215 29.7508 11.3203 29.9695 11.1406C30.1922 10.957 30.4578 10.8125 30.7664 10.707C31.0789 10.5977 31.4266 10.543 31.8094 10.543C32.2703 10.543 32.6766 10.6211 33.0281 10.7773C33.3836 10.9336 33.6609 11.1699 33.8602 11.4863C34.0633 11.7988 34.1648 12.1914 34.1648 12.6641V15.6172C34.1648 15.8281 34.1824 16.0527 34.2176 16.291C34.2566 16.5293 34.3133 16.7344 34.3875 16.9062V17H33.2566C33.202 16.875 33.159 16.709 33.1277 16.502C33.0965 16.291 33.0809 16.0957 33.0809 15.916ZM33.2684 13.1562L33.2801 13.918H32.1844C31.8758 13.918 31.6004 13.9434 31.3582 13.9941C31.116 14.041 30.9129 14.1133 30.7488 14.2109C30.5848 14.3086 30.4598 14.4316 30.3738 14.5801C30.2879 14.7246 30.2449 14.8945 30.2449 15.0898C30.2449 15.2891 30.2898 15.4707 30.3797 15.6348C30.4695 15.7988 30.6043 15.9297 30.784 16.0273C30.9676 16.1211 31.1922 16.168 31.4578 16.168C31.7898 16.168 32.0828 16.0977 32.3367 15.957C32.5906 15.8164 32.7918 15.6445 32.9402 15.4414C33.0926 15.2383 33.1746 15.041 33.1863 14.8496L33.6492 15.3711C33.6219 15.5352 33.5477 15.7168 33.4266 15.916C33.3055 16.1152 33.1434 16.3066 32.9402 16.4902C32.741 16.6699 32.5027 16.8203 32.2254 16.9414C31.952 17.0586 31.6434 17.1172 31.2996 17.1172C30.8699 17.1172 30.493 17.0332 30.1687 16.8652C29.8484 16.6973 29.5984 16.4727 29.4187 16.1914C29.243 15.9062 29.1551 15.5879 29.1551 15.2363C29.1551 14.8965 29.2215 14.5977 29.3543 14.3398C29.4871 14.0781 29.6785 13.8613 29.9285 13.6895C30.1785 13.5137 30.4793 13.3809 30.8309 13.291C31.1824 13.2012 31.575 13.1562 32.0086 13.1562H33.2684ZM37.548 11.9199V17H36.4582V10.6602H37.4895L37.548 11.9199ZM37.3254 13.5898L36.8215 13.5723C36.8254 13.1387 36.882 12.7383 36.9914 12.3711C37.1008 12 37.2629 11.6777 37.4777 11.4043C37.6926 11.1309 37.9602 10.9199 38.2805 10.7715C38.6008 10.6191 38.9719 10.543 39.3937 10.543C39.6906 10.543 39.9641 10.5859 40.2141 10.6719C40.4641 10.7539 40.6809 10.8848 40.8645 11.0645C41.048 11.2441 41.1906 11.4746 41.2922 11.7559C41.3937 12.0371 41.4445 12.377 41.4445 12.7754V17H40.3605V12.8281C40.3605 12.4961 40.3039 12.2305 40.1906 12.0312C40.0812 11.832 39.925 11.6875 39.7219 11.5977C39.5187 11.5039 39.2805 11.457 39.007 11.457C38.6867 11.457 38.4191 11.5137 38.2043 11.627C37.9895 11.7402 37.8176 11.8965 37.6887 12.0957C37.5598 12.2949 37.466 12.5234 37.4074 12.7812C37.3527 13.0352 37.3254 13.3047 37.3254 13.5898ZM41.4328 12.9922L40.7062 13.2148C40.7102 12.8672 40.7668 12.5332 40.8762 12.2129C40.9895 11.8926 41.1516 11.6074 41.3625 11.3574C41.5773 11.1074 41.841 10.9102 42.1535 10.7656C42.466 10.6172 42.8234 10.543 43.2258 10.543C43.5656 10.543 43.8664 10.5879 44.1281 10.6777C44.3937 10.7676 44.6164 10.9062 44.7961 11.0938C44.9797 11.2773 45.1184 11.5137 45.2121 11.8027C45.3059 12.0918 45.3527 12.4355 45.3527 12.834V17H44.2629V12.8223C44.2629 12.4668 44.2062 12.1914 44.093 11.9961C43.9836 11.7969 43.8273 11.6582 43.6242 11.5801C43.425 11.498 43.1867 11.457 42.9094 11.457C42.6711 11.457 42.4602 11.498 42.2766 11.5801C42.093 11.6621 41.9387 11.7754 41.8137 11.9199C41.6887 12.0605 41.593 12.2227 41.5266 12.4062C41.4641 12.5898 41.4328 12.7852 41.4328 12.9922ZM48.6773 11.8789V19.4375H47.5875V10.6602H48.5836L48.6773 11.8789ZM52.9488 13.7773V13.9004C52.9488 14.3613 52.8941 14.7891 52.7848 15.1836C52.6754 15.5742 52.5152 15.9141 52.3043 16.2031C52.0973 16.4922 51.8414 16.7168 51.5367 16.877C51.232 17.0371 50.8824 17.1172 50.4879 17.1172C50.0855 17.1172 49.7301 17.0508 49.4215 16.918C49.1129 16.7852 48.8512 16.5918 48.6363 16.3379C48.4215 16.084 48.2496 15.7793 48.1207 15.4238C47.9957 15.0684 47.9098 14.668 47.8629 14.2227V13.5664C47.9098 13.0977 47.9977 12.6777 48.1266 12.3066C48.2555 11.9355 48.4254 11.6191 48.6363 11.3574C48.8512 11.0918 49.1109 10.8906 49.4156 10.7539C49.7203 10.6133 50.0719 10.543 50.4703 10.543C50.8687 10.543 51.2223 10.6211 51.5309 10.7773C51.8395 10.9297 52.0992 11.1484 52.3102 11.4336C52.5211 11.7188 52.6793 12.0605 52.7848 12.459C52.8941 12.8535 52.9488 13.293 52.9488 13.7773ZM51.859 13.9004V13.7773C51.859 13.4609 51.8258 13.1641 51.7594 12.8867C51.693 12.6055 51.5895 12.3594 51.4488 12.1484C51.3121 11.9336 51.1363 11.7656 50.9215 11.6445C50.7066 11.5195 50.4508 11.457 50.1539 11.457C49.8805 11.457 49.6422 11.5039 49.4391 11.5977C49.2398 11.6914 49.0699 11.8184 48.9293 11.9785C48.7887 12.1348 48.6734 12.3145 48.5836 12.5176C48.4977 12.7168 48.4332 12.9238 48.3902 13.1387V14.6562C48.4684 14.9297 48.5777 15.1875 48.7184 15.4297C48.859 15.668 49.0465 15.8613 49.2809 16.0098C49.5152 16.1543 49.8102 16.2266 50.1656 16.2266C50.4586 16.2266 50.7105 16.166 50.9215 16.0449C51.1363 15.9199 51.3121 15.75 51.4488 15.5352C51.5895 15.3203 51.693 15.0742 51.7594 14.7969C51.8258 14.5156 51.859 14.2168 51.859 13.9004ZM56.1094 8V17H55.0195V8H56.1094ZM61.0805 17.1172C60.6391 17.1172 60.2387 17.043 59.8793 16.8945C59.5238 16.7422 59.2172 16.5293 58.9594 16.2559C58.7055 15.9824 58.5102 15.6582 58.3734 15.2832C58.2367 14.9082 58.1684 14.498 58.1684 14.0527V13.8066C58.1684 13.291 58.2445 12.832 58.3969 12.4297C58.5492 12.0234 58.7562 11.6797 59.018 11.3984C59.2797 11.1172 59.5766 10.9043 59.9086 10.7598C60.2406 10.6152 60.5844 10.543 60.9398 10.543C61.393 10.543 61.7836 10.6211 62.1117 10.7773C62.4437 10.9336 62.7152 11.1523 62.9262 11.4336C63.1371 11.7109 63.2934 12.0391 63.3949 12.418C63.4965 12.793 63.5473 13.2031 63.5473 13.6484V14.1348H58.8129V13.25H62.4633V13.168C62.4477 12.8867 62.3891 12.6133 62.2875 12.3477C62.1898 12.082 62.0336 11.8633 61.8187 11.6914C61.6039 11.5195 61.3109 11.4336 60.9398 11.4336C60.6937 11.4336 60.4672 11.4863 60.2602 11.5918C60.0531 11.6934 59.8754 11.8457 59.727 12.0488C59.5785 12.252 59.4633 12.5 59.3812 12.793C59.2992 13.0859 59.2582 13.4238 59.2582 13.8066V14.0527C59.2582 14.3535 59.2992 14.6367 59.3812 14.9023C59.4672 15.1641 59.5902 15.3945 59.7504 15.5938C59.9145 15.793 60.1117 15.9492 60.3422 16.0625C60.5766 16.1758 60.8422 16.2324 61.1391 16.2324C61.5219 16.2324 61.8461 16.1543 62.1117 15.998C62.3773 15.8418 62.6098 15.6328 62.809 15.3711L63.4652 15.8926C63.3285 16.0996 63.1547 16.2969 62.9437 16.4844C62.7328 16.6719 62.473 16.8242 62.1645 16.9414C61.8598 17.0586 61.4984 17.1172 61.0805 17.1172ZM65.366 16.4258C65.366 16.2422 65.4227 16.0879 65.5359 15.9629C65.6531 15.834 65.8211 15.7695 66.0398 15.7695C66.2586 15.7695 66.4246 15.834 66.5379 15.9629C66.6551 16.0879 66.7137 16.2422 66.7137 16.4258C66.7137 16.6055 66.6551 16.7578 66.5379 16.8828C66.4246 17.0078 66.2586 17.0703 66.0398 17.0703C65.8211 17.0703 65.6531 17.0078 65.5359 16.8828C65.4227 16.7578 65.366 16.6055 65.366 16.4258ZM65.3719 11.252C65.3719 11.0684 65.4285 10.9141 65.5418 10.7891C65.659 10.6602 65.827 10.5957 66.0457 10.5957C66.2645 10.5957 66.4305 10.6602 66.5438 10.7891C66.6609 10.9141 66.7195 11.0684 66.7195 11.252C66.7195 11.4316 66.6609 11.584 66.5438 11.709C66.4305 11.834 66.2645 11.8965 66.0457 11.8965C65.827 11.8965 65.659 11.834 65.5418 11.709C65.4285 11.584 65.3719 11.4316 65.3719 11.252Z" fill="#20454B"/>
<path d="M15 18.1719H67.493V18.7578H15V18.1719Z" fill="#20454B"/>
<rect x="15.5" y="53.5" width="262" height="46" stroke="#20454B" stroke-opacity="0.4"/>
</svg>
