<svg width="138" height="176" viewBox="0 0 138 176" fill="none" xmlns="http://www.w3.org/2000/svg">
<path d="M119 38H106.5C106.5 28.0544 102.549 18.5161 95.5165 11.4835C88.4839 4.45088 78.9456 0.5 69 0.5C59.0544 0.5 49.5161 4.45088 42.4835 11.4835C35.4509 18.5161 31.5 28.0544 31.5 38H19C14.0272 38 9.25806 39.9754 5.74175 43.4917C2.22544 47.0081 0.25 51.7772 0.25 56.75V144.25C0.259924 152.535 3.55551 160.478 9.41387 166.336C15.2722 172.194 23.215 175.49 31.5 175.5H106.5C114.785 175.49 122.728 172.194 128.586 166.336C134.444 160.478 137.74 152.535 137.75 144.25V56.75C137.75 51.7772 135.775 47.0081 132.258 43.4917C128.742 39.9754 123.973 38 119 38ZM69 13C75.6304 13 81.9893 15.6339 86.6777 20.3223C91.3661 25.0107 94 31.3696 94 38H44C44 31.3696 46.6339 25.0107 51.3223 20.3223C56.0107 15.6339 62.3696 13 69 13ZM125.25 144.25C125.25 149.223 123.275 153.992 119.758 157.508C116.242 161.025 111.473 163 106.5 163H31.5C26.5272 163 21.7581 161.025 18.2417 157.508C14.7254 153.992 12.75 149.223 12.75 144.25V56.75C12.75 55.0924 13.4085 53.5027 14.5806 52.3306C15.7527 51.1585 17.3424 50.5 19 50.5H31.5V63C31.5 64.6576 32.1585 66.2473 33.3306 67.4194C34.5027 68.5915 36.0924 69.25 37.75 69.25C39.4076 69.25 40.9973 68.5915 42.1694 67.4194C43.3415 66.2473 44 64.6576 44 63V50.5H94V63C94 64.6576 94.6585 66.2473 95.8306 67.4194C97.0027 68.5915 98.5924 69.25 100.25 69.25C101.908 69.25 103.497 68.5915 104.669 67.4194C105.842 66.2473 106.5 64.6576 106.5 63V50.5H119C120.658 50.5 122.247 51.1585 123.419 52.3306C124.592 53.5027 125.25 55.0924 125.25 56.75V144.25Z" fill="#143A56" fill-opacity="0.03"/>
</svg>
