<svg width="46" height="46" viewBox="0 0 46 46" fill="none" xmlns="http://www.w3.org/2000/svg">
<circle cx="23" cy="23" r="23" fill="#D9D9D9" fill-opacity="0.2"/>
<path d="M25.2209 22.6403C25.1817 21.987 24.7874 21.3926 24.194 21.1056L22.1217 20.1036C22.2987 19.9699 22.4626 19.814 22.6097 19.6358C23.2068 18.9115 23.5225 17.842 23.5225 16.5429C23.5224 14.5231 22.1982 13 20.4421 13C18.686 13 17.3618 14.5231 17.3618 16.5429C17.3618 18.3833 17.9707 19.5036 18.7664 20.1018L16.6902 21.1056C16.0969 21.3925 15.7026 21.9869 15.6633 22.6403L15.3227 23.2302C15.2175 23.4124 15.2799 23.6453 15.4621 23.7505C15.5221 23.7851 15.5876 23.8016 15.6522 23.8016C15.7838 23.8016 15.9118 23.7333 15.9823 23.6111L16.1803 23.2682L17.2079 23.8615L16.1223 25.7418L15.0947 25.1486L15.2363 24.9033C15.3414 24.7211 15.279 24.4882 15.0969 24.383C14.9147 24.2779 14.6817 24.3402 14.5766 24.5224C14.5766 24.5224 12.9473 27.3445 12.9473 27.3446C12.9472 27.3447 12.9472 27.3448 12.9471 27.3449L12.74 27.7036C12.5544 28.025 12.5087 28.3984 12.611 28.7551C12.7134 29.1117 12.9506 29.4041 13.2788 29.5783C13.4852 29.6879 13.7037 29.7402 13.9183 29.7402C14.3879 29.7402 14.8381 29.4894 15.0985 29.0383L15.2941 28.6995L16.5913 26.4527C16.5914 26.4526 16.5914 26.4526 16.5915 26.4525C16.5915 26.4524 17.3472 25.1434 17.3472 25.1434V26.7521L16.8758 28.5153C16.863 28.5634 16.8597 28.6137 16.8661 28.6631L17.9361 36.8456L17.3824 37.573C17.1764 37.8437 17.1423 38.2012 17.2933 38.5059C17.4443 38.8106 17.7494 38.9999 18.0896 38.9999H22.7947C23.1348 38.9999 23.4399 38.8106 23.591 38.5059C23.742 38.2012 23.7078 37.8437 23.5018 37.5731L22.9481 36.8456L23.6439 31.5242C23.6712 31.3157 23.5242 31.1245 23.3157 31.0972C23.1068 31.0701 22.9159 31.2169 22.8886 31.4255L22.8224 31.9323H20.823V29.8288L23.1872 29.1419L23.0822 29.9456C23.0549 30.1541 23.2019 30.3453 23.4104 30.3726C23.4272 30.3748 23.4438 30.3758 23.4602 30.3758C23.6486 30.3758 23.8124 30.2361 23.8374 30.0443L24.018 28.6631C24.0245 28.6136 24.0212 28.5634 24.0083 28.5153L23.5369 26.7521V25.1434C23.5369 25.1434 24.2926 26.4524 24.2927 26.4525C24.2927 26.4525 24.2927 26.4525 24.2928 26.4526L25.7857 29.0383C26.0461 29.4894 26.4963 29.7402 26.9659 29.7402C27.1804 29.7402 27.399 29.6878 27.6054 29.5782C27.9336 29.404 28.1708 29.1117 28.2731 28.755C28.3756 28.3983 28.3298 28.0249 28.1442 27.7036L25.2209 22.6403ZM25.1428 26.4015L26.1703 25.8082L27.0868 27.3956L26.0593 27.9888L25.1428 26.4015ZM23.6763 23.8615L24.7039 23.2682L25.7895 25.1486L24.7619 25.7418L23.6763 23.8615ZM20.4421 29.1462L17.7081 28.3519L18.0206 27.1831H22.8636L23.1761 28.3519L20.4421 29.1462ZM19.4675 34.3492H20.0612V36.5707H18.6684L18.1615 32.694H20.0612V33.5875H19.4675C19.2571 33.5875 19.0866 33.758 19.0866 33.9683C19.0866 34.1787 19.2571 34.3492 19.4675 34.3492ZM22.2158 36.5707H20.823V34.3492H22.5064L22.2158 36.5707ZM22.7752 26.4213H20.823V24.921L22.7752 25.4881V26.4213ZM20.0612 26.4213H18.1091V25.4881L20.0612 24.921V26.4213ZM20.5484 24.0481C20.479 24.028 20.4053 24.028 20.3359 24.0481L18.1091 24.6949V21.5913L20.3359 22.2381C20.3706 22.2482 20.4064 22.2533 20.4421 22.2533C20.4779 22.2533 20.5137 22.2482 20.5483 22.2381L22.7752 21.5913V24.6949L20.5484 24.0481ZM24.4412 22.5404L23.5369 23.0625V21.634L23.8624 21.7914C24.1635 21.9369 24.3761 22.2186 24.4412 22.5404ZM22.171 20.9736L20.823 21.3651V20.6342C20.9759 20.6141 21.1251 20.5819 21.2699 20.5379L22.171 20.9736ZM22.7607 16.5429C22.7607 18.4221 22.0283 19.6548 20.823 19.8659V13.7962C21.9508 14.0018 22.7607 15.1138 22.7607 16.5429ZM18.1235 16.5429C18.1235 15.1138 18.9335 14.0018 20.0612 13.7963V19.8659C18.856 19.6548 18.1235 18.4221 18.1235 16.5429ZM20.0612 20.6337V21.3651L18.7132 20.9736L19.6175 20.5363C19.7648 20.5815 19.9134 20.6136 20.0612 20.6337ZM17.0218 21.7914L17.3473 21.634V23.0624L16.4431 22.5403C16.5081 22.2186 16.7208 21.9369 17.0218 21.7914ZM15.7415 26.4015L14.825 27.9889L13.7974 27.3957L14.7139 25.8083L15.7415 26.4015ZM13.6361 28.9056C13.4921 28.8291 13.3881 28.7011 13.3432 28.545C13.2984 28.3888 13.3185 28.2252 13.3997 28.0845L13.4165 28.0553L14.4441 28.6485L14.4389 28.6575C14.2908 28.914 13.9676 29.0816 13.6361 28.9056ZM17.9758 38.1677C17.9628 38.1413 17.947 38.0889 17.9885 38.0344L18.5228 37.3324H20.0612V38.2383H18.0895C18.021 38.2383 17.9889 38.194 17.9758 38.1677ZM22.9085 38.1677C22.8954 38.194 22.8633 38.2383 22.7947 38.2383H20.823V37.3324H22.3614L22.8957 38.0344C22.9372 38.089 22.9215 38.1413 22.9085 38.1677ZM22.7227 32.694L22.6059 33.5875H20.823V32.694H22.7227ZM18.0619 31.9323L17.6971 29.1419L20.0613 29.8288V31.9323H18.0619ZM27.541 28.545C27.4961 28.7011 27.3921 28.8291 27.2481 28.9056C26.9166 29.0816 26.5933 28.914 26.4453 28.6575L26.4401 28.6485L27.4676 28.0553L27.4845 28.0845C27.5658 28.2252 27.5858 28.3888 27.541 28.545Z" fill="white"/>
<path d="M33.3913 19.8937L32.4983 18.3468C32.393 18.1647 32.1602 18.1023 31.978 18.2074C31.7958 18.3126 31.7334 18.5455 31.8386 18.7277L32.021 19.0436L29.5722 17.6298V14.8022L29.7546 15.1181C29.8251 15.2403 29.9531 15.3086 30.0848 15.3086C30.1494 15.3086 30.2149 15.2921 30.2748 15.2575C30.457 15.1523 30.5194 14.9194 30.4142 14.7372L29.5212 13.1904C29.4532 13.0726 29.3275 13 29.1914 13C29.0553 13 28.9296 13.0726 28.8616 13.1904L27.9685 14.7373C27.8633 14.9194 27.9258 15.1524 28.1079 15.2575C28.29 15.3626 28.5229 15.3003 28.6282 15.1181L28.8105 14.8023V17.6298L26.3617 19.0436L26.5442 18.7277C26.6493 18.5455 26.5869 18.3126 26.4048 18.2074C26.2226 18.1022 25.9897 18.1646 25.8845 18.3468L24.9915 19.8937C24.9234 20.0115 24.9234 20.1567 24.9915 20.2745C25.0595 20.3923 25.1852 20.4649 25.3213 20.4649H27.1074C27.3178 20.4649 27.4883 20.2945 27.4883 20.0841C27.4883 19.8737 27.3178 19.7032 27.1074 19.7032H26.7427L29.1914 18.2894L31.6402 19.7032H31.2754C31.0651 19.7032 30.8946 19.8737 30.8946 20.0841C30.8946 20.2945 31.0651 20.4649 31.2754 20.4649H33.0616C33.1977 20.4649 33.3233 20.3923 33.3914 20.2745C33.4594 20.1567 33.4593 20.0115 33.3913 19.8937Z" fill="white"/>
</svg>
