<svg width="141" height="113" viewBox="0 0 141 113" fill="none" xmlns="http://www.w3.org/2000/svg">
<path d="M127.716 81.2495C127.971 81.4455 128.185 81.6907 128.345 81.9705C128.505 82.2503 128.608 82.5592 128.646 82.8791C128.685 83.1991 128.66 83.5235 128.572 83.8335C128.484 84.1435 128.335 84.4328 128.134 84.6845C127.932 84.9361 127.683 85.1451 127.4 85.2991C127.117 85.4531 126.806 85.5491 126.485 85.5814C126.164 85.6137 125.84 85.5817 125.532 85.4872C125.224 85.3927 124.938 85.2377 124.691 85.0312L116.516 78.4922V97.6717C116.516 98.314 116.26 98.93 115.806 99.3842C115.352 99.8384 114.736 100.094 114.094 100.094C113.451 100.094 112.835 99.8384 112.381 99.3842C111.927 98.93 111.672 98.314 111.672 97.6717V78.4922L103.497 85.0312C103.249 85.2377 102.963 85.3927 102.655 85.4872C102.347 85.5817 102.023 85.6137 101.702 85.5814C101.382 85.5491 101.071 85.4531 100.788 85.2991C100.505 85.1451 100.255 84.9361 100.054 84.6845C99.8526 84.4328 99.7036 84.1435 99.6155 83.8335C99.5274 83.5235 99.5021 83.1991 99.5411 82.8791C99.58 82.5592 99.6824 82.2503 99.8422 81.9705C100.002 81.6907 100.216 81.4455 100.472 81.2495L112.581 71.562C113.011 71.2187 113.544 71.0317 114.094 71.0317C114.643 71.0317 115.177 71.2187 115.606 71.562L127.716 81.2495ZM140.734 85.5624C140.737 92.2058 138.256 98.6102 133.779 103.518C129.302 108.427 123.152 111.484 116.536 112.091C109.92 112.698 103.317 110.81 98.0215 106.798C92.7263 102.786 89.122 96.9391 87.9159 90.4061H7.53125C5.60494 90.404 3.75812 89.6378 2.39601 88.2757C1.0339 86.9136 0.26774 85.0668 0.265625 83.1405V8.06249C0.26774 6.13618 1.0339 4.28937 2.39601 2.92726C3.75812 1.56515 5.60494 0.79899 7.53125 0.796875H109.25C111.176 0.79899 113.023 1.56515 114.385 2.92726C115.747 4.28937 116.514 6.13618 116.516 8.06249V59.0446C123.13 59.6546 129.278 62.711 133.758 67.6157C138.237 72.5203 140.725 78.92 140.734 85.5624ZM5.10938 8.06249V81.6874L39.9677 38.1135C40.4354 37.5288 41.0323 37.0604 41.7115 36.7452C42.3907 36.43 43.1338 36.2766 43.8823 36.297C44.6308 36.3174 45.3644 36.511 46.0255 36.8627C46.6866 37.2144 47.2571 37.7146 47.6922 38.324L60.8176 55.4922L74.1401 42.1697C74.6178 41.6826 75.1951 41.3043 75.8324 41.0606C76.4697 40.8169 77.1521 40.7136 77.833 40.7577C78.5131 40.7956 79.1777 40.9764 79.7833 41.2884C80.3889 41.6003 80.9219 42.0365 81.3476 42.5683L99.9573 63.0218C103.492 60.7877 107.507 59.4247 111.672 59.0446V8.06249C111.671 7.42042 111.416 6.80489 110.962 6.35089C110.508 5.89688 109.892 5.64145 109.25 5.64062H7.53125C6.88918 5.64145 6.27365 5.89688 5.81965 6.35089C5.36564 6.80489 5.11021 7.42042 5.10938 8.06249ZM43.7966 41.2024L8.21349 85.5624H77.7092L43.7966 41.2024ZM87.4531 85.5624C87.4553 81.8765 88.225 78.2315 89.7132 74.8595C91.2015 71.4874 93.3756 68.4623 96.0973 65.9767L77.6639 45.7114L63.7929 59.3841L83.8065 85.5624H87.4531ZM135.891 85.5624C135.891 81.2514 134.612 77.0372 132.217 73.4527C129.822 69.8682 126.418 67.0745 122.435 65.4247C118.452 63.775 114.07 63.3433 109.841 64.1843C105.613 65.0254 101.729 67.1013 98.681 70.1497C95.6327 73.198 93.5567 77.0818 92.7157 81.31C91.8747 85.5382 92.3063 89.9208 93.9561 93.9036C95.6058 97.8865 98.3996 101.291 101.984 103.686C105.569 106.081 109.783 107.359 114.094 107.359C119.873 107.353 125.413 105.054 129.499 100.968C133.586 96.8817 135.884 91.3413 135.891 85.5624ZM77.7656 22.5937C77.7656 20.1987 78.4758 17.8575 79.8064 15.8661C81.137 13.8747 83.0282 12.3227 85.2409 11.4061C87.4536 10.4896 89.8884 10.2498 92.2374 10.717C94.5864 11.1843 96.7441 12.3376 98.4376 14.0311C100.131 15.7246 101.284 17.8823 101.752 20.2313C102.219 22.5803 101.979 25.0151 101.063 27.2278C100.146 29.4405 98.594 31.3317 96.6026 32.6623C94.6112 33.9929 92.27 34.7031 89.875 34.7031C86.6646 34.6993 83.5867 33.4223 81.3166 31.1521C79.0464 28.882 77.7694 25.8042 77.7656 22.5937ZM82.6094 22.5937C82.6094 24.0307 83.0355 25.4354 83.8339 26.6303C84.6322 27.8251 85.767 28.7563 87.0946 29.3063C88.4222 29.8562 89.8831 30.0001 91.2924 29.7197C92.7018 29.4394 93.9965 28.7474 95.0126 27.7313C96.0287 26.7152 96.7207 25.4206 97.001 24.0112C97.2814 22.6018 97.1375 21.1409 96.5876 19.8133C96.0376 18.4857 95.1064 17.3509 93.9116 16.5526C92.7167 15.7542 91.312 15.3281 89.875 15.3281C87.9487 15.3302 86.1019 16.0964 84.7398 17.4585C83.3776 18.8206 82.6115 20.6674 82.6094 22.5937Z" fill="#101010" fill-opacity="0.1"/>
</svg>
